# Blender 5.0.1
# www.blender.org
mtllib cancha.mtl
g QuidGoalTex_Malla
v -49.262188 -13.095745 -21.043493
v -49.277378 27.866243 -21.043495
v -49.817390 26.408983 -21.921110
v -49.292568 28.559057 -23.587318
v -50.357353 27.866243 -21.043495
v -50.342163 28.559057 -18.385180
v -49.292568 28.559057 -18.499592
v -49.292568 30.453192 -16.637386
v -50.342163 30.453192 -16.637386
v -49.292568 33.040619 -15.955767
v -50.342163 33.040619 -15.955767
v -50.342163 35.628059 -16.637386
v -49.292568 35.628059 -16.637386
v -50.342163 37.522186 -18.499592
v -49.817390 36.356438 -15.396969
v -49.817390 33.040619 -14.523478
v -49.817390 29.724806 -15.396969
v -50.342163 28.559057 -23.587318
v -49.292568 30.453192 -25.449522
v -50.342163 30.453192 -25.449522
v -49.292568 33.040619 -26.131224
v -50.342163 33.040619 -26.131224
v -49.292568 35.628059 -25.449522
v -49.817390 33.040619 -27.563431
v -49.817390 29.724806 -26.689938
v -50.342163 35.628059 -25.449522
v -50.342163 37.522186 -23.587318
v -49.817390 36.356438 -26.689938
v -49.817390 27.297457 -24.303465
v -49.292568 37.522186 -23.587318
v -50.342163 38.215485 -21.043495
v -49.817390 38.783783 -24.303465
v -49.817390 26.408983 -20.175825
v -49.817390 27.297457 -17.783527
v -49.817390 -13.095745 -20.168709
v -49.292568 37.522186 -18.499592
v -49.292568 38.215485 -21.043495
v -49.817390 38.783783 -17.783445
v -49.817390 39.672256 -21.043495
v -50.372543 -13.095745 -21.043493
v -49.817390 -13.095745 -21.918198
v -49.262188 -6.414386 34.100288
v -49.277378 34.547600 34.100288
v -49.817390 33.090347 33.222633
v -49.292568 35.240417 31.556423
v -50.357353 34.547600 34.100288
v -50.342163 35.240417 36.758602
v -49.292568 35.240417 36.644150
v -49.292568 37.134552 38.506390
v -50.342163 37.134552 38.506390
v -49.292568 39.721985 39.188011
v -50.342163 39.721985 39.188011
v -50.342163 42.309418 38.506390
v -49.292568 42.309418 38.506390
v -50.342163 44.203552 36.644150
v -49.817390 43.037804 39.746769
v -49.817390 39.721985 40.620258
v -49.817390 36.406166 39.746769
v -50.342163 35.240417 31.556423
v -49.292568 37.134552 29.694218
v -50.342163 37.134552 29.694218
v -49.292568 39.721985 29.012558
v -50.342163 39.721985 29.012558
v -49.292568 42.309418 29.694218
v -49.817390 39.721985 27.580349
v -49.817390 36.406166 28.453840
v -50.342163 42.309418 29.694218
v -50.342163 44.203552 31.556423
v -49.817390 43.037804 28.453840
v -49.817390 33.978821 30.840319
v -49.292568 44.203552 31.556423
v -50.342163 44.896858 34.100288
v -49.817390 45.465157 30.840319
v -49.817390 33.090347 34.967918
v -49.817390 33.978821 37.360210
v -49.817390 -6.414386 34.975033
v -49.292568 44.203552 36.644150
v -49.292568 44.896858 34.100288
v -49.817390 45.465157 37.360291
v -49.817390 46.353622 34.100288
v -50.372543 -6.414386 34.100288
v -49.817390 -6.414386 33.225544
v -49.262188 -0.679394 6.943817
v -49.277378 40.282600 6.943815
v -49.817390 38.825340 6.066119
v -49.292568 40.975410 4.399911
v -50.357353 40.282600 6.943815
v -50.342163 40.975410 9.602050
v -49.292568 40.975410 9.487638
v -49.292568 42.869545 11.349882
v -50.342163 42.869545 11.349882
v -49.292568 45.456978 12.031502
v -50.342163 45.456978 12.031502
v -50.342163 48.044411 11.349882
v -49.292568 48.044411 11.349882
v -50.342163 49.938545 9.487638
v -49.817390 48.772797 12.590219
v -49.817390 45.456978 13.463751
v -49.817390 42.141159 12.590219
v -50.342163 40.975410 4.399911
v -49.292568 42.869545 2.537707
v -50.342163 42.869545 2.537707
v -49.292568 45.456978 1.856088
v -50.342163 45.456978 1.856088
v -49.292568 48.044411 2.537707
v -49.817390 45.456978 0.423798
v -49.817390 42.141159 1.297289
v -50.342163 48.044411 2.537707
v -50.342163 49.938545 4.399910
v -49.817390 48.772797 1.297289
v -49.817390 39.713814 3.683766
v -49.292568 49.938545 4.399910
v -50.342163 50.631844 6.943814
v -49.817390 51.200142 3.683765
v -49.817390 38.825340 7.811404
v -49.817390 39.713814 10.203702
v -49.817390 -0.679394 7.818521
v -49.292568 49.938545 9.487638
v -49.292568 50.631844 6.943814
v -49.817390 51.200142 10.203783
v -49.817390 52.088615 6.943814
v -50.372543 -0.679394 6.943817
v -49.817390 -0.679394 6.069031
v 56.312157 -13.095745 -21.043493
v 56.296967 27.866243 -21.043495
v 55.756950 26.408983 -21.921110
v 56.281776 28.559057 -23.587318
v 55.216988 27.866243 -21.043495
v 55.232178 28.559057 -18.385180
v 56.281776 28.559057 -18.499592
v 56.281776 30.453192 -16.637386
v 55.232178 30.453192 -16.637386
v 56.281776 33.040619 -15.955767
v 55.232178 33.040619 -15.955767
v 55.232178 35.628059 -16.637386
v 56.281776 35.628059 -16.637386
v 55.232178 37.522186 -18.499592
v 55.756950 36.356438 -15.396969
v 55.756950 33.040619 -14.523478
v 55.756950 29.724806 -15.396969
v 55.232178 28.559057 -23.587318
v 56.281776 30.453192 -25.449522
v 55.232178 30.453192 -25.449522
v 56.281776 33.040619 -26.131224
v 55.232178 33.040619 -26.131224
v 56.281776 35.628059 -25.449522
v 55.756950 33.040619 -27.563431
v 55.756950 29.724806 -26.689938
v 55.232178 35.628059 -25.449522
v 55.232178 37.522186 -23.587318
v 55.756950 36.356438 -26.689938
v 55.756950 27.297457 -24.303465
v 56.281776 37.522186 -23.587318
v 55.232178 38.215485 -21.043495
v 55.756950 38.783783 -24.303465
v 55.756950 26.408983 -20.175825
v 55.756950 27.297457 -17.783527
v 55.756950 -13.095745 -20.168709
v 56.281776 37.522186 -18.499592
v 56.281776 38.215485 -21.043495
v 55.756950 38.783783 -17.783445
v 55.756950 39.672256 -21.043495
v 55.201797 -13.095745 -21.043493
v 55.756950 -13.095745 -21.918198
v 56.312157 -6.414386 34.100288
v 56.296967 34.547600 34.100288
v 55.756950 33.090347 33.222633
v 56.281776 35.240417 31.556423
v 55.216988 34.547600 34.100288
v 55.232178 35.240417 36.758602
v 56.281776 35.240417 36.644150
v 56.281776 37.134552 38.506390
v 55.232178 37.134552 38.506390
v 56.281776 39.721985 39.188011
v 55.232178 39.721985 39.188011
v 55.232178 42.309418 38.506390
v 56.281776 42.309418 38.506390
v 55.232178 44.203552 36.644150
v 55.756950 43.037804 39.746769
v 55.756950 39.721985 40.620258
v 55.756950 36.406166 39.746769
v 55.232178 35.240417 31.556423
v 56.281776 37.134552 29.694218
v 55.232178 37.134552 29.694218
v 56.281776 39.721985 29.012558
v 55.232178 39.721985 29.012558
v 56.281776 42.309418 29.694218
v 55.756950 39.721985 27.580349
v 55.756950 36.406166 28.453840
v 55.232178 42.309418 29.694218
v 55.232178 44.203552 31.556423
v 55.756950 43.037804 28.453840
v 55.756950 33.978821 30.840319
v 56.281776 44.203552 31.556423
v 55.232178 44.896858 34.100288
v 55.756950 45.465157 30.840319
v 55.756950 33.090347 34.967918
v 55.756950 33.978821 37.360210
v 55.756950 -6.414386 34.975033
v 56.281776 44.203552 36.644150
v 56.281776 44.896858 34.100288
v 55.756950 45.465157 37.360291
v 55.756950 46.353622 34.100288
v 55.201797 -6.414386 34.100288
v 55.756950 -6.414386 33.225544
v 56.312157 -0.679394 6.943817
v 56.296967 40.282600 6.943815
v 55.756950 38.825340 6.066119
v 56.281776 40.975410 4.399911
v 55.216988 40.282600 6.943815
v 55.232178 40.975410 9.602050
v 56.281776 40.975410 9.487638
v 56.281776 42.869545 11.349882
v 55.232178 42.869545 11.349882
v 56.281776 45.456978 12.031502
v 55.232178 45.456978 12.031502
v 55.232178 48.044411 11.349882
v 56.281776 48.044411 11.349882
v 55.232178 49.938545 9.487638
v 55.756950 48.772797 12.590219
v 55.756950 45.456978 13.463751
v 55.756950 42.141159 12.590219
v 55.232178 40.975410 4.399911
v 56.281776 42.869545 2.537707
v 55.232178 42.869545 2.537707
v 56.281776 45.456978 1.856088
v 55.232178 45.456978 1.856088
v 56.281776 48.044411 2.537707
v 55.756950 45.456978 0.423798
v 55.756950 42.141159 1.297289
v 55.232178 48.044411 2.537707
v 55.232178 49.938545 4.399910
v 55.756950 48.772797 1.297289
v 55.756950 39.713814 3.683766
v 56.281776 49.938545 4.399910
v 55.232178 50.631844 6.943814
v 55.756950 51.200142 3.683765
v 55.756950 38.825340 7.811404
v 55.756950 39.713814 10.203702
v 55.756950 -0.679394 7.818521
v 56.281776 49.938545 9.487638
v 56.281776 50.631844 6.943814
v 55.756950 51.200142 10.203783
v 55.756950 52.088615 6.943814
v 55.201797 -0.679394 6.943817
v 55.756950 -0.679394 6.069031
vn -0.0001 1.0000 -0.0000
vn -0.9368 0.3375 -0.0920
vn -0.9126 -0.3120 -0.2642
vn -0.9126 -0.3121 0.2642
vn -0.0000 -0.9648 0.2630
vn 0.9126 -0.3121 0.2643
vn 0.9126 -0.3120 -0.2642
vn 0.9368 0.3375 -0.0920
vn -0.9360 0.2468 -0.2510
vn -0.0000 -0.7011 0.7131
vn 0.9360 0.2468 -0.2511
vn -0.9351 0.0903 -0.3426
vn -0.0000 -0.2548 0.9670
vn 0.9351 0.0903 -0.3427
vn 0.9351 0.0903 -0.3426
vn -0.9351 -0.0903 -0.3426
vn -0.0000 0.2548 0.9670
vn 0.9351 -0.0903 -0.3427
vn 0.9351 -0.0903 -0.3426
vn -0.9360 -0.2468 -0.2510
vn -0.0000 0.7011 0.7131
vn 0.9360 -0.2468 -0.2511
vn -0.9448 -0.3113 -0.1022
vn -0.9688 -0.2267 0.1004
vn -0.9516 -0.2879 -0.1074
vn -0.9373 -0.3349 -0.0968
vn -0.0000 0.9649 0.2628
vn 0.6532 0.6885 0.3151
vn 0.9448 -0.3109 -0.1036
vn 0.9448 -0.3109 -0.1037
vn 0.9501 -0.2995 -0.0873
vn 0.9390 -0.3224 -0.1202
vn -0.2279 -0.4621 0.8570
vn -0.6790 0.4241 -0.5993
vn 0.0031 -0.8393 0.5436
vn -0.2766 -0.4547 0.8466
vn -0.9613 -0.1685 -0.2182
vn -0.9497 -0.3018 0.0841
vn -0.5123 0.8541 0.0899
vn -0.0137 0.9662 -0.2573
vn -0.0275 0.9673 -0.2520
vn 0.7317 0.6180 0.2876
vn 0.9361 -0.1256 -0.3287
vn 0.9373 -0.3349 0.0968
vn 0.6531 0.6886 0.3151
vn 0.2755 -0.4263 0.8616
vn -0.6576 -0.5887 0.4701
vn -0.6576 -0.5886 0.4702
vn -0.9316 -0.2505 0.2633
vn -0.9360 -0.2468 0.2510
vn -0.9271 -0.2542 0.2755
vn -0.6792 0.4240 -0.5992
vn -0.0388 0.6892 -0.7236
vn -0.0000 0.6781 -0.7349
vn -0.0775 0.6990 -0.7109
vn 0.9360 -0.2468 0.2511
vn 0.0029 -0.8394 0.5436
vn -0.9351 -0.0903 0.3426
vn -0.0000 0.2547 -0.9670
vn 0.9351 -0.0903 0.3426
vn -0.9351 0.0903 0.3426
vn -0.0000 -0.2547 -0.9670
vn 0.9351 0.0903 0.3426
vn -0.9360 0.2468 0.2510
vn -0.9136 -0.4006 0.0702
vn -0.0001 0.8623 0.5064
vn -0.0000 -0.7011 -0.7131
vn 0.9114 -0.1401 -0.3870
vn -0.9114 -0.1401 -0.3870
vn 0.9360 0.2468 0.2511
vn 0.0001 0.8623 0.5064
vn 0.9136 -0.4006 0.0702
vn -0.0000 0.8625 0.5061
vn -0.9126 -0.3120 0.2642
vn -0.0000 1.0000 0.0003
vn -0.9136 -0.4005 0.0702
vn 0.9126 -0.3121 -0.2642
vn -0.9126 -0.3121 -0.2643
vn 0.9136 -0.4006 0.0703
vn 0.9114 -0.1402 -0.3870
vn 0.8480 0.0001 -0.5300
vn 0.8443 0.0003 -0.5359
vn 0.9360 -0.1256 -0.3287
vn 0.8517 -0.0000 -0.5240
vn 0.8443 0.0001 0.5359
vn -0.2281 -0.4621 0.8570
vn -0.2758 -0.4546 0.8469
vn 0.7315 0.6183 0.2873
vn 0.8488 0.0003 0.5288
vn -0.8443 0.0003 0.5358
vn -0.5124 0.8540 0.0902
vn 0.2756 -0.4263 0.8616
vn -0.8490 0.0001 0.5285
vn -0.8479 0.0001 -0.5301
vn -0.8443 -0.0000 -0.5359
vn -0.8479 0.0001 -0.5302
vn -0.9612 -0.1685 -0.2183
vn -0.0000 1.0000 -0.0000
vn -0.0000 -0.9648 0.2629
vn -0.9360 0.2468 -0.2511
vn -0.9360 -0.2468 -0.2511
vn 0.9501 -0.2995 -0.0872
vn -0.2279 -0.4621 0.8571
vn -0.6791 0.4240 -0.5992
vn 0.0032 -0.8393 0.5436
vn -0.9612 -0.1685 -0.2182
vn -0.5123 0.8541 0.0900
vn 0.9360 -0.1257 -0.3287
vn 0.6530 0.6887 0.3151
vn -0.6575 -0.5887 0.4702
vn 0.9360 -0.2469 0.2511
vn 0.0030 -0.8394 0.5436
vn 0.9351 -0.0903 0.3427
vn 0.9351 0.0903 0.3427
vn 0.9113 -0.1401 -0.3871
vn 0.8480 0.0001 -0.5299
vn -0.2280 -0.4620 0.8571
vn -0.2760 -0.4547 0.8468
vn 0.7315 0.6183 0.2874
vn -0.8489 0.0001 0.5285
vn -0.8443 -0.0000 -0.5358
vn -0.0000 -0.2547 0.9670
vn -0.0000 0.2547 0.9670
vn -0.9448 -0.3114 -0.1022
vn -0.6790 0.4240 -0.5993
vn -0.0137 0.9662 -0.2574
vn -0.6576 -0.5886 0.4701
vn -0.6576 -0.5887 0.4702
vn -0.9316 -0.2506 0.2633
vn -0.9360 -0.2468 0.2511
vn -0.0000 0.6782 -0.7349
vn -0.9360 0.2468 0.2511
vn -0.0000 0.8623 0.5064
vn 0.9136 -0.4005 0.0702
vn 0.8481 0.0001 -0.5299
vn -0.2759 -0.4546 0.8468
vn 0.7315 0.6184 0.2874
vn 0.8487 0.0003 0.5288
vn -0.8443 0.0003 0.5359
vn 0.9372 -0.3349 0.0968
vn 0.9389 -0.3224 -0.1202
vn 0.0033 -0.8393 0.5436
vn -0.9496 -0.3018 0.0841
vn -0.9114 -0.1402 -0.3870
vt 0.000000 0.000000
vt 1.000000 1.000000
vt 0.000000 1.000000
vt 1.000000 0.000000
s 1
g off
g QuidGoalTex_QuidGoalTex0
usemtl QuidGoalTex0
f 39/1/1 32/3/2 27/2/2
f 39/1/1 27/2/2 31/4/3
s 2
f 31/1/4 27/3/5 30/2/5
f 31/1/4 30/2/5 37/4/6
s 3
f 37/1/7 30/3/8 32/2/8
f 37/1/7 32/2/8 39/4/1
s 4
f 32/1/9 28/3/9 26/2/9
f 32/1/9 26/2/9 27/4/9
s 5
f 27/1/10 26/3/10 23/2/10
f 27/1/10 23/2/10 30/4/10
s 6
f 30/1/11 23/3/11 28/2/11
f 30/1/11 28/2/11 32/4/11
s 7
f 28/1/12 24/3/12 22/2/12
f 28/1/12 22/2/12 26/4/12
s 8
f 26/1/13 22/3/13 21/2/13
f 26/1/13 21/2/13 23/4/13
s 9
f 23/1/14 21/3/14 24/2/14
f 23/1/14 24/2/14 28/4/15
s 10
f 24/1/16 25/3/16 20/2/16
f 24/1/16 20/2/16 22/4/16
s 11
f 22/1/17 20/3/17 19/2/17
f 22/1/17 19/2/17 21/4/17
s 12
f 21/1/18 19/3/19 25/2/18
f 21/1/18 25/2/18 24/4/18
s 13
f 25/1/20 29/3/20 18/2/20
f 25/1/20 18/2/20 20/4/20
s 14
f 20/1/21 18/3/21 4/2/21
f 20/1/21 4/2/21 19/4/21
s 15
f 19/1/22 4/3/22 29/2/22
f 19/1/22 29/2/22 25/4/22
s 16
f 29/1/23 3/3/25 5/2/24
f 29/1/23 5/2/24 18/4/26
s 17
f 18/1/27 5/3/27 2/2/28
f 18/1/27 2/2/28 4/4/27
s 18
f 4/1/29 2/3/31 3/2/30
f 4/1/29 3/2/30 29/4/32
s 19
f 33/2/33 34/4/35 6/1/34
s 20
f 33/1/36 6/2/38 5/4/37
s 21
f 5/1/39 6/3/41 7/2/40
f 5/1/39 7/2/40 2/4/42
s 22
f 2/1/43 7/3/44 34/2/44
s 23
f 2/2/45 34/1/47 33/3/46
s 24
f 34/1/48 17/3/50 9/2/49
f 34/1/48 9/2/49 6/4/51
s 25
f 6/1/52 9/3/54 8/2/53
f 6/1/52 8/2/53 7/4/55
s 26
f 7/1/56 8/3/56 17/2/56
f 7/1/56 17/2/56 34/4/57
s 27
f 17/1/58 16/3/58 11/2/58
f 17/1/58 11/2/58 9/4/58
s 28
f 9/1/59 11/3/59 10/2/59
f 9/1/59 10/2/59 8/4/59
s 29
f 8/1/60 10/3/60 16/2/60
f 8/1/60 16/2/60 17/4/60
s 30
f 16/1/61 15/3/61 12/2/61
f 16/1/61 12/2/61 11/4/61
s 31
f 11/1/62 12/3/62 13/2/62
f 11/1/62 13/2/62 10/4/62
s 32
f 10/1/63 13/3/63 15/2/63
f 10/1/63 15/2/63 16/4/63
s 33
f 15/1/64 38/3/66 14/2/65
f 15/1/64 14/2/65 12/4/64
s 34
f 12/1/67 14/3/69 36/2/68
f 12/1/67 36/2/68 13/4/67
s 35
f 13/1/70 36/3/72 38/2/71
f 13/1/70 38/2/71 15/4/70
s 36
f 38/2/73 39/4/75 31/1/74
f 38/2/73 31/1/74 14/3/69
s 37
f 14/2/76 31/4/78 37/1/77
f 14/2/76 37/1/77 36/3/79
s 36
f 36/2/80 37/4/6 39/1/75
f 36/2/80 39/1/75 38/3/73
s 38
f 41/2/81 2/1/83 1/3/82
f 2/1/83 41/2/81 3/4/84
s 39
f 1/1/85 33/2/86 35/4/85
s 40
f 33/1/87 1/2/89 2/4/88
s 41
f 35/2/90 5/1/91 40/3/90
s 42
f 5/2/24 35/1/93 33/3/92
s 43
f 40/2/94 3/1/96 41/3/95
f 3/1/96 40/2/94 5/4/97
s 44
f 80/1/98 73/3/2 68/2/2
f 80/1/98 68/2/2 72/4/3
s 45
f 72/1/4 68/3/99 71/2/99
f 72/1/4 71/2/99 78/4/6
s 46
f 78/1/7 71/3/8 73/2/8
f 78/1/7 73/2/8 80/4/1
s 47
f 73/1/100 69/3/9 67/2/9
f 73/1/100 67/2/9 68/4/100
s 48
f 68/1/10 67/3/10 64/2/10
f 68/1/10 64/2/10 71/4/10
s 49
f 71/1/11 64/3/11 69/2/11
f 71/1/11 69/2/11 73/4/11
s 50
f 69/1/12 65/3/12 63/2/12
f 69/1/12 63/2/12 67/4/12
s 51
f 67/1/13 63/3/13 62/2/13
f 67/1/13 62/2/13 64/4/13
s 52
f 64/1/14 62/3/14 65/2/14
f 64/1/14 65/2/14 69/4/14
s 53
f 65/1/16 66/3/16 61/2/16
f 65/1/16 61/2/16 63/4/16
s 54
f 63/1/17 61/3/17 60/2/17
f 63/1/17 60/2/17 62/4/17
s 55
f 62/1/18 60/3/18 66/2/18
f 62/1/18 66/2/18 65/4/18
s 56
f 66/1/101 70/3/101 59/2/101
f 66/1/101 59/2/101 61/4/101
s 57
f 61/1/21 59/3/21 45/2/21
f 61/1/21 45/2/21 60/4/21
s 58
f 60/1/22 45/3/22 70/2/22
f 60/1/22 70/2/22 66/4/22
s 59
f 70/1/23 44/3/25 46/2/24
f 70/1/23 46/2/24 59/4/26
s 60
f 59/1/27 46/3/27 43/2/28
f 59/1/27 43/2/28 45/4/27
s 61
f 45/1/29 43/3/102 44/2/29
f 45/1/29 44/2/29 70/4/32
s 62
f 74/2/103 75/4/105 47/1/104
s 63
f 74/1/36 47/2/38 46/4/106
s 64
f 46/1/107 47/3/41 48/2/40
f 46/1/107 48/2/40 43/4/42
s 65
f 43/1/108 48/3/44 75/2/44
s 66
f 43/2/109 75/1/110 74/3/92
s 67
f 75/1/48 58/3/50 50/2/49
f 75/1/48 50/2/49 47/4/51
s 68
f 47/1/52 50/3/54 49/2/53
f 47/1/52 49/2/53 48/4/55
s 69
f 48/1/111 49/3/56 58/2/56
f 48/1/111 58/2/56 75/4/112
s 70
f 58/1/58 57/3/58 52/2/58
f 58/1/58 52/2/58 50/4/58
s 71
f 50/1/59 52/3/59 51/2/59
f 50/1/59 51/2/59 49/4/59
s 72
f 49/1/113 51/3/113 57/2/113
f 49/1/113 57/2/113 58/4/113
s 73
f 57/1/61 56/3/61 53/2/61
f 57/1/61 53/2/61 52/4/61
s 74
f 52/1/62 53/3/62 54/2/62
f 52/1/62 54/2/62 51/4/62
s 75
f 51/1/114 54/3/114 56/2/114
f 51/1/114 56/2/114 57/4/114
s 76
f 56/1/64 79/3/66 55/2/65
f 56/1/64 55/2/65 53/4/64
s 77
f 53/1/67 55/3/69 77/2/115
f 53/1/67 77/2/115 54/4/67
s 78
f 54/1/70 77/3/72 79/2/71
f 54/1/70 79/2/71 56/4/70
s 79
f 79/2/73 80/4/75 72/1/74
f 79/2/73 72/1/74 55/3/69
s 80
f 55/2/76 72/4/78 78/1/77
f 55/2/76 78/1/77 77/3/79
s 79
f 77/2/68 78/4/6 80/1/75
f 77/2/68 80/1/75 79/3/73
s 81
f 82/2/116 43/1/83 42/3/82
f 43/1/83 82/2/116 44/4/84
s 82
f 42/1/85 74/2/117 76/4/85
s 83
f 74/1/118 42/2/89 43/4/119
s 84
f 76/2/90 46/1/91 81/3/90
s 85
f 46/2/24 76/1/120 74/3/92
s 86
f 81/2/94 44/1/94 82/3/121
f 44/1/94 81/2/94 46/4/106
s 87
f 121/1/98 114/3/2 109/2/2
f 121/1/98 109/2/2 113/4/3
s 88
f 113/1/4 109/3/99 112/2/99
f 113/1/4 112/2/99 119/4/6
s 89
f 119/1/7 112/3/8 114/2/8
f 119/1/7 114/2/8 121/4/1
s 90
f 114/1/9 110/3/9 108/2/9
f 114/1/9 108/2/9 109/4/100
s 91
f 109/1/10 108/3/10 105/2/10
f 109/1/10 105/2/10 112/4/10
s 92
f 112/1/11 105/3/11 110/2/11
f 112/1/11 110/2/11 114/4/11
s 93
f 110/1/12 106/3/12 104/2/12
f 110/1/12 104/2/12 108/4/12
s 94
f 108/1/122 104/3/122 103/2/122
f 108/1/122 103/2/122 105/4/122
s 95
f 105/1/15 103/3/15 106/2/15
f 105/1/15 106/2/15 110/4/15
s 96
f 106/1/16 107/3/16 102/2/16
f 106/1/16 102/2/16 104/4/16
s 97
f 104/1/123 102/3/123 101/2/123
f 104/1/123 101/2/123 103/4/123
s 98
f 103/1/19 101/3/19 107/2/19
f 103/1/19 107/2/19 106/4/19
s 99
f 107/1/20 111/3/20 100/2/20
f 107/1/20 100/2/20 102/4/20
s 100
f 102/1/21 100/3/21 86/2/21
f 102/1/21 86/2/21 101/4/21
s 101
f 101/1/22 86/3/22 111/2/22
f 101/1/22 111/2/22 107/4/22
s 102
f 111/1/124 85/3/25 87/2/24
f 111/1/124 87/2/24 100/4/26
s 103
f 100/1/27 87/3/27 84/2/28
f 100/1/27 84/2/28 86/4/27
s 104
f 86/1/29 84/3/102 85/2/29
f 86/1/29 85/2/29 111/4/32
s 105
f 115/2/33 116/4/105 88/1/125
s 106
f 115/1/36 88/2/38 87/4/37
s 107
f 87/1/107 88/3/41 89/2/126
f 87/1/107 89/2/126 84/4/42
s 108
f 84/1/43 89/3/44 116/2/44
s 109
f 84/2/45 116/1/127 115/3/46
s 110
f 116/1/128 99/3/130 91/2/129
f 116/1/128 91/2/129 88/4/51
s 111
f 88/1/52 91/3/131 90/2/53
f 88/1/52 90/2/53 89/4/55
s 112
f 89/1/111 90/3/56 99/2/56
f 89/1/111 99/2/56 116/4/35
s 113
f 99/1/58 98/3/58 93/2/58
f 99/1/58 93/2/58 91/4/58
s 114
f 91/1/59 93/3/59 92/2/59
f 91/1/59 92/2/59 90/4/59
s 115
f 90/1/113 92/3/113 98/2/113
f 90/1/113 98/2/113 99/4/113
s 116
f 98/1/61 97/3/61 94/2/61
f 98/1/61 94/2/61 93/4/61
s 117
f 93/1/62 94/3/62 95/2/62
f 93/1/62 95/2/62 92/4/62
s 118
f 92/1/114 95/3/114 97/2/114
f 92/1/114 97/2/114 98/4/114
s 119
f 97/1/132 120/3/66 96/2/65
f 97/1/132 96/2/65 94/4/132
s 120
f 94/1/67 96/3/69 118/2/115
f 94/1/67 118/2/115 95/4/67
s 121
f 95/1/70 118/3/134 120/2/133
f 95/1/70 120/2/133 97/4/70
s 122
f 120/2/73 121/4/75 113/1/74
f 120/2/73 113/1/74 96/3/69
s 123
f 96/2/76 113/4/78 119/1/77
f 96/2/76 119/1/77 118/3/79
s 122
f 118/2/68 119/4/6 121/1/75
f 118/2/68 121/1/75 120/3/73
s 124
f 123/2/135 84/1/83 83/3/82
f 84/1/83 123/2/135 85/4/84
s 125
f 83/1/85 115/2/117 117/4/85
s 126
f 115/1/136 83/2/138 84/4/137
s 127
f 117/2/139 87/1/91 122/3/139
s 128
f 87/2/24 117/1/120 115/3/92
s 129
f 122/2/94 85/1/94 123/3/121
f 85/1/94 122/2/94 87/4/106
s 130
g QuidGoalTex_QuidGoalTex0.002
usemtl QuidGoalTex0.002
f 162/1/1 155/3/2 150/2/2
f 162/1/1 150/2/2 154/4/3
s 131
f 154/1/4 150/3/5 153/2/5
f 154/1/4 153/2/5 160/4/6
s 132
f 160/1/7 153/3/8 155/2/8
f 160/1/7 155/2/8 162/4/1
s 133
f 155/1/9 151/3/9 149/2/9
f 155/1/9 149/2/9 150/4/9
s 134
f 150/1/10 149/3/10 146/2/10
f 150/1/10 146/2/10 153/4/10
s 135
f 153/1/11 146/3/11 151/2/11
f 153/1/11 151/2/11 155/4/11
s 136
f 151/1/12 147/3/12 145/2/12
f 151/1/12 145/2/12 149/4/12
s 137
f 149/1/13 145/3/13 144/2/13
f 149/1/13 144/2/13 146/4/13
s 138
f 146/1/14 144/3/14 147/2/14
f 146/1/14 147/2/14 151/4/15
s 139
f 147/1/16 148/3/16 143/2/16
f 147/1/16 143/2/16 145/4/16
s 140
f 145/1/17 143/3/17 142/2/17
f 145/1/17 142/2/17 144/4/17
s 141
f 144/1/18 142/3/19 148/2/18
f 144/1/18 148/2/18 147/4/18
s 142
f 148/1/20 152/3/20 141/2/20
f 148/1/20 141/2/20 143/4/20
s 143
f 143/1/21 141/3/21 127/2/21
f 143/1/21 127/2/21 142/4/21
s 144
f 142/1/22 127/3/22 152/2/22
f 142/1/22 152/2/22 148/4/22
s 145
f 152/1/23 126/3/25 128/2/24
f 152/1/23 128/2/24 141/4/26
s 146
f 141/1/27 128/3/27 125/2/28
f 141/1/27 125/2/28 127/4/27
s 147
f 127/1/29 125/3/31 126/2/30
f 127/1/29 126/2/30 152/4/32
s 148
f 156/2/33 157/4/35 129/1/34
s 149
f 156/1/36 129/2/38 128/4/37
s 150
f 128/1/39 129/3/41 130/2/40
f 128/1/39 130/2/40 125/4/42
s 151
f 125/1/43 130/3/140 157/2/140
s 152
f 125/2/45 157/1/47 156/3/46
s 153
f 157/1/48 140/3/50 132/2/49
f 157/1/48 132/2/49 129/4/51
s 154
f 129/1/104 132/3/54 131/2/53
f 129/1/104 131/2/53 130/4/55
s 155
f 130/1/111 131/3/56 140/2/56
f 130/1/111 140/2/56 157/4/57
s 156
f 140/1/58 139/3/58 134/2/58
f 140/1/58 134/2/58 132/4/58
s 157
f 132/1/59 134/3/59 133/2/59
f 132/1/59 133/2/59 131/4/59
s 158
f 131/1/60 133/3/60 139/2/60
f 131/1/60 139/2/60 140/4/60
s 159
f 139/1/61 138/3/61 135/2/61
f 139/1/61 135/2/61 134/4/61
s 160
f 134/1/62 135/3/62 136/2/62
f 134/1/62 136/2/62 133/4/62
s 161
f 133/1/63 136/3/63 138/2/63
f 133/1/63 138/2/63 139/4/63
s 162
f 138/1/64 161/3/66 137/2/65
f 138/1/64 137/2/65 135/4/64
s 163
f 135/1/67 137/3/69 159/2/68
f 135/1/67 159/2/68 136/4/67
s 164
f 136/1/70 159/3/72 161/2/71
f 136/1/70 161/2/71 138/4/70
s 165
f 161/2/73 162/4/75 154/1/74
f 161/2/73 154/1/74 137/3/69
s 166
f 137/2/76 154/4/78 160/1/77
f 137/2/76 160/1/77 159/3/79
s 165
f 159/2/80 160/4/6 162/1/75
f 159/2/80 162/1/75 161/3/73
s 167
f 164/2/81 125/1/83 124/3/82
f 125/1/83 164/2/81 126/4/84
s 168
f 124/1/85 156/2/86 158/4/85
s 169
f 156/1/87 124/2/89 125/4/88
s 170
f 158/2/90 128/1/91 163/3/90
s 171
f 128/2/24 158/1/93 156/3/92
s 172
f 163/2/94 126/1/96 164/3/95
f 126/1/96 163/2/94 128/4/97
s 173
f 203/1/98 196/3/2 191/2/2
f 203/1/98 191/2/2 195/4/3
s 174
f 195/1/4 191/3/99 194/2/99
f 195/1/4 194/2/99 201/4/6
s 175
f 201/1/7 194/3/8 196/2/8
f 201/1/7 196/2/8 203/4/1
s 176
f 196/1/100 192/3/9 190/2/9
f 196/1/100 190/2/9 191/4/100
s 177
f 191/1/10 190/3/10 187/2/10
f 191/1/10 187/2/10 194/4/10
s 178
f 194/1/11 187/3/11 192/2/11
f 194/1/11 192/2/11 196/4/11
s 179
f 192/1/12 188/3/12 186/2/12
f 192/1/12 186/2/12 190/4/12
s 180
f 190/1/13 186/3/13 185/2/13
f 190/1/13 185/2/13 187/4/13
s 181
f 187/1/14 185/3/14 188/2/14
f 187/1/14 188/2/14 192/4/14
s 182
f 188/1/16 189/3/16 184/2/16
f 188/1/16 184/2/16 186/4/16
s 183
f 186/1/17 184/3/17 183/2/17
f 186/1/17 183/2/17 185/4/17
s 184
f 185/1/18 183/3/18 189/2/18
f 185/1/18 189/2/18 188/4/18
s 185
f 189/1/101 193/3/101 182/2/101
f 189/1/101 182/2/101 184/4/101
s 186
f 184/1/21 182/3/21 168/2/21
f 184/1/21 168/2/21 183/4/21
s 187
f 183/1/22 168/3/22 193/2/22
f 183/1/22 193/2/22 189/4/22
s 188
f 193/1/23 167/3/25 169/2/24
f 193/1/23 169/2/24 182/4/26
s 189
f 182/1/27 169/3/27 166/2/28
f 182/1/27 166/2/28 168/4/27
s 190
f 168/1/29 166/3/102 167/2/29
f 168/1/29 167/2/29 193/4/141
s 191
f 197/2/103 198/4/142 170/1/104
s 192
f 197/1/36 170/2/143 169/4/106
s 193
f 169/1/107 170/3/41 171/2/40
f 169/1/107 171/2/40 166/4/42
s 194
f 166/1/108 171/3/44 198/2/44
s 195
f 166/2/109 198/1/110 197/3/92
s 196
f 198/1/48 181/3/50 173/2/49
f 198/1/48 173/2/49 170/4/51
s 197
f 170/1/52 173/3/54 172/2/53
f 170/1/52 172/2/53 171/4/55
s 198
f 171/1/111 172/3/56 181/2/56
f 171/1/111 181/2/56 198/4/112
s 199
f 181/1/58 180/3/58 175/2/58
f 181/1/58 175/2/58 173/4/58
s 200
f 173/1/59 175/3/59 174/2/59
f 173/1/59 174/2/59 172/4/59
s 201
f 172/1/113 174/3/113 180/2/113
f 172/1/113 180/2/113 181/4/113
s 202
f 180/1/61 179/3/61 176/2/61
f 180/1/61 176/2/61 175/4/61
s 203
f 175/1/62 176/3/62 177/2/62
f 175/1/62 177/2/62 174/4/62
s 204
f 174/1/114 177/3/114 179/2/114
f 174/1/114 179/2/114 180/4/114
s 205
f 179/1/64 202/3/66 178/2/65
f 179/1/64 178/2/65 176/4/64
s 206
f 176/1/67 178/3/69 200/2/115
f 176/1/67 200/2/115 177/4/67
s 207
f 177/1/70 200/3/72 202/2/71
f 177/1/70 202/2/71 179/4/70
s 208
f 202/2/73 203/4/75 195/1/74
f 202/2/73 195/1/74 178/3/69
s 209
f 178/2/76 195/4/78 201/1/77
f 178/2/76 201/1/77 200/3/79
s 208
f 200/2/68 201/4/6 203/1/75
f 200/2/68 203/1/75 202/3/73
s 210
f 205/2/116 166/1/83 165/3/82
f 166/1/83 205/2/116 167/4/84
s 211
f 165/1/85 197/2/117 199/4/85
s 212
f 197/1/118 165/2/89 166/4/119
s 213
f 199/2/90 169/1/91 204/3/90
s 214
f 169/2/24 199/1/120 197/3/92
s 215
f 204/2/94 167/1/94 205/3/121
f 167/1/94 204/2/94 169/4/106
s 216
f 244/1/98 237/3/2 232/2/2
f 244/1/98 232/2/2 236/4/3
s 217
f 236/1/4 232/3/99 235/2/99
f 236/1/4 235/2/99 242/4/6
s 218
f 242/1/7 235/3/8 237/2/8
f 242/1/7 237/2/8 244/4/1
s 219
f 237/1/9 233/3/9 231/2/9
f 237/1/9 231/2/9 232/4/100
s 220
f 232/1/10 231/3/10 228/2/10
f 232/1/10 228/2/10 235/4/10
s 221
f 235/1/11 228/3/11 233/2/11
f 235/1/11 233/2/11 237/4/11
s 222
f 233/1/12 229/3/12 227/2/12
f 233/1/12 227/2/12 231/4/12
s 223
f 231/1/122 227/3/122 226/2/122
f 231/1/122 226/2/122 228/4/122
s 224
f 228/1/15 226/3/15 229/2/15
f 228/1/15 229/2/15 233/4/15
s 225
f 229/1/16 230/3/16 225/2/16
f 229/1/16 225/2/16 227/4/16
s 226
f 227/1/123 225/3/123 224/2/123
f 227/1/123 224/2/123 226/4/123
s 227
f 226/1/19 224/3/19 230/2/19
f 226/1/19 230/2/19 229/4/19
s 228
f 230/1/20 234/3/20 223/2/20
f 230/1/20 223/2/20 225/4/20
s 229
f 225/1/21 223/3/21 209/2/21
f 225/1/21 209/2/21 224/4/21
s 230
f 224/1/22 209/3/22 234/2/22
f 224/1/22 234/2/22 230/4/22
s 231
f 234/1/124 208/3/25 210/2/24
f 234/1/124 210/2/24 223/4/26
s 232
f 223/1/27 210/3/27 207/2/28
f 223/1/27 207/2/28 209/4/27
s 233
f 209/1/29 207/3/102 208/2/29
f 209/1/29 208/2/29 234/4/141
s 234
f 238/2/33 239/4/105 211/1/125
s 235
f 238/1/36 211/2/38 210/4/37
s 236
f 210/1/107 211/3/41 212/2/126
f 210/1/107 212/2/126 207/4/42
s 237
f 207/1/43 212/3/140 239/2/140
s 238
f 207/2/45 239/1/47 238/3/46
s 239
f 239/1/128 222/3/130 214/2/129
f 239/1/128 214/2/129 211/4/51
s 240
f 211/1/52 214/3/131 213/2/53
f 211/1/52 213/2/53 212/4/55
s 241
f 212/1/111 213/3/56 222/2/111
f 212/1/111 222/2/111 239/4/35
s 242
f 222/1/58 221/3/58 216/2/58
f 222/1/58 216/2/58 214/4/58
s 243
f 214/1/59 216/3/59 215/2/59
f 214/1/59 215/2/59 213/4/59
s 244
f 213/1/113 215/3/113 221/2/113
f 213/1/113 221/2/113 222/4/113
s 245
f 221/1/61 220/3/61 217/2/61
f 221/1/61 217/2/61 216/4/61
s 246
f 216/1/62 217/3/62 218/2/62
f 216/1/62 218/2/62 215/4/62
s 247
f 215/1/114 218/3/114 220/2/114
f 215/1/114 220/2/114 221/4/114
s 248
f 220/1/132 243/3/66 219/2/65
f 220/1/132 219/2/65 217/4/132
s 249
f 217/1/67 219/3/69 241/2/115
f 217/1/67 241/2/115 218/4/67
s 250
f 218/1/70 241/3/134 243/2/133
f 218/1/70 243/2/133 220/4/70
s 251
f 243/2/73 244/4/75 236/1/74
f 243/2/73 236/1/74 219/3/144
s 252
f 219/2/76 236/4/78 242/1/77
f 219/2/76 242/1/77 241/3/79
s 251
f 241/2/68 242/4/6 244/1/75
f 241/2/68 244/1/75 243/3/73
s 253
f 246/2/135 207/1/83 206/3/82
f 207/1/83 246/2/135 208/4/84
s 254
f 206/1/85 238/2/117 240/4/85
s 255
f 238/1/136 206/2/138 207/4/137
s 256
f 240/2/139 210/1/91 245/3/139
s 257
f 210/2/24 240/1/120 238/3/92
s 258
f 245/2/94 208/1/94 246/3/121
f 208/1/94 245/2/94 210/4/106
g Plano.001_Malla
v -71.441696 0.000000 55.617275
v 77.732651 0.000000 55.617275
v -71.441696 0.000000 -39.300991
v 77.732651 0.000000 -39.300991
vn -0.0000 1.0000 -0.0000
vt 1.000000 0.000000
vt 0.000000 1.000000
vt 0.000000 0.000000
vt 1.000000 1.000000
s 0
g off
g Plano.001_Material.025
usemtl Material.025
f 248/5/145 249/6/145 247/7/145
f 248/5/145 250/8/145 249/6/145
