# Blender 5.0.1
# www.blender.org
mtllib derechaP.mtl
g derechaP_Malla
v -0.264326 -0.039384 0.003602
v -0.237702 -0.039870 0.110857
v -0.189228 -0.040394 0.183220
v -0.112181 -0.053065 0.228519
v -0.008421 -0.077243 0.242431
v -0.003173 -0.016611 0.250768
v -0.100878 -1.666924 -0.064785
v -0.101967 -1.671173 -0.108712
v -0.088442 -1.634285 -0.063015
v -0.087520 -1.630250 -0.098473
v -0.073289 -1.603348 -0.064874
v -0.080962 -1.600650 -0.112665
v -0.075113 -1.566018 -0.056329
v -0.080826 -1.569529 -0.101368
v -0.060830 -1.510168 -0.064864
v -0.078666 -1.516977 -0.125496
v -0.053807 -1.400701 -0.051384
v -0.066374 -1.407332 -0.103579
v -0.048201 -1.341220 -0.059072
v -0.063807 -1.332210 -0.107833
v -0.044617 -1.254728 -0.067163
v -0.061408 -1.250708 -0.116160
v -0.031800 -1.195002 -0.073280
v -0.044780 -1.181764 -0.129081
v -0.004280 -1.107156 -0.082175
v -0.039474 -1.087376 -0.137500
v 0.000644 -1.020120 -0.075177
v -0.026102 -1.007975 -0.132488
v -0.004263 -0.938094 -0.067344
v -0.021966 -0.933767 -0.127184
v -0.011843 -0.855396 -0.058300
v -0.031589 -0.847797 -0.104847
v -0.018116 -0.789746 -0.052543
v -0.033056 -0.790480 -0.092162
v -0.006893 -0.747248 -0.060122
v -0.017441 -0.743015 -0.094776
v 0.006729 -0.658426 -0.064564
v -0.014169 -0.655808 -0.086572
v 0.021689 -0.602520 -0.063916
v -0.001663 -0.599885 -0.093987
v 0.041759 -0.523219 -0.056411
v 0.022606 -0.521453 -0.089077
v 0.059973 -0.409725 -0.044635
v 0.036510 -0.403603 -0.080405
v 0.077150 -0.318398 -0.046108
v 0.056860 -0.316691 -0.090234
v 0.083881 -0.283551 -0.049619
v 0.064924 -0.281748 -0.093550
v 0.090141 -0.235593 -0.048537
v 0.073470 -0.233757 -0.092205
v 0.077817 -0.208263 -0.101766
v 0.093558 -0.215861 -0.050326
v 0.086949 -0.167744 -0.121319
v 0.104994 -0.188522 -0.056103
v 0.116894 -0.179197 -0.054371
v 0.109721 -0.159539 -0.116110
v 0.128022 -0.176953 -0.055471
v 0.127810 -0.154907 -0.117277
v -0.116740 -1.139758 0.115265
v -0.055789 -1.072431 0.116989
v -0.112500 -1.055969 0.128306
v -0.053917 -1.158580 0.036625
v -0.024705 -1.179714 -0.038631
v -0.037730 -1.073691 0.069418
v -0.007955 -1.087403 -0.034062
v -0.083628 -1.164722 -0.177329
v -0.085293 -1.070075 -0.182892
v -0.173214 -1.150942 -0.201943
v -0.167745 -1.059758 -0.207642
v -0.122752 -1.159079 -0.198250
v -0.123771 -1.066468 -0.204484
v -0.242549 -1.146617 -0.170016
v -0.233627 -1.058018 -0.179554
v -0.297096 -1.144416 -0.116986
v -0.286636 -1.052619 -0.118746
v -0.299519 -1.153996 -0.023676
v -0.293826 -1.060648 -0.017106
v -0.255874 -1.150909 0.025133
v -0.256060 -1.051270 0.034329
v -0.223532 -1.136908 0.054162
v -0.218652 -1.049288 0.075196
v -0.190932 -1.131683 0.085370
v -0.188225 -1.045997 0.104216
v -0.182100 -0.982074 0.122818
v -0.107618 -0.991345 0.139650
v -0.220608 -0.982637 0.086661
v -0.259711 -0.981513 0.038905
v -0.281353 -0.983624 -0.018960
v -0.275102 -0.985556 -0.115117
v -0.227454 -0.983938 -0.172653
v -0.162792 -0.990614 -0.199440
v -0.113989 -0.995839 -0.199336
v -0.076962 -0.999488 -0.179024
v 0.004543 -1.015759 -0.024591
v -0.022224 -1.011089 0.071991
v -0.043977 -1.012334 0.122149
v -0.166749 -0.654934 0.180788
v -0.078176 -0.660578 0.205493
v -0.158707 -0.593910 0.176325
v -0.075761 -0.602413 0.202217
v -0.219756 -0.645768 0.140877
v -0.209556 -0.587877 0.139107
v -0.226385 -0.631237 0.053876
v -0.240877 -0.578839 0.063557
v -0.243624 -0.634676 -0.013975
v -0.243759 -0.577659 -0.004323
v -0.234145 -0.642947 -0.065347
v -0.225522 -0.581849 -0.068358
v -0.205507 -0.649044 -0.123265
v -0.182898 -0.581048 -0.127978
v -0.137397 -0.644301 -0.142987
v -0.136101 -0.583904 -0.134035
v -0.091223 -0.648738 -0.125717
v -0.081392 -0.591986 -0.123091
v -0.057928 -0.649642 -0.107736
v -0.046025 -0.596499 -0.111650
v 0.029805 -0.656186 0.004527
v 0.044201 -0.606927 0.006462
v 0.029053 -0.663769 0.094857
v 0.038406 -0.605794 0.095121
v 0.003125 -0.605718 0.153920
v -0.001407 -0.664790 0.149992
v -0.042286 -0.256344 0.206369
v -0.045707 -0.296249 0.206705
v 0.043217 -0.274308 0.185483
v 0.036125 -0.306500 0.169175
v -0.139328 -0.284187 0.205316
v -0.136155 -0.244141 0.208057
v -0.199765 -0.277092 0.156969
v -0.201100 -0.236817 0.159318
v -0.242340 -0.232515 0.092810
v -0.240837 -0.269712 0.094602
v -0.270913 -0.231305 -0.007027
v -0.264112 -0.269403 -0.011454
v -0.231792 -0.274678 -0.086035
v -0.233789 -0.235570 -0.087567
v -0.172221 -0.275045 -0.143218
v -0.168966 -0.237010 -0.143626
v -0.091330 -0.287793 -0.156064
v -0.084491 -0.248764 -0.164992
v -0.024653 -0.300748 -0.151874
v -0.020828 -0.259870 -0.159466
v 0.030015 -0.275294 -0.133702
v 0.022547 -0.312049 -0.127215
v 0.096944 -0.321938 0.019293
v 0.104527 -0.285942 0.023873
v 0.103739 -0.284421 0.076574
v 0.111789 -0.214227 0.064049
v 0.109206 -0.210279 0.128433
v 0.109789 -0.230511 0.033901
v 0.104672 -0.225522 0.111423
v 0.049998 -0.122924 -0.190691
v 0.041500 -0.189794 -0.156659
v 0.005604 -0.105062 -0.215189
v -0.002407 -0.173519 -0.192604
v -0.058090 -0.076681 -0.210352
v -0.068669 -0.151009 -0.189515
v -0.158993 -0.143717 -0.161646
v -0.143772 -0.075406 -0.174142
v -0.221500 -0.077923 -0.106476
v -0.226545 -0.139813 -0.099947
v -0.268526 -0.077002 0.000192
v -0.267332 -0.140117 -0.000694
v -0.244300 -0.081259 0.108746
v -0.243499 -0.141751 0.102982
v -0.198437 -0.078337 0.182011
v -0.198323 -0.140235 0.176554
v -0.116503 -0.089172 0.227916
v -0.127389 -0.150337 0.218333
v -0.010762 -0.115699 0.239874
v -0.025709 -0.171706 0.227303
v 0.063805 -0.149837 0.240143
v 0.057222 -0.197159 0.227464
v 0.129769 0.009242 -0.235584
v 0.135054 -0.115673 -0.198110
v 0.132089 -0.066279 -0.230200
v 0.129018 -0.193991 0.066310
v 0.127440 -0.186922 0.131910
v 0.137459 -0.160108 0.226958
v 0.129273 -0.100379 0.262150
v 0.129812 -0.024932 0.272506
v 0.049029 0.004965 -0.233899
v 0.094353 0.007034 -0.234988
v 0.049407 -0.076696 -0.232726
v 0.093446 -0.115354 -0.190833
v 0.096134 -0.072301 -0.230371
v 0.115036 -0.206002 0.065466
v 0.114742 -0.195495 0.130613
v 0.102430 -0.157346 0.243987
v 0.065371 -0.096806 0.248895
v 0.103078 -0.100974 0.265174
v 0.066397 -0.020823 0.261442
v 0.106032 -0.024438 0.272747
v -0.327213 -1.658684 0.085941
v -0.330322 -1.680276 -0.008453
v -0.182065 -1.575798 0.012025
v -0.303155 -1.624389 0.165675
v -0.223244 -1.603179 0.207453
v -0.136980 -1.628201 0.169123
v -0.112344 -1.657673 0.083860
v -0.093627 -1.680783 0.000778
v -0.100961 -1.698863 -0.065898
v -0.101981 -1.701356 -0.108842
v -0.112605 -1.707672 -0.174894
v -0.155242 -1.706491 -0.206295
v -0.200130 -1.705396 -0.218293
v -0.284902 -1.706237 -0.177292
v -0.311737 -1.695802 -0.088954
v -0.101197 -1.667573 0.045425
v -0.214258 -0.035829 -0.106517
v -0.138133 -0.036335 -0.181735
v -0.053894 -0.037663 -0.221613
v 0.005167 -0.058999 -0.231195
v -0.283883 -1.666169 -0.171858
v -0.316394 -1.660858 -0.087115
v -0.199286 -1.671499 -0.219305
v -0.159535 -1.669949 -0.210774
v -0.108271 -1.673429 -0.171203
v -0.323355 -1.636768 -0.005658
v -0.310588 -1.594395 -0.081201
v -0.307449 -1.563769 -0.080157
v -0.272564 -1.585262 -0.157410
v -0.269484 -1.556672 -0.145389
v -0.279953 -1.526477 -0.144689
v -0.310745 -1.534545 -0.076100
v -0.202916 -1.590702 -0.206838
v -0.188409 -1.553345 -0.201938
v -0.153392 -1.574875 -0.187610
v -0.162732 -1.553236 -0.183087
v -0.113085 -1.563497 -0.143164
v -0.104576 -1.515016 -0.154314
v -0.062205 -1.565638 -0.001613
v -0.065363 -1.500140 -0.017010
v -0.078588 -1.593129 0.003264
v -0.080060 -1.586388 0.037120
v -0.061485 -1.551726 0.040439
v -0.069871 -1.473624 0.043257
v -0.083636 -1.475879 0.073382
v -0.175455 -1.481272 0.113480
v -0.086120 -1.534830 0.071208
v -0.315124 -1.584129 -0.008235
v -0.319926 -1.561064 -0.002394
v -0.309906 -1.531559 -0.006490
v -0.306155 -1.617025 -0.084197
v -0.280790 -1.620782 -0.171107
v -0.192999 -1.612500 -0.214247
v -0.163285 -1.615707 -0.195929
v -0.112611 -1.619920 -0.155422
v -0.110417 -1.591445 -0.151955
v -0.096908 -1.631626 -0.000221
v -0.094510 -1.651961 0.001799
v -0.102732 -1.640404 0.043659
v -0.105330 -1.622696 0.034425
v -0.112327 -1.629281 0.078770
v -0.116298 -1.615436 0.067965
v -0.133197 -1.601367 0.165155
v -0.140871 -1.584433 0.144562
v -0.152598 -1.552197 0.141429
v -0.091299 -1.581558 0.072661
v -0.222654 -1.577698 0.189844
v -0.210129 -1.564498 0.159048
v -0.211575 -1.528226 0.151929
v -0.192128 -1.521535 0.143326
v -0.305906 -1.601963 0.147852
v -0.330332 -1.622977 0.083896
v -0.313288 -1.581080 0.088188
v -0.288589 -1.570884 0.141533
v -0.304356 -1.564379 0.072799
v -0.278669 -1.558346 0.126505
v -0.310738 -1.596119 -0.004837
v -0.294496 -1.434876 -0.082952
v -0.300729 -1.332292 -0.106166
v -0.261234 -1.448300 -0.151270
v -0.263322 -1.331988 -0.164346
v -0.250343 -1.219792 -0.168636
v -0.303281 -1.220874 -0.095206
v -0.187035 -1.435125 -0.199144
v -0.190402 -1.331653 -0.204036
v -0.176341 -1.223214 -0.203348
v -0.131758 -1.326006 -0.194162
v -0.124999 -1.232218 -0.196986
v -0.091896 -1.400514 -0.159867
v -0.091248 -1.323774 -0.158629
v -0.085813 -1.239199 -0.168321
v -0.043315 -1.317611 -0.024825
v -0.040697 -1.247130 -0.033983
v -0.049478 -1.386378 -0.019699
v -0.050678 -1.370363 0.049949
v -0.052523 -1.301348 0.048521
v -0.060738 -1.227819 0.033383
v -0.125019 -1.274029 0.123412
v -0.080070 -1.292725 0.079982
v -0.102727 -1.220008 0.107506
v -0.082717 -1.224893 0.075499
v -0.180944 -1.280524 0.133804
v -0.133621 -1.207913 0.119218
v -0.221773 -1.299507 0.117602
v -0.184585 -1.195650 0.093083
v -0.302881 -1.230185 -0.036457
v -0.282974 -1.279441 0.011804
v -0.270470 -1.226171 0.022838
v -0.293371 -1.421176 -0.028251
v -0.285106 -1.332735 -0.022708
v -0.122618 -1.464906 -0.203751
v -0.201372 -1.519042 -0.204393
v -0.179136 -1.476341 -0.188560
v -0.068952 -1.464145 -0.098464
v -0.122124 -1.515425 -0.194034
v -0.041693 -1.466004 -0.055666
v -0.056574 -1.450707 -0.011647
v -0.072000 -1.432262 0.039630
v -0.090623 -1.384447 0.075551
v -0.155090 -1.384023 0.110383
v -0.290182 -1.425100 0.019655
v -0.282807 -1.401059 0.014619
v -0.296300 -1.454471 -0.015782
v -0.314482 -1.488624 -0.004294
v -0.309178 -1.465261 -0.011198
v -0.312124 -1.504410 -0.081222
v -0.300689 -1.471181 -0.081971
v -0.141906 -0.377711 0.204739
v -0.052352 -0.390246 0.210780
v -0.206486 -0.370532 0.148348
v -0.242685 -0.365135 0.088286
v -0.257171 -0.361202 -0.006270
v -0.230052 -0.367122 -0.065112
v -0.186847 -0.373594 -0.128991
v -0.104455 -0.379941 -0.146160
v -0.039752 -0.387971 -0.137197
v -0.000178 -0.396186 -0.119573
v 0.084595 -0.414213 0.014333
v 0.078870 -0.320047 0.113634
v 0.074673 -0.417499 0.099271
v 0.021276 -0.411932 0.162582
v 0.009249 -0.800597 0.079430
v -0.002928 -0.795054 -0.008334
v 0.008846 -0.743702 0.074987
v 0.011456 -0.741961 0.002602
v -0.065568 -0.795666 -0.139184
v -0.062881 -0.741652 -0.127358
v -0.094808 -0.739139 -0.127400
v -0.103375 -0.792651 -0.137262
v -0.144590 -0.738289 -0.134541
v -0.144674 -0.794471 -0.143173
v -0.200848 -0.781552 -0.138001
v -0.198649 -0.731826 -0.135566
v -0.235551 -0.776505 -0.078658
v -0.232909 -0.731325 -0.070158
v -0.255931 -0.774249 -0.021585
v -0.255565 -0.726590 -0.010640
v -0.232504 -0.785185 0.034141
v -0.246122 -0.727357 0.045711
v -0.224608 -0.782094 0.107583
v -0.227810 -0.728649 0.120157
v -0.169656 -0.793038 0.175542
v -0.181695 -0.741000 0.182674
v -0.085760 -1.143392 0.112601
v -0.249792 -1.227874 0.046498
v -0.149770 -0.512682 0.195610
v -0.067064 -0.523192 0.207305
v -0.200499 -0.508431 0.143650
v -0.243575 -0.500428 0.077232
v -0.258944 -0.503379 -0.005314
v -0.242643 -0.505565 -0.079959
v -0.183284 -0.507348 -0.121956
v -0.118322 -0.514355 -0.140768
v -0.072900 -0.515722 -0.138245
v -0.026698 -0.516637 -0.114411
v 0.058485 -0.526817 0.006500
v 0.050979 -0.527714 0.098502
v 0.031196 -0.526167 0.154304
v -0.172358 -0.846708 0.167118
v -0.098875 -0.852119 0.168204
v -0.092458 -0.802023 0.170083
v -0.216771 -0.832611 0.097658
v -0.252964 -0.832092 0.033940
v -0.253812 -0.833238 -0.025484
v -0.239036 -0.827142 -0.076919
v -0.199399 -0.836078 -0.127279
v -0.150768 -0.834687 -0.158811
v -0.107552 -0.844322 -0.160801
v -0.069741 -0.844492 -0.130404
v -0.006837 -0.853007 -0.016681
v -0.002488 -0.849172 0.077062
v -0.018322 -0.799193 0.122814
v -0.026830 -0.853008 0.125195
v -0.083001 -0.738366 0.184067
v -0.013875 -0.740211 0.116515
v -0.165284 -0.925278 0.150470
v -0.095819 -0.933246 0.149264
v -0.221027 -0.918648 0.092597
v -0.261093 -0.917124 0.041516
v -0.271996 -0.912269 -0.028062
v -0.258924 -0.914764 -0.095003
v -0.221588 -0.915453 -0.156959
v -0.158486 -0.924107 -0.183622
v -0.108238 -0.930438 -0.179289
v -0.070849 -0.929286 -0.168319
v 0.007714 -0.941890 -0.027672
v -0.005798 -0.940763 0.078335
v -0.032989 -0.941626 0.123489
v -0.035297 -0.206541 0.216355
v -0.132445 -0.191937 0.212689
v -0.200873 -0.183974 0.167215
v 0.109005 -0.237706 0.029408
v 0.101861 -0.242989 0.098161
v 0.009830 0.010568 -0.229918
v -0.045286 0.019576 -0.218525
v 0.052576 -0.231414 0.210609
v -0.126163 0.018306 -0.180181
v 0.041340 -0.229681 -0.143327
v -0.268937 -0.183920 -0.006263
v -0.232044 -0.183049 -0.099961
v -0.242861 -0.184506 0.096035
v -0.009759 -0.214399 -0.174158
v -0.075627 -0.199684 -0.178001
v -0.167641 -0.187233 -0.149727
v -0.272243 -1.461373 0.098471
v -0.262186 -1.514834 0.092347
v -0.253912 -1.469391 0.112555
v -0.211848 -1.488516 0.141922
v -0.136867 -1.537334 0.130982
v -0.213753 -1.512918 0.144932
v -0.269259 -1.395635 0.062757
v -0.280098 -1.434780 0.074403
v -0.250736 -1.378580 0.086347
v -0.224165 -1.411851 0.133802
v -0.299660 -1.458577 0.029875
v -0.278928 -1.532265 0.124104
v -0.305740 -1.546224 0.074357
v -0.289811 -1.528296 0.043518
v -0.300854 -1.479179 0.036997
v -0.085416 -1.428609 0.079244
v -0.159433 -1.429915 0.121780
v -0.220741 -1.364349 0.125717
v -0.248801 -1.351174 0.091056
v -0.266430 -1.376357 0.057268
v -0.269675 -1.347772 0.058635
v -0.281311 -1.338741 0.010919
v -0.208443 -1.555680 0.149553
v -0.166657 -1.600463 -0.190309
v -0.129388 -1.412742 -0.194714
v -0.263041 -1.483447 -0.139731
v -0.268055 -1.295109 0.060652
v -0.066230 -1.155084 0.090956
v 0.080216 -0.276670 0.126757
v 0.094263 -0.243757 0.140106
v 0.104343 -0.222688 0.154471
v 0.109900 -0.207991 0.165002
v 0.116166 -0.190985 0.168260
v 0.127482 -0.183454 0.170163
v -0.267969 -1.667351 0.287171
v -0.224479 -1.661087 0.287995
v -0.271286 -1.651711 0.235399
v -0.229007 -1.644747 0.235579
v -0.271525 -1.612427 0.168905
v -0.228802 -1.611924 0.174846
v -0.266210 -1.573191 0.096225
v -0.224555 -1.559231 0.105038
v -0.328499 -1.779051 0.162179
v -0.124683 -1.779224 0.155034
v -0.332769 -1.779348 0.221908
v -0.114491 -1.779369 0.212427
v -0.265783 -1.681330 0.325981
v -0.277846 -1.687939 0.347536
v -0.223578 -1.673147 0.334264
v -0.253924 -1.686283 0.371521
v -0.169125 -1.682130 0.347781
v -0.191692 -1.683319 0.367187
v -0.153141 -1.697780 0.356353
v -0.164347 -1.695734 0.375024
v -0.146044 -1.719291 0.361045
v -0.302084 -1.716887 0.361699
v -0.284887 -1.699869 0.376638
v -0.296814 -1.703302 0.355479
v -0.263655 -1.694731 0.396920
v -0.271578 -1.713220 0.412618
v -0.223966 -1.690950 0.405667
v -0.220453 -1.711820 0.429793
v -0.224082 -1.682502 0.373293
v -0.184757 -1.691188 0.395113
v -0.128754 -1.690176 -0.006368
v -0.132124 -1.692724 0.085727
v -0.138352 -1.713598 -0.002418
v -0.140370 -1.714090 0.086906
v -0.119848 -1.687024 -0.100321
v -0.122672 -1.707101 -0.099336
v -0.150312 -1.682646 -0.163011
v -0.150767 -1.706221 -0.166133
v -0.214970 -1.679937 -0.178747
v -0.215007 -1.703884 -0.180256
v -0.271148 -1.681108 -0.148982
v -0.269872 -1.704414 -0.148232
v -0.297263 -1.683893 -0.095056
v -0.297287 -1.706635 -0.094994
v -0.308767 -1.688717 -0.012583
v -0.310881 -1.710382 -0.010333
v -0.312881 -1.712523 0.090385
v -0.310270 -1.692749 0.083921
v -0.302639 -1.640792 0.140628
v -0.278794 -1.580962 0.072638
v -0.294235 -1.687611 0.280829
v -0.299648 -1.674562 0.227756
v -0.286362 -1.687993 0.324639
v -0.186328 -1.610195 0.170515
v -0.180403 -1.561154 0.108905
v -0.181521 -1.677521 0.325044
v -0.142333 -1.778379 -0.009540
v -0.148581 -1.778789 0.085731
v -0.306511 -1.778829 0.087286
v -0.298054 -1.778416 -0.004616
v -0.131296 -1.777912 -0.099802
v -0.290394 -1.777975 -0.099888
v -0.152837 -1.777774 -0.165903
v -0.263205 -1.777727 -0.150760
v -0.139908 -1.774739 0.366337
v -0.174112 -1.767672 0.415577
v -0.302149 -1.775384 0.372651
v -0.268314 -1.770527 0.418156
v -0.139867 -1.644533 0.079874
v -0.122630 -1.701034 0.155369
v -0.138114 -1.631140 0.162536
v -0.124811 -1.703352 0.216334
v -0.144415 -1.668352 0.225454
v -0.130704 -1.704601 0.273991
v -0.153839 -1.679280 0.279625
v -0.138085 -1.701889 0.322000
v -0.157464 -1.682014 0.323412
v -0.303533 -1.701477 0.321304
v -0.308292 -1.701128 0.279015
v -0.320255 -1.716000 0.281449
v -0.315725 -1.718572 0.321053
v -0.317955 -1.779836 0.326652
v -0.329838 -1.779620 0.280131
v -0.118594 -1.779583 0.271234
v -0.126412 -1.779883 0.319979
v -0.123993 -1.720385 0.271667
v -0.130051 -1.721311 0.317651
v -0.185637 -1.668471 0.282946
v -0.224001 -1.766909 0.432231
v -0.325184 -1.713634 0.220475
v -0.311835 -1.697174 0.220609
v -0.324653 -1.713555 0.159004
v -0.317686 -1.694956 0.157419
v -0.119734 -1.716346 0.159981
v -0.119567 -1.718444 0.215262
v -0.185686 -1.647340 0.233402
v -0.298182 -1.643724 0.071703
v -0.281775 -1.586384 0.050396
v -0.147209 -1.576080 0.097579
v -0.141720 -1.589024 0.066746
v -0.131203 -1.644040 -0.010837
v -0.131606 -1.640407 -0.100128
v -0.140751 -1.602408 -0.009447
v -0.139969 -1.600085 -0.086294
v -0.151867 -1.635090 -0.159753
v -0.154055 -1.573963 -0.139792
v -0.215861 -1.635089 -0.174971
v -0.220368 -1.572784 -0.151707
v -0.266094 -1.639301 -0.144403
v -0.258646 -1.591962 -0.120274
v -0.287234 -1.644395 -0.091419
v -0.271634 -1.600188 -0.082270
v -0.294680 -1.646429 -0.012400
v -0.281469 -1.601264 -0.013192
v -0.217152 -1.777692 -0.176473
v -0.174299 -1.714597 0.411522
v 0.101885 -0.015018 0.272351
v 0.105765 -0.015163 0.273617
v -0.207409 0.019687 -0.114260
v -0.106586 -0.009639 0.234364
v -0.094591 -0.009925 0.236258
v -0.039002 -0.011281 0.245414
v -0.044282 0.026263 -0.217812
v -0.119818 0.024213 -0.182154
v -0.125369 0.024094 -0.179929
v 0.129600 0.025696 -0.234550
v 0.129794 -0.015378 0.272992
v 0.094177 0.026005 -0.233532
v -0.235872 0.001663 0.112365
v -0.241852 0.003700 0.088004
v 0.049209 0.026375 -0.231960
v 0.085724 0.026057 -0.233018
v 0.123552 0.025733 -0.234187
v -0.007604 -0.012020 0.250259
v -0.002798 -0.012169 0.251451
v 0.001605 -0.012259 0.251955
v 0.016579 0.026501 -0.229060
v -0.254292 0.010645 0.003885
v 0.010868 0.026504 -0.228316
v -0.040282 0.026292 -0.218710
v 0.108900 -0.015163 0.273192
v -0.203304 -0.003385 0.170285
v -0.246906 0.011852 -0.012050
v -0.191517 -0.004914 0.187574
v -0.121361 -0.008766 0.225588
v 0.066966 -0.013812 0.262219
v -0.190628 0.020584 -0.127633
v -0.209482 0.019544 -0.112209
v 0.099052 -0.071812 -0.230357
v 0.106993 -0.217739 0.135211
v 0.096075 0.003690 -0.234770
v 0.104685 -0.188747 -0.056622
v 0.105091 -0.151700 0.245787
v 0.103227 -0.100971 0.265157
v 0.104707 -0.189208 -0.055958
v 0.106662 -0.227688 0.017672
v 0.107277 -0.238984 0.046040
v 0.106946 -0.234794 0.018780
v 0.104657 -0.188134 -0.057322
v 0.103955 -0.174248 -0.083299
v 0.103261 -0.161867 -0.117588
v 0.107675 -0.252035 0.027764
v 0.103213 -0.100591 0.265211
v 0.095939 0.007133 -0.235015
v 0.107664 -0.249606 0.041424
v 0.106018 -0.181672 0.206049
v 0.105490 -0.164838 0.227120
v 0.107218 -0.240967 0.023787
v 0.107056 -0.215514 0.159612
v 0.106668 -0.203914 0.170271
v 0.100639 -0.034037 0.269583
v 0.106909 -0.218001 0.119816
v 0.102165 -0.139026 -0.150801
v 0.103153 -0.099036 0.265366
v 0.107023 -0.227814 0.075809
v 0.100253 -0.023911 0.271098
v 0.100989 -0.115412 -0.192153
v 0.099221 -0.075740 -0.227813
v 0.105300 -0.157572 0.242591
v 0.107068 -0.237489 0.021402
v 0.107163 -0.234644 0.055184
v 0.095211 0.025995 -0.233555
v 0.099907 -0.014950 0.271777
v 0.139549 -0.175243 -0.064014
v 0.139716 -0.157996 -0.116837
v 0.140269 -0.078744 -0.221340
v 0.140338 -0.067382 -0.229735
v 0.139814 -0.145113 -0.138977
v 0.139288 -0.130481 0.246622
v 0.139137 -0.184933 0.170589
v 0.139161 -0.169235 0.204894
v 0.139467 -0.181790 -0.032181
v 0.139412 -0.100524 0.261968
v 0.139548 -0.071779 0.265932
v 0.139207 -0.203638 0.066143
v 0.139191 -0.202459 0.079835
v 0.139768 -0.025295 0.272314
v 0.140721 0.008355 -0.235474
v 0.140603 -0.014950 -0.233386
v 0.139162 -0.191831 0.132207
v 0.139158 -0.186642 0.151801
v 0.139516 -0.178745 -0.054175
v 0.140045 -0.116577 -0.197017
v 0.139173 -0.159771 0.227816
v 0.139816 -0.015474 0.272812
v 0.140804 0.025559 -0.234389
vn -0.9585 0.0388 0.2824
vn -0.9056 0.0362 0.4225
vn -0.9220 -0.0003 0.3871
vn -0.6624 -0.1590 0.7321
vn -0.6531 -0.0135 0.7571
vn -0.5036 -0.0846 0.8598
vn -0.2922 -0.0358 0.9557
vn -0.3258 -0.1175 0.9381
vn -0.1471 -0.1022 0.9838
vn -0.1639 -0.1298 0.9779
vn -0.1690 -0.1250 0.9777
vn 0.9945 -0.0984 -0.0348
vn 0.9884 -0.1147 -0.0996
vn 0.9170 -0.3936 0.0642
vn 0.9107 -0.2991 -0.2851
vn 0.9759 -0.2162 -0.0292
vn 0.9216 -0.0261 -0.3873
vn 0.9880 -0.1273 -0.0876
vn 0.9022 -0.1349 -0.4097
vn 0.9698 -0.2329 -0.0726
vn 0.8735 -0.0841 -0.4795
vn 0.9654 0.0191 -0.2600
vn 0.9357 -0.0622 -0.3474
vn 0.9814 -0.0775 -0.1757
vn 0.9204 -0.0627 -0.3859
vn 0.9668 -0.1456 -0.2098
vn 0.8886 -0.1621 -0.4292
vn 0.9390 -0.2699 -0.2132
vn 0.8217 -0.1884 -0.5379
vn 0.9684 -0.1709 -0.1818
vn 0.7934 -0.0800 -0.6034
vn 0.9514 -0.0078 -0.3079
vn 0.8209 -0.0267 -0.5705
vn 0.9492 0.0760 -0.3053
vn 0.7980 0.1395 -0.5863
vn 0.9565 0.1393 -0.2564
vn 0.8137 0.1115 -0.5705
vn 0.9502 -0.0660 -0.3046
vn 0.8923 -0.1341 -0.4310
vn 0.9246 -0.2437 -0.2929
vn 0.7530 -0.0565 -0.6556
vn 0.8864 -0.1537 -0.4367
vn 0.5815 -0.1171 -0.8051
vn 0.8497 -0.2162 -0.4809
vn 0.6106 -0.1761 -0.7721
vn 0.8956 -0.1606 -0.4150
vn 0.7127 -0.1072 -0.6932
vn 0.8842 -0.1325 -0.4478
vn 0.7798 -0.1673 -0.6033
vn 0.8970 -0.1961 -0.3961
vn 0.7808 -0.2470 -0.5739
vn 0.9364 -0.1474 -0.3186
vn 0.8300 -0.2151 -0.5146
vn 0.9423 -0.1531 -0.2978
vn 0.8862 -0.2001 -0.4178
vn 0.8216 -0.3428 -0.4555
vn 0.9263 -0.2510 -0.2809
vn 0.6962 -0.5995 -0.3949
vn 0.8409 -0.4672 -0.2733
vn 0.8590 -0.4306 -0.2771
vn 0.8979 -0.3983 -0.1872
vn 0.5660 -0.6497 -0.5076
vn 0.4365 -0.8003 -0.4110
vn 0.3471 -0.8365 -0.4241
vn 0.3938 -0.9066 -0.1518
vn 0.2146 -0.8924 -0.3970
vn 0.1650 -0.9541 -0.2501
vn -0.0321 -0.9191 -0.3927
vn -0.1353 -0.9401 -0.3128
vn -0.2530 -0.9004 -0.3540
vn -0.1485 -0.0188 0.9887
vn 0.4829 -0.2075 0.8507
vn -0.1661 -0.1787 0.9698
vn 0.9140 -0.2124 0.3456
vn 0.9589 -0.2394 0.1524
vn 0.9113 -0.2419 0.3332
vn 0.9515 -0.2003 0.2335
vn 0.6651 -0.0999 -0.7401
vn 0.6146 -0.0495 -0.7873
vn -0.1675 -0.0215 -0.9856
vn -0.0958 0.0253 -0.9951
vn 0.2751 -0.0475 -0.9602
vn 0.3270 -0.0145 -0.9449
vn -0.5773 0.0237 -0.8162
vn -0.5238 0.0498 -0.8504
vn -0.9247 0.0490 -0.3775
vn -0.8657 0.1129 -0.4876
vn -0.9409 0.0079 0.3387
vn -0.9791 0.1153 0.1678
vn -0.7436 -0.0149 0.6684
vn -0.8031 -0.0218 0.5954
vn -0.6789 -0.0036 0.7343
vn -0.6999 -0.1220 0.7037
vn -0.4986 -0.0740 0.8637
vn -0.5446 -0.1736 0.8205
vn -0.4251 -0.2043 0.8818
vn 0.0195 -0.1577 0.9873
vn -0.7359 -0.1001 0.6696
vn -0.8785 -0.0325 0.4766
vn -0.9782 0.1293 0.1627
vn -0.9159 0.2204 -0.3356
vn -0.5730 0.1870 -0.7979
vn -0.1619 0.1918 -0.9680
vn 0.2328 0.1400 -0.9624
vn 0.5789 0.0191 -0.8152
vn 0.9850 -0.1293 0.1139
vn 0.9097 -0.2190 0.3529
vn 0.6500 -0.1846 0.7372
vn -0.5183 0.0664 0.8526
vn 0.2063 -0.1052 0.9728
vn -0.4058 0.0103 0.9139
vn 0.1985 -0.0496 0.9789
vn -0.8516 0.0956 0.5154
vn -0.8310 -0.0010 0.5563
vn -0.9786 0.0132 0.2052
vn -0.9548 -0.1199 0.2720
vn -0.9994 -0.0077 -0.0344
vn -0.9958 -0.0499 -0.0769
vn -0.9406 0.0427 -0.3369
vn -0.9160 -0.0437 -0.3989
vn -0.5766 0.0802 -0.8131
vn -0.4803 0.0505 -0.8756
vn 0.0308 0.0248 -0.9992
vn 0.0359 0.0358 -0.9987
vn 0.3621 -0.0060 -0.9321
vn 0.2472 -0.1118 -0.9625
vn 0.4098 0.0147 -0.9121
vn 0.3658 -0.1268 -0.9220
vn 0.9629 -0.2269 -0.1460
vn 0.9706 -0.2121 -0.1138
vn 0.9462 -0.2037 0.2514
vn 0.9462 -0.2051 0.2505
vn 0.7148 -0.1352 0.6862
vn 0.7456 -0.2645 0.6116
vn 0.0405 -0.1551 0.9871
vn 0.1963 -0.0897 0.9764
vn 0.5145 -0.4306 0.7415
vn 0.6363 -0.2233 0.7384
vn -0.3008 -0.0056 0.9537
vn -0.4152 -0.0660 0.9073
vn -0.7415 -0.0275 0.6704
vn -0.7610 -0.0659 0.6454
vn -0.9184 -0.0648 0.3904
vn -0.9273 -0.0289 0.3733
vn -0.9909 -0.0600 -0.1205
vn -0.9906 -0.1065 -0.0863
vn -0.8384 -0.0830 -0.5387
vn -0.7789 -0.0614 -0.6241
vn -0.4474 -0.0356 -0.8936
vn -0.4459 -0.0801 -0.8915
vn -0.0534 -0.1385 -0.9889
vn -0.1289 -0.2146 -0.9682
vn 0.2570 -0.2072 -0.9439
vn 0.2130 -0.2682 -0.9395
vn 0.5547 -0.2579 -0.7911
vn 0.5519 -0.2351 -0.8001
vn 0.9791 -0.1963 -0.0531
vn 0.9828 -0.1332 -0.1278
vn 0.9607 -0.1871 0.2051
vn 0.9320 -0.3599 -0.0438
vn 0.9433 -0.3297 0.0385
vn 0.9789 -0.2028 -0.0267
vn 0.9608 -0.2757 0.0296
vn 0.9404 -0.3357 0.0534
vn 0.9577 -0.2845 0.0428
vn 0.9733 -0.1690 -0.1554
vn 0.2788 -0.6225 -0.7313
vn 0.5952 -0.3567 -0.7201
vn 0.0643 -0.4189 -0.9058
vn 0.1669 -0.3443 -0.9239
vn -0.2597 -0.2548 -0.9315
vn -0.2167 -0.2266 -0.9496
vn -0.4910 -0.0804 -0.8675
vn -0.5058 -0.1015 -0.8567
vn -0.8128 0.0376 -0.5813
vn -0.8170 0.0529 -0.5743
vn -0.9840 0.0734 -0.1627
vn -0.9962 0.0100 -0.0870
vn -0.9218 0.0451 0.3850
vn -0.9239 -0.0506 0.3792
vn -0.6558 0.0210 0.7546
vn -0.7073 -0.0760 0.7028
vn -0.3163 -0.0390 0.9479
vn -0.3130 -0.1200 0.9421
vn -0.1106 -0.1293 0.9854
vn -0.1048 -0.2503 0.9625
vn 0.1110 -0.4340 0.8940
vn 0.3324 -0.4027 0.8528
vn -0.9858 0.1568 -0.0604
vn -0.9829 0.1839 0.0024
vn 0.0562 -0.5677 -0.8213
vn 0.0555 -0.3180 -0.9465
vn -0.0078 -0.3809 -0.9246
vn -0.7228 -0.6866 -0.0783
vn -0.0517 -0.9967 -0.0623
vn -0.1888 -0.9717 -0.1418
vn -0.1914 -0.9605 -0.2023
vn 0.0169 -0.3574 -0.9338
vn 0.0887 -0.7548 -0.6499
vn 0.0185 -0.3548 -0.9348
vn 0.1058 -0.8201 -0.5624
vn 0.7383 -0.6745 -0.0050
vn 0.7364 -0.6723 0.0753
vn 0.1234 -0.5662 0.8150
vn -0.2210 -0.1567 0.9626
vn -0.1181 -0.2032 0.9720
vn -0.3095 -0.0946 0.9462
vn -0.1623 -0.0850 0.9831
vn -0.0957 -0.1197 0.9882
vn -0.8399 -0.4668 0.2768
vn -0.5500 -0.8263 0.1209
vn -0.1756 -0.9588 0.2234
vn -0.5075 -0.3089 0.8044
vn 0.0932 -0.3403 0.9357
vn 0.5299 -0.6621 0.5299
vn 0.2895 -0.8865 0.3610
vn 0.7842 -0.5877 0.1989
vn 0.7646 -0.6398 0.0780
vn 0.7298 -0.6833 -0.0196
vn 0.4892 -0.7152 -0.4991
vn 0.1704 -0.8951 -0.4120
vn -0.1155 -0.5263 -0.8424
vn -0.3714 -0.8843 -0.2830
vn -0.8572 -0.4989 -0.1278
vn 0.9354 -0.2105 0.2841
vn -0.8561 0.1063 -0.5057
vn -0.5968 0.0369 -0.8016
vn -0.3456 -0.0461 -0.9373
vn -0.1654 -0.1304 -0.9776
vn -0.0953 -0.8085 -0.5808
vn -0.0522 -0.6056 -0.7941
vn 0.0224 -0.7126 -0.7012
vn 0.0338 -0.3142 -0.9487
vn 0.3536 -0.6465 0.6760
vn 0.1674 -0.3974 0.9023
vn 0.0503 -0.2465 0.9678
vn 0.0714 -0.2428 0.9674
vn -0.7935 0.0661 -0.6049
vn -0.9708 0.1084 -0.2140
vn -0.2140 0.0393 -0.9760
vn 0.4423 0.0626 -0.8947
vn 0.8717 0.0959 -0.4805
vn -0.9867 0.1186 -0.1109
vn -0.9758 -0.1091 -0.1894
vn -0.9309 0.0153 -0.3649
vn -0.7974 0.2425 -0.5526
vn -0.6850 0.0460 -0.7271
vn -0.7711 0.0868 -0.6308
vn -0.9853 -0.0140 -0.1705
vn -0.2185 0.3113 -0.9249
vn 0.1322 -0.0600 -0.9894
vn 0.5760 0.1649 -0.8006
vn 0.6603 -0.2069 -0.7220
vn 0.7319 0.1033 -0.6736
vn 0.7536 -0.2858 -0.5919
vn 0.9819 -0.1802 -0.0589
vn 0.9928 -0.0861 0.0830
vn 0.9111 -0.4039 0.0816
vn 0.8374 -0.4347 0.3313
vn 0.9062 -0.2214 0.3602
vn 0.9772 0.0620 0.2029
vn 0.7156 -0.0294 0.6979
vn 0.3734 0.1584 0.9140
vn 0.7366 -0.0126 0.6762
vn -0.9895 -0.1302 0.0633
vn -0.9898 0.1388 0.0321
vn -0.9753 0.1151 0.1882
vn -0.9616 0.0947 -0.2577
vn -0.6742 0.1919 -0.7132
vn 0.1541 0.2636 -0.9522
vn 0.5724 0.3133 -0.7578
vn 0.8124 0.1076 -0.5731
vn 0.7356 -0.0152 -0.6773
vn 0.9518 -0.2714 0.1430
vn 0.9929 0.1028 0.0606
vn 0.9684 0.1689 0.1834
vn 0.9360 -0.1985 0.2906
vn 0.9670 0.1338 0.2169
vn 0.9494 0.1224 0.2893
vn 0.7526 0.4130 0.5128
vn 0.5611 0.6183 0.5504
vn 0.4912 0.0574 0.8692
vn 0.7717 -0.3529 0.5291
vn -0.0654 0.7602 0.6463
vn -0.0673 0.7688 0.6360
vn -0.0702 0.1763 0.9818
vn 0.2433 0.2794 0.9288
vn -0.7431 0.4328 0.5103
vn -0.9655 0.2376 0.1063
vn -0.9427 0.3142 0.1121
vn -0.6511 0.6133 0.4472
vn -0.9113 0.3045 0.2771
vn -0.5195 0.4499 0.7264
vn -0.9962 0.0502 -0.0719
vn -0.9919 0.0555 -0.1145
vn -0.9525 -0.0296 -0.3032
vn -0.7371 -0.1305 -0.6631
vn -0.6159 -0.0136 -0.7877
vn -0.6865 0.0202 -0.7269
vn -0.9837 -0.0280 -0.1778
vn -0.1914 -0.1266 -0.9733
vn -0.1040 -0.0173 -0.9944
vn -0.2586 0.0260 -0.9656
vn 0.4011 -0.0426 -0.9150
vn 0.3096 -0.0393 -0.9500
vn 0.8230 0.0045 -0.5680
vn 0.8067 -0.0494 -0.5889
vn 0.7392 -0.1017 -0.6657
vn 0.9975 -0.0186 0.0685
vn 0.9864 -0.1076 0.1239
vn 0.9992 -0.0326 0.0219
vn 0.8634 -0.1510 0.4813
vn 0.9356 0.0652 0.3470
vn 0.9452 0.0213 0.3259
vn 0.4062 -0.0832 0.9100
vn 0.7208 -0.0182 0.6929
vn 0.6449 -0.0339 0.7636
vn 0.8712 -0.0609 0.4872
vn -0.1490 0.1314 0.9801
vn 0.0440 0.1222 0.9915
vn -0.6177 0.2618 0.7416
vn -0.5314 0.1852 0.8266
vn -0.9527 -0.0207 0.3031
vn -0.9308 0.0490 0.3622
vn -0.8142 0.1704 0.5550
vn -0.9904 0.1026 0.0928
vn -0.9938 -0.0272 0.1077
vn 0.4016 0.0891 -0.9115
vn -0.3237 0.0643 -0.9440
vn -0.3807 0.1003 -0.9192
vn 0.8945 -0.0480 -0.4445
vn 0.6022 -0.3627 -0.7112
vn 0.9899 -0.0813 -0.1162
vn 0.9314 -0.2288 0.2832
vn 0.9203 -0.1080 0.3760
vn 0.6269 -0.0499 0.7775
vn 0.3304 0.0278 0.9434
vn -0.9290 0.3639 0.0675
vn -0.9766 0.1131 0.1830
vn -0.9292 0.3621 -0.0743
vn -0.9865 0.0269 0.1615
vn -0.8992 0.4315 -0.0724
vn -0.9377 0.1710 -0.3025
vn -0.9090 0.2656 -0.3213
vn -0.4080 -0.0223 0.9127
vn 0.2291 -0.0305 0.9729
vn -0.7593 -0.0244 0.6503
vn -0.9363 -0.0048 0.3511
vn -0.9957 0.0012 -0.0922
vn -0.8443 -0.0207 -0.5354
vn -0.5406 -0.0668 -0.8386
vn -0.0466 -0.0682 -0.9966
vn 0.2453 -0.1380 -0.9596
vn 0.5192 -0.1409 -0.8429
vn 0.9689 -0.1727 -0.1773
vn 0.8813 -0.2067 0.4250
vn 0.9201 -0.1618 0.3568
vn 0.6841 -0.0834 0.7246
vn 0.9725 -0.0832 0.2174
vn 0.9770 -0.1044 -0.1858
vn 0.9520 -0.2004 0.2313
vn 0.9613 -0.2241 -0.1603
vn 0.4607 0.0604 -0.8855
vn 0.3125 0.1853 -0.9317
vn 0.1621 0.0973 -0.9820
vn 0.0688 0.2657 -0.9616
vn 0.0214 0.0714 -0.9972
vn 0.0452 0.2879 -0.9566
vn -0.4331 0.0622 -0.8992
vn -0.6651 0.0775 -0.7428
vn -0.8843 0.0479 -0.4644
vn -0.9285 0.0775 -0.3631
vn -0.9948 0.0192 -0.0999
vn -0.9988 0.0319 0.0370
vn -0.9806 0.0273 0.1941
vn -0.9844 -0.0353 0.1725
vn -0.9085 -0.1299 0.3971
vn -0.8619 -0.0512 0.5045
vn -0.4347 -0.1623 0.8858
vn -0.4127 -0.1316 0.9013
vn 0.3634 -0.1921 0.9116
vn -0.6916 0.2634 0.6725
vn -0.4896 -0.0747 0.8688
vn 0.1205 -0.0801 0.9895
vn -0.7924 -0.0189 0.6097
vn -0.9369 -0.0781 0.3407
vn -0.9940 -0.1060 -0.0254
vn -0.8428 -0.0293 -0.5374
vn -0.4632 0.0264 -0.8859
vn -0.0836 -0.0818 -0.9931
vn 0.2586 -0.1233 -0.9581
vn 0.4080 -0.1339 -0.9031
vn 0.9762 -0.1863 -0.1115
vn 0.9545 -0.1404 0.2631
vn 0.7347 -0.1263 0.6665
vn -0.5482 -0.1338 0.8256
vn 0.2475 -0.1338 0.9596
vn 0.3264 -0.1203 0.9375
vn -0.8349 -0.0613 0.5469
vn -0.9600 0.1800 0.2145
vn -0.9822 0.1797 -0.0552
vn -0.8787 0.1778 -0.4430
vn -0.6516 0.1463 -0.7443
vn -0.1609 0.2260 -0.9607
vn 0.2446 0.2420 -0.9389
vn 0.5539 0.1294 -0.8224
vn 0.9903 0.0257 -0.1366
vn 0.9640 -0.0817 0.2529
vn 0.7131 -0.0766 0.6969
vn 0.7596 -0.0646 0.6472
vn 0.3587 -0.2596 0.8966
vn 0.7302 -0.1718 0.6613
vn -0.3944 -0.2330 0.8889
vn 0.1104 -0.2140 0.9706
vn -0.7749 -0.0651 0.6287
vn -0.8887 0.0180 0.4581
vn -0.9896 0.1363 0.0469
vn -0.9266 0.2449 -0.2854
vn -0.6452 0.3264 -0.6908
vn -0.2262 0.2815 -0.9325
vn 0.2038 0.2625 -0.9432
vn 0.4669 0.2290 -0.8541
vn 0.9948 0.0621 -0.0808
vn 0.9349 -0.1103 0.3375
vn 0.6758 -0.1387 0.7239
vn -0.0549 -0.2144 0.9752
vn -0.3017 -0.1097 0.9471
vn -0.7500 -0.0826 0.6563
vn 0.9575 -0.1485 -0.2473
vn 0.9904 -0.0900 -0.1046
vn 0.9576 -0.0996 -0.2705
vn 0.9872 -0.0891 -0.1319
vn 0.0270 -0.9859 0.1648
vn 0.9929 -0.0605 0.1020
vn 0.9879 -0.1517 0.0337
vn 0.9571 -0.2480 0.1500
vn -0.1744 0.1066 -0.9789
vn -0.2670 0.1255 -0.9555
vn -0.3200 0.1236 -0.9393
vn 0.2684 -0.4155 0.8691
vn -0.4158 0.1221 -0.9012
vn -0.4911 0.1536 -0.8575
vn -0.4879 0.0862 -0.8686
vn 0.6167 -0.2997 -0.7279
vn 0.9700 -0.0500 -0.2381
vn -0.9968 0.0409 -0.0682
vn -0.7840 -0.0218 -0.6204
vn -0.9322 -0.0375 0.3600
vn 0.9952 -0.0743 0.0637
vn 0.1067 -0.3397 -0.9345
vn -0.1868 -0.2123 -0.9592
vn -0.1623 -0.1091 0.9807
vn -0.1732 -0.0696 0.9824
vn -0.1765 -0.1461 0.9734
vn -0.4285 -0.1357 -0.8933
vn -0.8150 0.0483 0.5774
vn -0.7744 0.3808 0.5053
vn -0.4928 0.1857 0.8501
vn 0.1032 0.4366 0.8937
vn 0.5502 0.2432 0.7988
vn -0.3171 0.3413 0.8848
vn -0.8959 0.2990 0.3286
vn -0.7920 0.3048 0.5290
vn -0.8315 0.1627 0.5312
vn -0.2948 0.0688 0.9531
vn -0.9363 0.2345 0.2615
vn -0.6861 0.3953 0.6107
vn -0.9143 0.3430 0.2154
vn -0.9204 0.1844 0.3447
vn -0.9305 0.0079 0.3662
vn 0.7543 -0.0101 0.6565
vn 0.3738 0.0069 0.9275
vn -0.3540 0.0118 0.9352
vn -0.8176 -0.0065 0.5758
vn -0.9101 0.0922 0.4040
vn -0.9161 -0.0363 0.3994
vn -0.9749 -0.0222 0.2216
vn 0.0157 0.3050 0.9522
vn 0.5129 0.1462 -0.8459
vn 0.3487 0.0290 -0.9368
vn -0.7134 0.1121 -0.6917
vn -0.8668 0.1282 0.4819
vn 0.7817 -0.2593 0.5671
vn 0.8315 -0.3278 0.4485
vn 0.7678 -0.4965 0.4049
vn 0.8008 -0.4695 0.3718
vn 0.9502 -0.3070 0.0531
vn 0.7301 -0.6026 0.3222
vn 0.7554 -0.5081 0.4137
vn 0.7184 -0.6664 0.1994
vn 0.2376 -0.9439 0.2292
vn -0.2506 -0.9634 0.0948
vn -0.4303 -0.8773 0.2124
vn 0.1708 -0.7601 0.6269
vn 0.4469 -0.6875 0.5724
vn 0.5203 -0.7557 0.3978
vn -0.0129 -0.8456 0.5336
vn -0.0395 -0.9255 0.3766
vn -0.1699 -0.9505 0.2603
vn -0.0708 0.0358 -0.9968
vn -0.1573 0.0581 -0.9858
vn -0.0987 0.0817 -0.9918
vn -0.1489 0.0989 -0.9839
vn -0.2271 -0.1245 0.9659
vn -0.2906 -0.1014 0.9514
vn -0.3579 -0.1121 0.9270
vn -0.2206 -0.1141 0.9687
vn 0.0344 -0.1099 0.9933
vn 0.0049 -0.0976 0.9952
vn -0.0225 -0.1368 0.9903
vn -0.0179 -0.3328 0.9428
vn 0.0357 -0.0732 -0.9967
vn -0.0065 0.0003 -1.0000
vn 0.0050 -0.0168 -0.9998
vn 0.0022 -0.0762 -0.9971
vn -0.0210 0.0088 -0.9997
vn -0.0188 0.0027 -0.9998
vn -0.6424 -0.0166 -0.7662
vn -0.7861 -0.0269 -0.6175
vn -0.9135 0.0961 -0.3953
vn -0.3988 0.8632 0.3096
vn -0.0022 0.9563 0.2923
vn -0.4255 0.8321 0.3559
vn -0.0387 0.9201 0.3896
vn -0.5166 0.7469 0.4188
vn -0.0328 0.8478 0.5292
vn -0.6038 0.7191 0.3440
vn -0.1144 0.8142 0.5692
vn -0.8210 -0.5515 -0.1476
vn 0.5829 -0.8058 -0.1044
vn -0.7395 -0.6731 -0.0102
vn 0.7345 -0.6786 -0.0084
vn -0.3135 0.9260 0.2105
vn -0.3775 0.9063 0.1899
vn -0.0437 0.9780 0.2038
vn -0.2449 0.9442 0.2205
vn 0.3819 0.8874 0.2583
vn 0.2192 0.9410 0.2577
vn 0.7150 0.6056 0.3493
vn 0.6398 0.6829 0.3527
vn 0.8912 0.2456 0.3814
vn -0.8476 0.3064 0.4332
vn -0.6112 0.6960 0.3768
vn -0.7045 0.6708 0.2315
vn -0.4225 0.7828 0.4568
vn -0.4928 0.4021 0.7716
vn 0.0048 0.8527 0.5224
vn 0.0936 0.3672 0.9254
vn -0.0560 0.9673 0.2473
vn 0.3372 0.8308 0.4429
vn 0.9853 -0.1529 0.0760
vn 0.9919 -0.1259 -0.0190
vn 0.9706 -0.2279 0.0779
vn 0.9820 -0.1585 -0.1030
vn 0.9821 0.0504 -0.1814
vn 0.9800 -0.1557 -0.1237
vn 0.6400 0.1076 -0.7608
vn 0.6262 -0.0141 -0.7795
vn -0.1308 0.0514 -0.9901
vn -0.1483 0.0246 -0.9886
vn -0.7249 0.0449 -0.6874
vn -0.7179 -0.0341 -0.6953
vn -0.9538 0.1275 -0.2720
vn -0.9522 -0.0683 -0.2976
vn -0.9779 0.1999 -0.0608
vn -0.9938 -0.0510 -0.0984
vn -0.9933 0.0293 -0.1121
vn -0.9725 0.2229 -0.0681
vn -0.9012 0.4206 0.1047
vn -0.8362 0.5198 0.1750
vn -0.6595 0.7279 0.1877
vn -0.8220 0.5328 0.2012
vn -0.5318 0.8371 0.1285
vn 0.2248 0.7982 0.5588
vn 0.2989 0.7460 0.5951
vn 0.2009 0.9680 0.1505
vn 0.5722 -0.8193 0.0363
vn 0.7750 -0.6147 -0.1464
vn -0.5555 -0.8278 -0.0782
vn -0.7612 -0.6424 -0.0892
vn 0.7841 -0.6205 -0.0119
vn -0.5374 -0.8193 -0.2000
vn 0.4931 -0.7662 -0.4121
vn -0.5221 -0.5883 -0.6175
vn 0.7595 -0.4740 0.4455
vn 0.3692 -0.6590 0.6553
vn -0.5426 -0.7679 0.3406
vn -0.5481 -0.5185 0.6563
vn 0.9913 0.1299 0.0207
vn 0.9885 0.1443 -0.0458
vn 0.7983 0.5072 0.3248
vn 0.9083 0.4085 0.0903
vn 0.6773 0.6670 0.3105
vn 0.8600 0.4999 0.1023
vn 0.5688 0.8064 0.1620
vn 0.7955 0.5645 0.2205
vn 0.5328 0.8341 0.1429
vn -0.7594 0.6313 0.1576
vn -0.7297 0.6760 0.1024
vn -0.9125 0.3877 0.1309
vn -0.9164 0.3391 0.2125
vn -0.8348 -0.5036 0.2226
vn -0.6305 -0.7723 0.0778
vn 0.8564 -0.5063 0.1011
vn 0.6011 -0.7738 0.2000
vn 0.9738 0.2041 0.1004
vn 0.9464 0.2323 0.2243
vn 0.3176 0.9099 0.2670
vn -0.0886 -0.2666 0.9597
vn -0.9387 0.3409 0.0517
vn -0.8054 0.5825 0.1096
vn -0.9823 0.1665 -0.0854
vn -0.9197 0.3916 0.0272
vn 0.9879 0.0655 -0.1403
vn 0.9817 0.1898 0.0168
vn 0.2279 0.8798 0.4171
vn -0.9673 0.2463 -0.0612
vn -0.9531 0.3003 -0.0369
vn 0.9158 0.3268 0.2332
vn 0.9906 0.1165 0.0722
vn 0.9879 0.1486 0.0441
vn 0.9633 0.2091 -0.1681
vn 0.9766 0.2152 -0.0021
vn 0.9670 0.1980 -0.1603
vn 0.6816 0.1765 -0.7101
vn 0.5290 0.2976 -0.7947
vn -0.1595 0.2226 -0.9618
vn -0.3779 0.3758 -0.8461
vn -0.7691 0.2703 -0.5792
vn -0.8443 0.3678 -0.3898
vn -0.9300 0.3105 -0.1967
vn -0.9323 0.3304 -0.1470
vn -0.9536 0.2940 -0.0650
vn -0.9595 0.2697 -0.0813
vn -0.0372 -0.3596 -0.9324
vn 0.6251 0.4118 0.6631
vn -0.8319 -0.1280 0.5399
vn -0.1504 -0.1175 0.9816
vn -0.0337 0.0816 -0.9961
vn -0.0500 0.0765 -0.9958
vn -0.0408 0.0758 -0.9963
vn -0.0358 0.0687 -0.9970
vn 0.0609 -0.0813 0.9948
vn -0.0187 0.0526 -0.9984
vn -0.5762 0.1377 -0.8056
vn -0.2983 -0.0895 0.9503
vn -0.2217 -0.1048 0.9695
vn 0.0092 0.0542 -0.9985
vn 0.0053 -0.0629 0.9980
vn 0.0252 -0.0551 0.9982
vn -0.7182 -0.6954 0.0251
vn -0.0061 -0.0968 0.9953
vn -0.2421 -0.7317 0.6372
vn -0.2939 -0.5378 0.7902
vn -0.1077 -0.9006 -0.4210
vn -0.0332 -0.7915 -0.6103
vn -0.0212 0.0761 -0.9969
vt 0.275428 0.865188
vt 0.285889 0.847656
vt 0.286069 0.864863
vt 0.325466 0.864778
vt 0.324219 0.849365
vt 0.360839 0.865300
vt 0.368164 0.846924
vt 0.369190 0.865490
vt 0.421631 0.838745
vt 0.404770 0.865845
vt 0.375267 0.865611
vt 0.035736 0.258301
vt 0.050934 0.255859
vt 0.036072 0.269531
vt 0.048798 0.269043
vt 0.037292 0.278809
vt 0.055237 0.277832
vt 0.033752 0.290039
vt 0.052216 0.288086
vt 0.034698 0.306152
vt 0.060547 0.303223
vt 0.030304 0.337891
vt 0.056061 0.337402
vt 0.031219 0.357422
vt 0.055847 0.361328
vt 0.031021 0.385742
vt 0.056915 0.387695
vt 0.031403 0.405273
vt 0.059967 0.410156
vt 0.035248 0.431641
vt 0.065674 0.438965
vt 0.035461 0.460449
vt 0.062927 0.463379
vt 0.033691 0.487793
vt 0.061768 0.487793
vt 0.036255 0.511963
vt 0.061859 0.515625
vt 0.040771 0.535156
vt 0.063599 0.536133
vt 0.045715 0.549805
vt 0.067200 0.554443
vt 0.052185 0.584961
vt 0.071716 0.589111
vt 0.050873 0.608887
vt 0.070129 0.612793
vt 0.046570 0.641113
vt 0.068970 0.645996
vt 0.041931 0.696045
vt 0.060364 0.700684
vt 0.037872 0.735352
vt 0.053833 0.739502
vt 0.035583 0.751221
vt 0.050873 0.754761
vt 0.030365 0.772095
vt 0.043793 0.775269
vt 0.041077 0.786377
vt 0.027802 0.780640
vt 0.023602 0.792536
vt 0.023376 0.792358
vt 0.023577 0.792290
vt 0.023487 0.792064
vt 0.035461 0.801880
vt 0.026787 0.799384
vt 0.029089 0.805290
vt 0.020187 0.797485
vt 0.026566 0.806641
vt 0.017548 0.801392
vt 0.019989 0.810791
vt 0.978572 0.798168
vt 0.981445 0.810791
vt 0.976718 0.808010
vt 0.373779 0.432129
vt 0.401123 0.458008
vt 0.369629 0.463379
vt 0.437988 0.425293
vt 0.475830 0.417969
vt 0.426514 0.455566
vt 0.475830 0.445801
vt 0.013824 0.434570
vt 0.013824 0.408691
vt 0.092590 0.415039
vt 0.097351 0.444336
vt 0.140625 0.418945
vt 0.139648 0.447754
vt 0.115540 0.416992
vt 0.118591 0.445313
vt 0.176392 0.420898
vt 0.171753 0.448730
vt 0.208130 0.422363
vt 0.204224 0.452148
vt 0.253418 0.420898
vt 0.251465 0.453125
vt 0.283203 0.423340
vt 0.279541 0.458496
vt 0.304688 0.429199
vt 0.306396 0.461914
vt 0.327881 0.432617
vt 0.327148 0.464844
vt 0.329346 0.488770
vt 0.368896 0.486328
vt 0.303955 0.485840
vt 0.275146 0.482910
vt 0.244995 0.478516
vt 0.203247 0.473145
vt 0.169434 0.471680
vt 0.138550 0.468750
vt 0.115540 0.467285
vt 0.095764 0.466309
vt 0.013824 0.462402
vt 0.429688 0.476563
vt 0.475830 0.471191
vt 0.403320 0.478516
vt 0.330078 0.607910
vt 0.368896 0.606689
vt 0.329834 0.631836
vt 0.368164 0.628174
vt 0.300537 0.609863
vt 0.300537 0.633301
vt 0.259277 0.613037
vt 0.260254 0.633301
vt 0.226074 0.608887
vt 0.227173 0.632568
vt 0.201416 0.603027
vt 0.197754 0.626709
vt 0.171265 0.597900
vt 0.162354 0.625488
vt 0.137207 0.597900
vt 0.139893 0.624023
vt 0.112549 0.594971
vt 0.112122 0.619385
vt 0.093262 0.593262
vt 0.093567 0.616211
vt 0.013824 0.577148
vt 0.013824 0.600342
vt 0.437012 0.594482
vt 0.475830 0.580566
vt 0.439453 0.616211
vt 0.475830 0.605713
vt 0.412354 0.621826
vt 0.409424 0.601807
vt 0.395508 0.763184
vt 0.390869 0.747070
vt 0.436279 0.755493
vt 0.431396 0.740234
vt 0.346924 0.751465
vt 0.350342 0.768066
vt 0.311279 0.754883
vt 0.313477 0.771240
vt 0.277832 0.772461
vt 0.276855 0.757568
vt 0.232788 0.772095
vt 0.231934 0.758057
vt 0.194214 0.756348
vt 0.193481 0.771484
vt 0.161011 0.755981
vt 0.159058 0.770142
vt 0.125000 0.750854
vt 0.121277 0.766357
vt 0.096680 0.748047
vt 0.093140 0.764160
vt 0.071045 0.759399
vt 0.074707 0.743896
vt 0.013824 0.728027
vt 0.013824 0.745850
vt 0.484863 0.742676
vt 0.474121 0.742432
vt 0.478516 0.728027
vt 0.493164 0.758179
vt 0.488037 0.763062
vt 0.489990 0.754639
vt 0.487086 0.756685
vt 0.486305 0.760712
vt 0.484619 0.758423
vt 0.015003 0.776599
vt 0.011948 0.775635
vt 0.009132 0.786377
vt 0.055786 0.817383
vt 0.061584 0.794434
vt 0.070923 0.824341
vt 0.083923 0.800171
vt 0.099060 0.830811
vt 0.112305 0.799683
vt 0.158813 0.797729
vt 0.151978 0.829468
vt 0.190918 0.829224
vt 0.191162 0.798584
vt 0.238525 0.830688
vt 0.234741 0.806641
vt 0.284180 0.832031
vt 0.281250 0.807739
vt 0.322754 0.835083
vt 0.319092 0.809814
vt 0.366699 0.832031
vt 0.359375 0.806641
vt 0.419678 0.822876
vt 0.408691 0.798950
vt 0.458984 0.811279
vt 0.448730 0.790649
vt 0.240475 0.864117
vt 0.239136 0.845581
vt 0.977872 0.830611
vt 0.981934 0.833740
vt 0.977727 0.833710
vt 0.992188 0.793606
vt 0.992188 0.797729
vt 0.980587 0.796129
vt 0.980957 0.800049
vt 0.978508 0.796477
vt 0.057251 0.833496
vt 0.035492 0.820435
vt 0.035187 0.833984
vt 0.030710 0.813045
vt 0.009132 0.792603
vt 0.495361 0.759277
vt 0.493408 0.764893
vt 0.484863 0.809082
vt 0.460938 0.832886
vt 0.482910 0.832764
vt 0.482277 0.866305
vt 0.484619 0.862183
vt 0.484559 0.866276
vt 0.493652 0.652100
vt 0.493652 0.658447
vt 0.502930 0.656982
vt 0.496582 0.647461
vt 0.502441 0.645508
vt 0.507324 0.646729
vt 0.510742 0.650635
vt 0.512207 0.656006
vt 0.512695 0.660645
vt 0.512207 0.663086
vt 0.511230 0.665527
vt 0.509277 0.666992
vt 0.505859 0.668701
vt 0.499512 0.667236
vt 0.495361 0.663330
vt 0.511230 0.652832
vt 0.190796 0.844116
vt 0.151001 0.843506
vt 0.097473 0.843628
vt 0.070679 0.838379
vt 0.032593 0.820855
vt 0.033943 0.833093
vt 0.019501 0.822754
vt 0.033914 0.833964
vt 0.485903 0.808712
vt 0.486000 0.811441
vt 0.496338 0.832886
vt 0.482986 0.832765
vt 0.144653 0.246094
vt 0.192505 0.246094
vt 0.151733 0.255371
vt 0.197144 0.254883
vt 0.108704 0.246094
vt 0.110901 0.254883
vt 0.085022 0.246094
vt 0.090393 0.254395
vt 0.068115 0.246094
vt 0.069946 0.253906
vt 0.050293 0.246094
vt 0.239502 0.246094
vt 0.245239 0.255859
vt 0.209595 0.272949
vt 0.210938 0.282227
vt 0.165894 0.278809
vt 0.171631 0.287598
vt 0.179443 0.296387
vt 0.215820 0.290527
vt 0.120972 0.278809
vt 0.119690 0.291504
vt 0.099670 0.284180
vt 0.105164 0.291992
vt 0.075500 0.289063
vt 0.081177 0.305664
vt 0.013824 0.291504
vt 0.013824 0.309570
vt 0.013824 0.286133
vt 0.459473 0.283691
vt 0.475830 0.284668
vt 0.457031 0.296875
vt 0.475830 0.299805
vt 0.448486 0.319336
vt 0.475830 0.316895
vt 0.432861 0.316406
vt 0.381104 0.306152
vt 0.437988 0.296875
vt 0.247925 0.271484
vt 0.252197 0.277832
vt 0.254639 0.287598
vt 0.204224 0.267090
vt 0.159546 0.268555
vt 0.114868 0.272461
vt 0.097046 0.270996
vt 0.073303 0.270508
vt 0.074036 0.279297
vt 0.013824 0.273926
vt 0.013824 0.265625
vt 0.457031 0.259277
vt 0.475830 0.264648
vt 0.459961 0.267090
vt 0.475830 0.272949
vt 0.442383 0.257324
vt 0.444580 0.262695
vt 0.406982 0.254883
vt 0.404297 0.261230
vt 0.395752 0.275879
vt 0.442383 0.280273
vt 0.365479 0.251953
vt 0.361328 0.263672
vt 0.359375 0.278809
vt 0.373779 0.283203
vt 0.367920 0.246094
vt 0.329834 0.246094
vt 0.324219 0.254395
vt 0.290527 0.246094
vt 0.290283 0.256836
vt 0.291748 0.263672
vt 0.322266 0.263672
vt 0.287109 0.270996
vt 0.320557 0.268555
vt 0.249023 0.267578
vt 0.221069 0.324707
vt 0.213989 0.359863
vt 0.179810 0.323242
vt 0.179932 0.361328
vt 0.179077 0.397461
vt 0.219727 0.396973
vt 0.136841 0.329590
vt 0.140625 0.361816
vt 0.140259 0.396484
vt 0.112122 0.363770
vt 0.113770 0.394043
vt 0.085632 0.340332
vt 0.084656 0.364746
vt 0.087219 0.392090
vt 0.013824 0.363770
vt 0.013824 0.387695
vt 0.013824 0.341797
vt 0.441650 0.353027
vt 0.475830 0.346680
vt 0.438965 0.375488
vt 0.475830 0.369629
vt 0.440918 0.401367
vt 0.475830 0.395020
vt 0.384521 0.382813
vt 0.417725 0.377930
vt 0.394531 0.403320
vt 0.415771 0.401855
vt 0.357666 0.377441
vt 0.373047 0.405762
vt 0.338623 0.369141
vt 0.338379 0.408691
vt 0.249390 0.394531
vt 0.275391 0.376953
vt 0.282471 0.395996
vt 0.251465 0.327637
vt 0.257568 0.358398
vt 0.108093 0.320313
vt 0.132080 0.301758
vt 0.132813 0.316406
vt 0.054047 0.319824
vt 0.101318 0.306152
vt 0.033051 0.318359
vt 0.013824 0.321289
vt 0.447266 0.332520
vt 0.475830 0.328613
vt 0.419922 0.345703
vt 0.383057 0.342773
vt 0.278076 0.323730
vt 0.276611 0.333008
vt 0.255371 0.315430
vt 0.255615 0.301758
vt 0.255371 0.309570
vt 0.218384 0.300781
vt 0.220337 0.312012
vt 0.342529 0.713867
vt 0.381348 0.708496
vt 0.303955 0.717285
vt 0.271240 0.719482
vt 0.231201 0.720703
vt 0.195557 0.716797
vt 0.164551 0.718262
vt 0.132935 0.712402
vt 0.103516 0.709961
vt 0.082886 0.706299
vt 0.013824 0.687744
vt 0.456787 0.732178
vt 0.447510 0.694336
vt 0.475830 0.687744
vt 0.422852 0.699707
vt 0.435303 0.544922
vt 0.475830 0.538086
vt 0.439697 0.564209
vt 0.475830 0.555420
vt 0.013824 0.532227
vt 0.013824 0.543945
vt 0.091492 0.535400
vt 0.095093 0.555908
vt 0.112061 0.558105
vt 0.112061 0.537598
vt 0.137695 0.560059
vt 0.135986 0.538818
vt 0.167114 0.545410
vt 0.165771 0.564697
vt 0.201294 0.549561
vt 0.202271 0.568359
vt 0.229248 0.554443
vt 0.232300 0.573486
vt 0.258301 0.553223
vt 0.258789 0.575928
vt 0.292725 0.558838
vt 0.293945 0.578857
vt 0.333740 0.557861
vt 0.328125 0.576660
vt 0.392334 0.432129
vt 0.299316 0.395508
vt 0.335205 0.661865
vt 0.371826 0.657227
vt 0.303223 0.663086
vt 0.263672 0.664551
vt 0.227295 0.664063
vt 0.194946 0.659424
vt 0.167358 0.656738
vt 0.147705 0.656250
vt 0.116333 0.654053
vt 0.092590 0.650391
vt 0.013824 0.631348
vt 0.441895 0.645508
vt 0.475830 0.636719
vt 0.418701 0.649658
vt 0.333496 0.538574
vt 0.367432 0.535645
vt 0.369873 0.553711
vt 0.294189 0.539551
vt 0.259766 0.534180
vt 0.231201 0.531006
vt 0.203857 0.531006
vt 0.167480 0.524414
vt 0.139282 0.522949
vt 0.115967 0.518555
vt 0.092346 0.517822
vt 0.013824 0.511230
vt 0.433350 0.528076
vt 0.475830 0.516846
vt 0.411377 0.549316
vt 0.407227 0.531006
vt 0.371094 0.577637
vt 0.416260 0.569824
vt 0.337646 0.510498
vt 0.372070 0.506836
vt 0.299805 0.508301
vt 0.269775 0.504639
vt 0.236816 0.502197
vt 0.204224 0.497559
vt 0.170898 0.494141
vt 0.138916 0.490234
vt 0.113953 0.488281
vt 0.094604 0.488281
vt 0.013824 0.489746
vt 0.430420 0.499512
vt 0.475830 0.495605
vt 0.406006 0.501465
vt 0.401611 0.784302
vt 0.354736 0.789429
vt 0.316406 0.792725
vt 0.015523 0.768809
vt 0.013824 0.768433
vt 0.015372 0.767209
vt 0.013824 0.761724
vt 0.498779 0.759521
vt 0.498779 0.765747
vt 0.485155 0.749805
vt 0.486917 0.754356
vt 0.480713 0.753784
vt 0.093454 0.865748
vt 0.095581 0.863281
vt 0.095391 0.865799
vt 0.442627 0.776123
vt 0.009132 0.797729
vt 0.145266 0.866043
vt 0.149048 0.863892
vt 0.148570 0.866101
vt 0.064453 0.778809
vt 0.015687 0.770060
vt 0.233765 0.790283
vt 0.192383 0.785645
vt 0.279053 0.791504
vt 0.483400 0.746980
vt 0.486572 0.748535
vt 0.486064 0.746794
vt 0.088074 0.783936
vt 0.116272 0.785767
vt 0.423828 0.864136
vt 0.421401 0.866047
vt 0.424007 0.866120
vt 0.156860 0.784424
vt 0.318115 0.306152
vt 0.316406 0.286133
vt 0.330322 0.302246
vt 0.357178 0.293945
vt 0.402832 0.283691
vt 0.357178 0.284668
vt 0.305176 0.333496
vt 0.311768 0.317871
vt 0.320068 0.341309
vt 0.348145 0.332031
vt 0.279785 0.311035
vt 0.318848 0.277344
vt 0.286865 0.277832
vt 0.284912 0.285645
vt 0.281494 0.302734
vt 0.426025 0.331055
vt 0.384277 0.326660
vt 0.346191 0.347168
vt 0.321777 0.351074
vt 0.302002 0.341309
vt 0.301514 0.352051
vt 0.275391 0.355957
vt 0.034149 0.246094
vt 0.013824 0.246094
vt 0.456543 0.246094
vt 0.475830 0.246094
vt 0.443848 0.246094
vt 0.410400 0.246094
vt 0.362061 0.268555
vt 0.098999 0.275879
vt 0.109863 0.336426
vt 0.182251 0.311523
vt 0.301758 0.370605
vt 0.409668 0.427734
vt 0.463867 0.746094
vt 0.471680 0.759766
vt 0.477295 0.766846
vt 0.484077 0.764818
vt 0.483398 0.772827
vt 0.480274 0.769766
vt 0.491699 0.776611
vt 0.497803 0.778198
vt 0.502630 0.772020
vt 0.502175 0.765611
vt 0.481686 0.775523
vt 0.484159 0.791668
vt 0.486386 0.801850
vt 0.497559 0.804565
vt 0.504473 0.793853
vt 0.502136 0.778136
vt 0.058380 0.856445
vt 0.070129 0.859375
vt 0.068401 0.865146
vt 0.070043 0.865334
vt 0.462646 0.863403
vt 0.481415 0.862361
vt 0.481478 0.858297
vt 0.482953 0.833509
vt 0.482984 0.832912
vt 0.497559 0.862061
vt 0.502243 0.843853
vt 0.501819 0.832834
vt 0.976766 0.844859
vt 0.981934 0.849731
vt 0.976233 0.850887
vt 0.035636 0.852963
vt 0.019501 0.833740
vt 0.036407 0.853882
vt 0.035650 0.853696
vt 0.191145 0.865359
vt 0.192217 0.865316
vt 0.233496 0.864161
vt 0.097961 0.172363
vt 0.097595 0.138672
vt 0.128052 0.171875
vt 0.128052 0.137207
vt 0.168335 0.166992
vt 0.165405 0.139160
vt 0.197266 0.164551
vt 0.199829 0.140625
vt 0.833496 0.146973
vt 0.836426 0.231934
vt 0.807129 0.145996
vt 0.810059 0.235840
vt 0.074341 0.171387
vt 0.060913 0.180176
vt 0.070435 0.137695
vt 0.047272 0.161133
vt 0.062012 0.104004
vt 0.050171 0.121582
vt 0.054932 0.089844
vt 0.044586 0.101074
vt 0.044830 0.077148
vt 0.046387 0.204102
vt 0.041748 0.181641
vt 0.053650 0.195313
vt 0.031036 0.163086
vt 0.015266 0.166016
vt 0.028595 0.141602
vt 0.010468 0.139648
vt 0.047333 0.142090
vt 0.033081 0.118652
vt 0.252930 0.056641
vt 0.212280 0.055176
vt 0.252197 0.044922
vt 0.214844 0.044922
vt 0.291504 0.055176
vt 0.290527 0.044922
vt 0.321289 0.055176
vt 0.320313 0.044922
vt 0.352295 0.058105
vt 0.352295 0.044922
vt 0.322021 0.221680
vt 0.352295 0.219238
vt 0.320313 0.232910
vt 0.352295 0.232910
vt 0.290527 0.221680
vt 0.290527 0.232910
vt 0.252930 0.222656
vt 0.252197 0.232910
vt 0.214844 0.232910
vt 0.213867 0.223633
vt 0.178711 0.192871
vt 0.207520 0.174316
vt 0.098938 0.198730
vt 0.128540 0.199219
vt 0.074890 0.188965
vt 0.171021 0.116211
vt 0.202515 0.118164
vt 0.075134 0.112793
vt 0.417969 0.037109
vt 0.398438 0.037109
vt 0.417969 0.001465
vt 0.398438 0.001465
vt 0.111084 0.037109
vt 0.084778 0.037109
vt 0.111084 0.001465
vt 0.084778 0.001465
vt 0.949219 0.229004
vt 0.947266 0.155762
vt 0.974121 0.214844
vt 0.971680 0.170410
vt 0.903320 0.226563
vt 0.903809 0.154297
vt 0.742188 0.227539
vt 0.725586 0.215332
vt 0.743164 0.162109
vt 0.725098 0.176270
vt 0.212402 0.078613
vt 0.168945 0.054199
vt 0.173706 0.091309
vt 0.128906 0.056641
vt 0.130737 0.085938
vt 0.098267 0.063477
vt 0.099426 0.089355
vt 0.075867 0.074707
vt 0.075867 0.094727
vt 0.076538 0.204590
vt 0.098511 0.214844
vt 0.096375 0.228027
vt 0.077576 0.218750
vt 0.195679 0.037109
vt 0.182007 0.037109
vt 0.196899 0.001465
vt 0.181274 0.001465
vt 0.783691 0.235840
vt 0.764160 0.233887
vt 0.783691 0.148926
vt 0.763184 0.154297
vt 0.330078 0.037109
vt 0.312988 0.037109
vt 0.330322 0.001465
vt 0.313232 0.001465
vt 0.077576 0.059570
vt 0.096375 0.050781
vt 0.099365 0.113770
vt 0.717773 0.195313
vt 0.125488 0.232910
vt 0.128418 0.219238
vt 0.164429 0.232910
vt 0.166870 0.222168
vt 0.162354 0.037109
vt 0.139526 0.037109
vt 0.162354 0.001465
vt 0.139526 0.001465
vt 0.372559 0.037109
vt 0.350586 0.037109
vt 0.372559 0.001465
vt 0.350586 0.001465
vt 0.164429 0.044922
vt 0.125610 0.044922
vt 0.129272 0.115723
vt 0.213379 0.201660
vt 0.214844 0.177246
vt 0.209961 0.107422
vt 0.222046 0.101074
vt 0.253662 0.079590
vt 0.293457 0.079590
vt 0.252197 0.101074
vt 0.290527 0.103516
vt 0.323486 0.076172
vt 0.320313 0.103516
vt 0.352295 0.077637
vt 0.352295 0.103516
vt 0.352295 0.201660
vt 0.322998 0.201660
vt 0.352295 0.174805
vt 0.320313 0.174805
vt 0.289795 0.200684
vt 0.290527 0.174805
vt 0.252441 0.201660
vt 0.252197 0.177246
vt 0.870605 0.225098
vt 0.867188 0.153320
vt 0.980957 0.191406
vt 0.016708 0.111816
vt 0.272461 0.037109
vt 0.253174 0.037109
vt 0.272705 0.001465
vt 0.251709 0.001465
vt 0.498047 0.037109
vt 0.476318 0.037109
vt 0.498047 0.001465
vt 0.476318 0.001465
vt 0.233032 0.037109
vt 0.211304 0.037109
vt 0.234009 0.001465
vt 0.213501 0.001465
vt 0.049805 0.037109
vt 0.028336 0.037109
vt 0.049805 0.001465
vt 0.028336 0.001465
vt 0.453125 0.037109
vt 0.453125 0.001465
vt 0.008194 0.037109
vt 0.008194 0.001465
vt 0.295166 0.037109
vt 0.295898 0.001465
vt 0.316267 0.864975
vt 0.426470 0.866133
vt 0.040959 0.861590
vt 0.058700 0.864393
vt 0.036630 0.861024
vt 0.022593 0.856792
vt 0.019501 0.849731
vt 0.486337 0.866272
vt 0.019501 0.856206
vt 0.182541 0.865500
vt 0.481180 0.866316
vt 0.462928 0.866505
vt 0.976097 0.857693
vt 0.503127 0.866145
vt 0.497711 0.866261
vt 0.503609 0.759663
vt 0.502935 0.861829
vt 0.499466 0.804832
vt 0.503359 0.818972
vt 0.981934 0.822754
vt 0.976256 0.813457
vt 0.979236 0.822317
vt 0.036137 0.860875
vt 0.981934 0.856206
vt 0.503464 0.758397
s 1
g off
g derechaP_Harry_clothes2.003
usemtl Harry_clothes2.003
f 581/1/1 2/2/2 580/3/3
f 595/4/4 3/5/5 596/6/6
f 596/6/6 4/7/7 571/8/8
f 5/9/9 573/10/10 572/11/11
f 7/12/12 8/13/13 9/14/14
f 9/14/14 8/13/13 10/15/15
f 9/14/14 10/15/15 11/16/16
f 11/16/16 10/15/15 12/17/17
f 13/18/18 14/19/19 15/20/20
f 15/20/20 14/19/19 16/21/21
f 17/22/22 18/23/23 19/24/24
f 19/24/24 18/23/23 20/25/25
f 19/24/24 20/25/25 21/26/26
f 21/26/26 20/25/25 22/27/27
f 21/26/26 22/27/27 23/28/28
f 23/28/28 22/27/27 24/29/29
f 23/28/28 24/29/29 25/30/30
f 25/30/30 24/29/29 26/31/31
f 25/30/30 26/31/31 27/32/32
f 27/32/32 26/31/31 28/33/33
f 27/32/32 28/33/33 29/34/34
f 29/34/34 28/33/33 30/35/35
f 29/34/34 30/35/35 31/36/36
f 31/36/36 30/35/35 32/37/37
f 31/36/36 32/37/37 33/38/38
f 33/38/38 32/37/37 34/39/39
f 33/38/38 34/39/39 35/40/40
f 35/40/40 34/39/39 36/41/41
f 35/40/40 36/41/41 37/42/42
f 37/42/42 36/41/41 38/43/43
f 37/42/42 38/43/43 39/44/44
f 39/44/44 38/43/43 40/45/45
f 39/44/44 40/45/45 41/46/46
f 41/46/46 40/45/45 42/47/47
f 41/46/46 42/47/47 43/48/48
f 43/48/48 42/47/47 44/49/49
f 43/48/48 44/49/49 45/50/50
f 45/50/50 44/49/49 46/51/51
f 47/52/52 45/50/50 48/53/53
f 48/53/53 45/50/50 46/51/51
f 49/54/54 47/52/52 50/55/55
f 50/55/55 47/52/52 48/53/53
f 51/56/56 52/57/57 50/55/55
f 50/55/55 52/57/57 49/54/54
f 610/58/58 54/59/59 603/60/60
f 603/60/60 54/59/59 606/61/61
f 610/58/58 53/62/62 611/63/63
f 611/63/63 53/62/62 612/64/64
f 55/65/65 56/66/66 57/67/67
f 57/67/67 56/66/66 58/68/68
f 635/69/69 58/70/68 636/71/70
f 59/72/71 60/73/72 61/74/73
f 62/75/74 63/76/75 64/77/76
f 64/77/76 63/76/75 65/78/77
f 65/79/77 63/80/75 25/30/30
f 25/30/30 63/80/75 23/28/28
f 66/81/78 67/82/79 24/29/29
f 24/29/29 67/82/79 26/31/31
f 68/83/80 69/84/81 70/85/82
f 70/85/82 69/84/81 71/86/83
f 72/87/84 73/88/85 68/83/80
f 68/83/80 73/88/85 69/84/81
f 74/89/86 75/90/87 72/87/84
f 72/87/84 75/90/87 73/88/85
f 76/91/88 77/92/89 74/89/86
f 74/89/86 77/92/89 75/90/87
f 78/93/90 79/94/91 76/91/88
f 76/91/88 79/94/91 77/92/89
f 80/95/92 81/96/93 78/93/90
f 78/93/90 81/96/93 79/94/91
f 82/97/94 83/98/95 80/95/92
f 80/95/92 83/98/95 81/96/93
f 59/72/71 61/74/73 82/97/94
f 82/97/94 61/74/73 83/98/95
f 83/98/95 61/74/73 84/99/96
f 84/99/96 61/74/73 85/100/97
f 83/98/95 84/99/96 81/96/93
f 81/96/93 84/99/96 86/101/98
f 79/94/91 81/96/93 87/102/99
f 87/102/99 81/96/93 86/101/98
f 77/92/89 79/94/91 88/103/100
f 88/103/100 79/94/91 87/102/99
f 75/90/87 77/92/89 89/104/101
f 89/104/101 77/92/89 88/103/100
f 73/88/85 75/90/87 90/105/102
f 90/105/102 75/90/87 89/104/101
f 69/84/81 73/88/85 91/106/103
f 91/106/103 73/88/85 90/105/102
f 71/86/83 69/84/81 92/107/104
f 92/107/104 69/84/81 91/106/103
f 26/31/31 67/82/79 28/33/33
f 28/33/33 67/82/79 93/108/105
f 65/79/77 25/30/30 94/109/106
f 94/109/106 25/30/30 27/32/32
f 64/77/76 65/78/77 95/110/107
f 95/110/107 65/78/77 94/111/106
f 61/74/73 60/73/72 85/100/97
f 85/100/97 60/73/72 96/112/108
f 97/113/109 98/114/110 99/115/111
f 99/115/111 98/114/110 100/116/112
f 97/113/109 99/115/111 101/117/113
f 101/117/113 99/115/111 102/118/114
f 101/117/113 102/118/114 103/119/115
f 103/119/115 102/118/114 104/120/116
f 103/119/115 104/120/116 105/121/117
f 105/121/117 104/120/116 106/122/118
f 105/121/117 106/122/118 107/123/119
f 107/123/119 106/122/118 108/124/120
f 107/123/119 108/124/120 109/125/121
f 109/125/121 110/126/122 111/127/123
f 111/127/123 110/126/122 112/128/124
f 111/127/123 112/128/124 113/129/125
f 113/129/125 112/128/124 114/130/126
f 115/131/127 116/132/128 38/43/43
f 38/43/43 116/132/128 40/45/45
f 37/42/42 39/44/44 117/133/129
f 117/133/129 39/44/44 118/134/130
f 119/135/131 117/136/129 120/137/132
f 120/137/132 117/136/129 118/138/130
f 100/116/112 98/114/110 121/139/133
f 121/139/133 98/114/110 122/140/134
f 123/141/135 124/142/136 125/143/137
f 125/143/137 124/142/136 126/144/138
f 124/142/136 123/141/135 127/145/139
f 127/145/139 123/141/135 128/146/140
f 127/145/139 128/146/140 129/147/141
f 129/147/141 128/146/140 130/148/142
f 131/149/143 132/150/144 130/148/142
f 130/148/142 132/150/144 129/147/141
f 133/151/145 134/152/146 131/149/143
f 131/149/143 134/152/146 132/150/144
f 134/152/146 133/151/145 135/153/147
f 135/153/147 133/151/145 136/154/148
f 135/153/147 136/154/148 137/155/149
f 137/155/149 136/154/148 138/156/150
f 137/155/149 138/156/150 139/157/151
f 139/157/151 138/156/150 140/158/152
f 141/159/153 139/157/151 142/160/154
f 142/160/154 139/157/151 140/158/152
f 48/53/53 46/51/51 143/161/155
f 143/161/155 46/51/51 144/162/156
f 45/50/50 47/52/52 145/163/157
f 145/163/157 47/52/52 146/164/158
f 146/165/158 147/166/159 145/167/157
f 148/168/160 149/169/161 150/170/162
f 626/171/163 623/172/164 151/173/165
f 54/59/59 607/174/166 606/61/61
f 150/175/162 54/59/59 148/176/160
f 152/177/167 53/62/62 153/178/168
f 153/178/168 53/62/62 51/56/56
f 154/179/169 155/180/170 156/181/171
f 156/181/171 155/180/170 157/182/172
f 158/183/173 159/184/174 157/182/172
f 157/182/172 159/184/174 156/181/171
f 160/185/175 159/184/174 161/186/176
f 161/186/176 159/184/174 158/183/173
f 162/187/177 160/185/175 163/188/178
f 163/188/178 160/185/175 161/186/176
f 162/187/177 163/188/178 164/189/179
f 164/189/179 163/188/178 165/190/180
f 166/191/181 164/189/179 167/192/182
f 167/192/182 164/189/179 165/190/180
f 168/193/183 166/191/181 169/194/184
f 169/194/184 166/191/181 167/192/182
f 170/195/185 168/193/183 171/196/186
f 171/196/186 168/193/183 169/194/184
f 172/197/187 170/195/185 173/198/188
f 173/198/188 170/195/185 171/196/186
f 589/199/189 1/200/190 581/1/1
f 637/201/191 176/202/192 638/203/193
f 646/204/194 177/205/195 643/206/196
f 643/206/196 57/207/67 653/208/197
f 152/177/167 184/209/198 185/210/199
f 185/210/199 184/209/198 186/211/200
f 152/177/167 185/210/199 53/62/62
f 612/64/64 624/212/201 56/66/66
f 187/213/202 148/176/160 55/65/65
f 55/65/65 148/176/160 54/59/59
f 148/168/160 187/214/202 149/169/161
f 149/169/161 187/214/202 188/215/203
f 172/197/187 189/216/204 190/217/205
f 190/217/205 189/216/204 191/218/206
f 568/219/207 193/220/208 569/221/209
f 194/222/210 195/223/211 196/224/212
f 197/225/213 194/222/210 196/224/212
f 198/226/214 197/225/213 196/224/212
f 199/227/215 198/226/214 196/224/212
f 200/228/216 199/227/215 196/224/212
f 201/229/217 196/224/212 202/230/218
f 202/230/218 196/224/212 203/231/219
f 203/231/219 196/224/212 204/232/220
f 204/232/220 196/224/212 205/233/221
f 205/233/221 196/224/212 206/234/222
f 206/234/222 196/224/212 207/235/223
f 207/235/223 196/224/212 208/236/224
f 196/224/212 195/223/211 208/236/224
f 209/237/225 200/228/216 201/229/217
f 201/229/217 200/228/216 196/224/212
f 166/191/181 168/193/183 3/5/5
f 3/5/5 168/193/183 4/7/7
f 166/191/181 3/5/5 164/189/179
f 164/189/179 3/5/5 2/2/2
f 162/187/177 164/189/179 1/200/190
f 1/200/190 164/189/179 2/2/2
f 160/185/175 162/187/177 210/238/226
f 210/238/226 162/187/177 1/200/190
f 159/184/174 160/185/175 211/239/227
f 211/239/227 160/185/175 210/238/226
f 156/181/171 159/184/174 212/240/228
f 212/240/228 159/184/174 211/239/227
f 154/179/169 156/181/171 213/241/229
f 213/241/229 156/181/171 212/240/228
f 628/242/230 629/243/231 175/244/232
f 629/243/231 186/211/200 600/245/233
f 630/246/234 604/247/235 189/216/204
f 604/247/235 180/248/236 605/249/237
f 172/197/187 190/217/205 170/195/185
f 170/195/185 190/217/205 5/9/9
f 168/193/183 170/195/185 4/7/7
f 4/7/7 170/195/185 5/9/9
f 207/250/223 208/251/224 214/252/238
f 214/252/238 208/251/224 215/253/239
f 207/250/223 214/252/238 206/254/222
f 206/254/222 214/252/238 216/255/240
f 205/256/221 206/254/222 217/257/241
f 217/257/241 206/254/222 216/255/240
f 204/258/220 218/259/242 203/260/219
f 203/260/219 218/259/242 8/13/13
f 195/261/211 219/262/243 208/251/224
f 208/251/224 219/262/243 215/253/239
f 220/263/244 221/264/245 222/265/246
f 222/265/246 221/264/245 223/266/247
f 223/266/247 221/264/245 224/267/248
f 224/267/248 221/264/245 225/268/249
f 222/265/246 223/266/247 226/269/250
f 226/269/250 223/266/247 227/270/251
f 228/271/252 227/270/251 229/272/253
f 230/273/254 231/274/255 14/19/19
f 14/19/19 231/274/255 16/21/21
f 232/275/256 13/18/18 233/276/257
f 233/276/257 13/18/18 15/20/20
f 232/275/256 234/277/258 13/18/18
f 13/18/18 234/277/258 11/16/16
f 235/278/259 234/279/258 236/280/260
f 236/280/260 234/279/258 232/281/256
f 236/280/260 232/281/256 237/282/261
f 237/282/261 232/281/256 233/283/257
f 238/284/262 239/285/263 240/286/264
f 241/287/265 242/288/266 220/263/244
f 220/263/244 242/288/266 221/264/245
f 221/264/245 242/288/266 225/268/249
f 225/268/249 242/288/266 243/289/267
f 215/253/239 244/290/268 214/252/238
f 214/252/238 244/290/268 245/291/269
f 245/291/269 244/290/268 222/265/246
f 222/265/246 244/290/268 220/263/244
f 214/252/238 245/291/269 216/255/240
f 216/255/240 245/291/269 246/292/270
f 246/292/270 245/291/269 226/269/250
f 226/269/250 245/291/269 222/265/246
f 216/255/240 246/292/270 217/257/241
f 217/257/241 246/292/270 247/293/271
f 248/294/272 249/295/273 10/15/15
f 10/15/15 249/295/273 12/17/17
f 250/296/274 9/14/14 234/277/258
f 234/277/258 9/14/14 11/16/16
f 251/297/275 7/12/12 250/296/274
f 250/296/274 7/12/12 9/14/14
f 252/298/276 251/299/275 253/300/277
f 253/300/277 251/299/275 250/301/274
f 253/300/277 250/301/274 235/278/259
f 235/278/259 250/301/274 234/279/258
f 254/302/278 255/303/279 256/304/280
f 256/304/280 255/303/279 257/305/281
f 258/306/282 255/303/279 259/307/283
f 256/304/280 257/305/281 260/308/284
f 260/308/284 257/305/281 261/309/285
f 262/310/286 258/306/282 263/311/287
f 198/312/214 260/308/284 197/313/213
f 197/313/213 260/308/284 264/314/288
f 197/313/213 264/314/288 194/315/210
f 194/315/210 264/314/288 265/316/289
f 266/317/290 267/318/291 268/319/292
f 268/319/292 267/318/291 269/320/293
f 195/261/211 194/315/210 219/262/243
f 219/262/243 194/315/210 265/316/289
f 270/321/294 266/317/290 241/287/265
f 241/287/265 266/317/290 268/319/292
f 219/262/243 270/321/294 215/253/239
f 215/253/239 270/321/294 244/290/268
f 244/290/268 270/321/294 220/263/244
f 220/263/244 270/321/294 241/287/265
f 271/322/295 272/323/296 273/324/297
f 273/324/297 272/323/296 274/325/298
f 274/325/298 272/323/296 275/326/299
f 275/326/299 272/323/296 276/327/300
f 273/324/297 274/325/298 277/328/301
f 277/328/301 274/325/298 278/329/302
f 278/329/302 274/325/298 279/330/303
f 279/330/303 274/325/298 275/326/299
f 277/328/301 278/329/302 280/331/304
f 280/331/304 278/329/302 281/332/305
f 281/332/305 278/329/302 279/330/303
f 282/333/306 283/334/307 18/23/23
f 18/23/23 283/334/307 20/25/25
f 20/25/25 283/334/307 22/27/27
f 22/27/27 283/334/307 284/335/308
f 285/336/309 19/24/24 286/337/310
f 286/337/310 19/24/24 21/26/26
f 285/336/309 287/338/311 19/24/24
f 19/24/24 287/338/311 17/22/22
f 288/339/312 287/340/311 289/341/313
f 289/341/313 287/340/311 285/342/309
f 289/341/313 285/342/309 290/343/314
f 290/343/314 285/342/309 286/344/310
f 291/345/315 292/346/316 293/347/317
f 293/347/317 292/346/316 294/348/318
f 295/349/319 296/350/320 297/351/321
f 297/351/321 296/350/320 298/352/322
f 299/353/323 300/354/324 301/355/325
f 302/356/326 303/357/327 271/322/295
f 271/322/295 303/357/327 272/323/296
f 272/323/296 303/357/327 276/327/300
f 276/327/300 303/357/327 299/353/323
f 304/358/328 305/359/329 306/360/330
f 304/358/328 307/361/331 308/362/332
f 18/23/23 307/361/331 282/333/306
f 282/333/306 307/361/331 304/358/328
f 309/363/333 307/361/331 17/22/22
f 233/276/257 15/20/20 310/364/334
f 310/364/334 15/20/20 309/363/333
f 237/282/261 233/283/257 311/365/335
f 311/365/335 233/283/257 310/366/334
f 288/339/312 310/366/334 287/340/311
f 292/346/316 291/345/315 312/367/336
f 312/367/336 291/345/315 313/368/337
f 314/369/338 315/370/339 316/371/340
f 316/371/340 315/370/339 302/356/326
f 317/372/341 318/373/342 319/374/343
f 319/374/343 318/373/342 320/375/344
f 320/375/344 316/371/340 271/322/295
f 271/322/295 316/371/340 302/356/326
f 321/376/345 322/377/346 127/145/139
f 127/145/139 322/377/346 124/142/136
f 321/376/345 127/145/139 323/378/347
f 323/378/347 127/145/139 129/147/141
f 323/378/347 129/147/141 324/379/348
f 324/379/348 129/147/141 132/150/144
f 324/379/348 132/150/144 325/380/349
f 325/380/349 132/150/144 134/152/146
f 325/380/349 134/152/146 326/381/350
f 326/381/350 134/152/146 135/153/147
f 326/381/350 135/153/147 327/382/351
f 327/382/351 135/153/147 137/155/149
f 327/382/351 137/155/149 328/383/352
f 328/383/352 137/155/149 139/157/151
f 328/383/352 139/157/151 329/384/353
f 329/384/353 139/157/151 141/159/153
f 330/385/354 144/162/156 44/49/49
f 44/49/49 144/162/156 46/51/51
f 43/48/48 45/50/50 331/386/355
f 331/386/355 45/50/50 145/163/157
f 332/387/356 333/388/357 145/167/157
f 145/167/157 333/388/357 331/389/355
f 124/142/136 322/377/346 126/144/138
f 126/144/138 322/377/346 334/390/358
f 335/391/359 336/392/360 337/393/361
f 337/393/361 336/392/360 338/394/362
f 336/395/360 33/38/38 338/396/362
f 338/396/362 33/38/38 35/40/40
f 34/39/39 339/397/363 36/41/41
f 36/41/41 339/397/363 340/398/364
f 341/399/365 342/400/366 343/401/367
f 343/401/367 342/400/366 344/402/368
f 344/402/368 345/403/369 343/401/367
f 343/401/367 345/403/369 346/404/370
f 345/403/369 347/405/371 346/404/370
f 346/404/370 347/405/371 348/406/372
f 347/405/371 349/407/373 348/406/372
f 348/406/372 349/407/373 350/408/374
f 349/407/373 351/409/375 350/408/374
f 350/408/374 351/409/375 352/410/376
f 351/409/375 353/411/377 352/410/376
f 352/410/376 353/411/377 354/412/378
f 355/413/379 356/414/380 353/411/377
f 353/411/377 356/414/380 354/412/378
f 296/350/320 357/415/381 59/72/71
f 298/352/322 59/72/71 82/97/94
f 358/416/382 298/352/322 80/95/92
f 80/95/92 298/352/322 82/97/94
f 358/416/382 80/95/92 301/355/325
f 301/355/325 80/95/92 78/93/90
f 301/355/325 78/93/90 299/353/323
f 299/353/323 78/93/90 76/91/88
f 299/353/323 76/91/88 276/327/300
f 276/327/300 76/91/88 74/89/86
f 276/327/300 74/89/86 275/326/299
f 275/326/299 74/89/86 72/87/84
f 275/326/299 72/87/84 279/330/303
f 279/330/303 72/87/84 68/83/80
f 279/330/303 68/83/80 281/332/305
f 281/332/305 68/83/80 70/85/82
f 284/335/308 66/81/78 22/27/27
f 22/27/27 66/81/78 24/29/29
f 286/337/310 21/26/26 63/80/75
f 63/80/75 21/26/26 23/28/28
f 290/343/314 286/344/310 62/75/74
f 62/75/74 286/344/310 63/76/75
f 359/417/383 360/418/384 321/376/345
f 321/376/345 360/418/384 322/377/346
f 359/417/383 321/376/345 361/419/385
f 361/419/385 321/376/345 323/378/347
f 361/419/385 323/378/347 362/420/386
f 362/420/386 323/378/347 324/379/348
f 362/420/386 324/379/348 363/421/387
f 363/421/387 324/379/348 325/380/349
f 363/421/387 325/380/349 364/422/388
f 364/422/388 325/380/349 326/381/350
f 364/422/388 326/381/350 365/423/389
f 365/423/389 326/381/350 327/382/351
f 365/423/389 327/382/351 366/424/390
f 366/424/390 327/382/351 328/383/352
f 366/424/390 328/383/352 367/425/391
f 367/425/391 328/383/352 329/384/353
f 368/426/392 330/385/354 42/47/47
f 42/47/47 330/385/354 44/49/49
f 41/46/46 43/48/48 369/427/393
f 369/427/393 43/48/48 331/386/355
f 370/428/394 369/429/393 333/388/357
f 333/388/357 369/429/393 331/389/355
f 322/377/346 360/418/384 334/390/358
f 334/390/358 360/418/384 371/430/395
f 372/431/396 373/432/397 355/413/379
f 355/413/379 373/432/397 374/433/398
f 372/431/396 355/413/379 375/434/399
f 375/434/399 355/413/379 353/411/377
f 375/434/399 353/411/377 376/435/400
f 376/435/400 353/411/377 351/409/375
f 376/435/400 351/409/375 377/436/401
f 377/436/401 351/409/375 349/407/373
f 377/436/401 349/407/373 378/437/402
f 378/437/402 349/407/373 347/405/371
f 378/437/402 347/405/371 379/438/403
f 379/438/403 347/405/371 345/403/369
f 379/438/403 345/403/369 380/439/404
f 380/439/404 345/403/369 344/402/368
f 380/439/404 344/402/368 381/440/405
f 381/440/405 344/402/368 342/400/366
f 382/441/406 339/397/363 32/37/37
f 32/37/37 339/397/363 34/39/39
f 31/36/36 33/38/38 383/442/407
f 383/442/407 33/38/38 336/395/360
f 384/443/408 383/444/407 335/391/359
f 335/391/359 383/444/407 336/392/360
f 374/433/398 373/432/397 385/445/409
f 385/445/409 373/432/397 386/446/410
f 387/447/411 98/114/110 356/414/380
f 356/414/380 98/114/110 97/113/109
f 356/414/380 97/113/109 354/412/378
f 354/412/378 97/113/109 101/117/113
f 354/412/378 101/117/113 352/410/376
f 352/410/376 101/117/113 103/119/115
f 352/410/376 103/119/115 350/408/374
f 350/408/374 103/119/115 105/121/117
f 350/408/374 105/121/117 348/406/372
f 348/406/372 105/121/117 107/123/119
f 348/406/372 107/123/119 346/404/370
f 346/404/370 107/123/119 109/125/121
f 346/404/370 109/125/121 343/401/367
f 343/401/367 109/125/121 111/127/123
f 343/401/367 111/127/123 341/399/365
f 341/399/365 111/127/123 113/129/125
f 340/398/364 115/131/127 36/41/41
f 36/41/41 115/131/127 38/43/43
f 35/40/40 37/42/42 338/396/362
f 338/396/362 37/42/42 117/133/129
f 337/393/361 338/394/362 119/135/131
f 119/135/131 338/394/362 117/136/129
f 387/447/411 388/448/412 98/114/110
f 98/114/110 388/448/412 122/140/134
f 389/449/413 84/99/96 390/450/414
f 390/450/414 84/99/96 85/100/97
f 84/99/96 389/449/413 86/101/98
f 86/101/98 389/449/413 391/451/415
f 87/102/99 86/101/98 392/452/416
f 392/452/416 86/101/98 391/451/415
f 88/103/100 87/102/99 393/453/417
f 393/453/417 87/102/99 392/452/416
f 89/104/101 88/103/100 394/454/418
f 394/454/418 88/103/100 393/453/417
f 90/105/102 89/104/101 395/455/419
f 395/455/419 89/104/101 394/454/418
f 91/106/103 90/105/102 396/456/420
f 396/456/420 90/105/102 395/455/419
f 92/107/104 91/106/103 397/457/421
f 397/457/421 91/106/103 396/456/420
f 28/33/33 93/108/105 30/35/35
f 30/35/35 93/108/105 398/458/422
f 94/109/106 27/32/32 399/459/423
f 399/459/423 27/32/32 29/34/34
f 95/110/107 94/111/106 400/460/424
f 400/460/424 94/111/106 399/461/423
f 390/450/414 96/112/108 401/462/425
f 359/417/383 99/115/111 360/418/384
f 360/418/384 99/115/111 100/116/112
f 99/115/111 359/417/383 102/118/114
f 102/118/114 359/417/383 361/419/385
f 102/118/114 361/419/385 104/120/116
f 104/120/116 361/419/385 362/420/386
f 104/120/116 362/420/386 106/122/118
f 106/122/118 362/420/386 363/421/387
f 106/122/118 363/421/387 108/124/120
f 108/124/120 363/421/387 364/422/388
f 108/124/120 364/422/388 110/126/122
f 110/126/122 364/422/388 365/423/389
f 110/126/122 365/423/389 112/128/124
f 112/128/124 365/423/389 366/424/390
f 112/128/124 366/424/390 114/130/126
f 114/130/126 366/424/390 367/425/391
f 116/132/128 368/426/392 40/45/45
f 40/45/45 368/426/392 42/47/47
f 39/44/44 41/46/46 118/134/130
f 118/134/130 41/46/46 369/427/393
f 120/137/132 118/138/130 370/428/394
f 370/428/394 118/138/130 369/429/393
f 360/418/384 100/116/112 371/430/395
f 371/430/395 100/116/112 121/139/133
f 390/450/414 373/432/397 389/449/413
f 389/449/413 373/432/397 372/431/396
f 389/449/413 372/431/396 391/451/415
f 391/451/415 372/431/396 375/434/399
f 391/451/415 375/434/399 392/452/416
f 392/452/416 375/434/399 376/435/400
f 392/452/416 376/435/400 393/453/417
f 393/453/417 376/435/400 377/436/401
f 393/453/417 377/436/401 394/454/418
f 394/454/418 377/436/401 378/437/402
f 394/454/418 378/437/402 395/455/419
f 395/455/419 378/437/402 379/438/403
f 395/455/419 379/438/403 396/456/420
f 396/456/420 379/438/403 380/439/404
f 396/456/420 380/439/404 397/457/421
f 397/457/421 380/439/404 381/440/405
f 398/458/422 382/441/406 30/35/35
f 30/35/35 382/441/406 32/37/37
f 29/34/34 31/36/36 399/459/423
f 399/459/423 31/36/36 383/442/407
f 400/460/424 399/461/423 384/443/408
f 384/443/408 399/461/423 383/444/407
f 401/462/425 386/446/410 373/432/397
f 402/463/426 403/464/427 123/141/135
f 123/141/135 403/464/427 128/146/140
f 403/464/427 404/465/428 128/146/140
f 128/146/140 404/465/428 130/148/142
f 631/466/429 405/467/430 619/468/431
f 619/468/431 405/467/430 613/469/432
f 177/470/195 178/471/433 187/214/202
f 187/214/202 178/471/433 188/215/203
f 608/472/434 632/473/435 406/474/436
f 632/473/435 150/170/162 626/171/163
f 591/475/437 408/476/438 574/477/439
f 173/198/188 171/196/186 409/478/440
f 409/478/440 171/196/186 402/463/426
f 171/196/186 169/194/184 402/463/426
f 402/463/426 169/194/184 403/464/427
f 169/194/184 167/192/182 403/464/427
f 403/464/427 167/192/182 404/465/428
f 175/244/232 624/212/201 628/242/230
f 56/66/66 175/244/232 58/68/68
f 177/479/195 187/213/202 57/67/67
f 57/67/67 187/213/202 55/65/65
f 575/480/441 410/481/442 576/482/443
f 153/178/168 51/56/56 411/483/444
f 411/483/444 51/56/56 50/55/55
f 631/466/429 609/484/445 405/467/430
f 609/484/445 52/57/57 607/174/166
f 163/188/178 161/186/176 412/485/446
f 412/485/446 161/186/176 413/486/447
f 167/192/182 165/190/180 404/465/428
f 404/465/428 165/190/180 414/487/448
f 163/188/178 412/485/446 165/190/180
f 165/190/180 412/485/446 414/487/448
f 402/463/426 123/141/135 409/478/440
f 409/478/440 123/141/135 125/143/137
f 608/472/434 616/488/449 405/489/430
f 616/488/449 146/165/158 613/490/432
f 50/55/55 48/53/53 411/483/444
f 411/483/444 48/53/53 143/161/155
f 412/485/446 413/486/447 133/151/145
f 133/151/145 413/486/447 136/154/148
f 412/485/446 133/151/145 414/487/448
f 414/487/448 133/151/145 131/149/143
f 414/487/448 131/149/143 404/465/428
f 404/465/428 131/149/143 130/148/142
f 155/180/170 415/491/450 157/182/172
f 157/182/172 415/491/450 416/492/451
f 142/160/154 140/158/152 415/491/450
f 415/491/450 140/158/152 416/492/451
f 573/10/10 6/493/452 585/494/453
f 585/494/453 6/493/452 586/495/454
f 136/154/148 413/486/447 138/156/150
f 138/156/150 413/486/447 417/496/455
f 161/186/176 158/183/173 413/486/447
f 413/486/447 158/183/173 417/496/455
f 417/496/455 158/183/173 416/492/451
f 416/492/451 158/183/173 157/182/172
f 138/156/150 417/496/455 140/158/152
f 140/158/152 417/496/455 416/492/451
f 418/497/456 419/498/457 420/499/458
f 421/500/459 422/501/460 239/285/263
f 387/447/411 374/433/398 388/448/412
f 388/448/412 374/433/398 385/445/409
f 355/413/379 374/433/398 356/414/380
f 356/414/380 374/433/398 387/447/411
f 257/305/281 255/303/279 258/306/282
f 258/306/282 422/501/460 263/311/287
f 423/502/461 263/311/287 421/500/459
f 424/503/462 425/504/463 426/505/464
f 426/505/464 425/504/463 427/506/465
f 425/504/463 424/503/462 428/507/466
f 428/507/466 424/503/462 314/369/338
f 428/507/466 314/369/338 318/373/342
f 318/373/342 314/369/338 316/371/340
f 419/498/457 429/508/467 423/502/461
f 423/502/461 429/508/467 262/310/286
f 423/502/461 262/310/286 263/311/287
f 269/320/293 429/508/467 268/319/292
f 268/319/292 429/508/467 430/509/468
f 268/319/292 430/509/468 241/287/265
f 241/287/265 430/509/468 242/288/266
f 421/500/459 239/285/263 420/499/458
f 418/497/456 420/499/458 425/504/463
f 425/504/463 420/499/458 427/506/465
f 419/498/457 418/497/456 431/510/469
f 431/510/469 418/497/456 432/511/470
f 432/511/470 317/372/341 431/510/469
f 431/510/469 317/372/341 243/289/267
f 243/289/267 317/372/341 225/268/249
f 225/268/249 317/372/341 319/374/343
f 224/267/248 225/268/249 319/374/343
f 227/270/251 305/359/329 308/362/332
f 227/270/251 223/266/247 305/359/329
f 305/359/329 223/266/247 224/267/248
f 310/364/334 309/363/333 287/338/311
f 287/338/311 309/363/333 17/22/22
f 16/21/21 307/361/331 15/20/20
f 15/20/20 307/361/331 309/363/333
f 311/365/335 310/366/334 288/339/312
f 238/284/262 237/282/261 433/512/471
f 433/512/471 237/282/261 311/365/335
f 238/284/262 433/512/471 239/285/263
f 239/285/263 433/512/471 434/513/472
f 420/499/458 239/285/263 427/506/465
f 427/506/465 239/285/263 434/513/472
f 17/22/22 307/361/331 18/23/23
f 427/506/465 435/514/473 426/505/464
f 426/505/464 435/514/473 436/515/474
f 109/125/121 108/124/120 110/126/122
f 85/100/97 96/112/108 390/450/414
f 308/362/332 305/359/329 304/358/328
f 229/272/253 227/270/251 308/362/332
f 258/306/282 259/307/283 422/501/460
f 422/501/460 259/307/283 240/286/264
f 260/308/284 261/309/285 264/314/288
f 264/314/288 261/309/285 267/318/291
f 264/314/288 267/318/291 265/316/289
f 265/316/289 267/318/291 266/317/290
f 313/368/337 291/345/315 435/514/473
f 435/514/473 291/345/315 295/349/319
f 436/515/474 435/514/473 297/351/321
f 297/351/321 435/514/473 295/349/319
f 293/347/317 296/350/320 291/345/315
f 291/345/315 296/350/320 295/349/319
f 426/505/464 436/515/474 437/516/475
f 437/516/475 436/515/474 438/517/476
f 437/516/475 438/517/476 315/370/339
f 315/370/339 438/517/476 439/518/477
f 203/260/219 8/13/13 202/519/218
f 202/519/218 8/13/13 7/12/12
f 202/519/218 7/12/12 201/520/217
f 201/520/217 7/12/12 251/297/275
f 209/521/225 201/522/217 252/298/276
f 252/298/276 201/522/217 251/299/275
f 200/523/216 209/521/225 254/302/278
f 254/302/278 209/521/225 252/298/276
f 200/523/216 254/302/278 199/524/215
f 199/524/215 254/302/278 256/304/280
f 199/524/215 256/304/280 198/312/214
f 198/312/214 256/304/280 260/308/284
f 219/262/243 265/316/289 270/321/294
f 270/321/294 265/316/289 266/317/290
f 257/305/281 258/306/282 440/525/478
f 440/525/478 258/306/282 262/310/286
f 424/503/462 437/516/475 314/369/338
f 314/369/338 437/516/475 315/370/339
f 261/309/285 257/305/281 440/525/478
f 267/318/291 261/309/285 269/320/293
f 269/320/293 261/309/285 440/525/478
f 60/73/72 64/77/76 96/112/108
f 390/450/414 401/462/425 373/432/397
f 226/269/250 227/270/251 441/526/479
f 441/526/479 227/270/251 228/271/252
f 304/358/328 306/360/330 442/527/480
f 442/527/480 306/360/330 277/328/301
f 442/527/480 277/328/301 280/331/304
f 224/267/248 319/374/343 443/528/481
f 443/528/481 319/374/343 320/375/344
f 443/528/481 320/375/344 273/324/297
f 273/324/297 320/375/344 271/322/295
f 305/359/329 224/267/248 306/360/330
f 306/360/330 224/267/248 443/528/481
f 443/528/481 273/324/297 306/360/330
f 306/360/330 273/324/297 277/328/301
f 302/356/326 315/370/339 303/357/327
f 303/357/327 315/370/339 439/518/477
f 247/293/271 246/292/270 441/526/479
f 441/526/479 246/292/270 226/269/250
f 248/294/272 247/293/271 441/526/479
f 217/257/241 247/293/271 218/259/242
f 218/259/242 247/293/271 248/294/272
f 218/259/242 248/294/272 8/13/13
f 8/13/13 248/294/272 10/15/15
f 422/501/460 421/500/459 263/311/287
f 422/501/460 240/286/264 239/285/263
f 437/516/475 424/503/462 426/505/464
f 357/415/381 60/73/72 59/72/71
f 296/350/320 59/72/71 298/352/322
f 444/529/482 297/351/321 358/416/382
f 358/416/382 297/351/321 298/352/322
f 300/354/324 444/529/482 301/355/325
f 301/355/325 444/529/482 358/416/382
f 438/517/476 436/515/474 444/529/482
f 444/529/482 436/515/474 297/351/321
f 438/517/476 444/529/482 439/518/477
f 439/518/477 444/529/482 300/354/324
f 303/357/327 439/518/477 299/353/323
f 299/353/323 439/518/477 300/354/324
f 440/525/478 262/310/286 269/320/293
f 269/320/293 262/310/286 429/508/467
f 429/508/467 419/498/457 430/509/468
f 430/509/468 419/498/457 431/510/469
f 432/511/470 418/497/456 428/507/466
f 428/507/466 418/497/456 425/504/463
f 419/498/457 423/502/461 420/499/458
f 420/499/458 423/502/461 421/500/459
f 430/509/468 431/510/469 242/288/266
f 242/288/266 431/510/469 243/289/267
f 432/511/470 428/507/466 317/372/341
f 317/372/341 428/507/466 318/373/342
f 16/21/21 231/274/255 307/361/331
f 307/361/331 231/274/255 308/362/332
f 320/375/344 318/373/342 316/371/340
f 249/295/273 228/271/252 230/273/254
f 230/273/254 228/271/252 229/272/253
f 249/295/273 230/273/254 12/17/17
f 12/17/17 230/273/254 14/19/19
f 11/16/16 12/17/17 13/18/18
f 13/18/18 12/17/17 14/19/19
f 433/512/471 311/365/335 312/367/336
f 312/367/336 311/365/335 288/339/312
f 433/512/471 312/367/336 434/513/472
f 434/513/472 312/367/336 313/368/337
f 434/513/472 313/368/337 427/506/465
f 427/506/465 313/368/337 435/514/473
f 294/348/318 290/343/314 62/75/74
f 293/347/317 445/530/483 296/350/320
f 296/350/320 445/530/483 357/415/381
f 357/415/381 445/530/483 60/73/72
f 60/73/72 445/530/483 64/77/76
f 446/531/484 332/387/356 147/166/159
f 147/166/159 332/387/356 145/167/157
f 447/532/485 446/531/484 406/474/436
f 406/474/436 446/531/484 147/166/159
f 447/532/485 406/474/436 448/533/486
f 448/533/486 406/474/436 151/173/165
f 623/172/164 601/534/487 151/173/165
f 601/534/487 449/535/488 620/536/489
f 449/535/488 149/169/161 450/537/490
f 450/537/490 149/169/161 188/215/203
f 178/471/433 451/538/491 188/215/203
f 188/215/203 451/538/491 450/537/490
f 652/539/492 178/471/433 651/540/493
f 254/302/278 252/298/276 255/303/279
f 255/303/279 252/298/276 253/300/277
f 255/303/279 253/300/277 259/307/283
f 259/307/283 253/300/277 235/278/259
f 259/307/283 235/278/259 240/286/264
f 240/286/264 235/278/259 236/280/260
f 240/286/264 236/280/260 238/284/262
f 238/284/262 236/280/260 237/282/261
f 289/341/313 292/346/316 288/339/312
f 288/339/312 292/346/316 312/367/336
f 292/346/316 289/341/313 294/348/318
f 294/348/318 289/341/313 290/343/314
f 293/347/317 294/348/318 445/530/483
f 445/530/483 294/348/318 62/75/74
f 445/530/483 62/75/74 64/77/76
f 96/112/108 64/77/76 95/110/107
f 96/112/108 95/110/107 401/462/425
f 401/462/425 95/110/107 400/460/424
f 401/462/425 400/460/424 386/446/410
f 386/446/410 400/460/424 384/443/408
f 386/446/410 384/443/408 385/445/409
f 385/445/409 384/443/408 335/391/359
f 385/445/409 335/391/359 388/448/412
f 388/448/412 335/391/359 337/393/361
f 388/448/412 337/393/361 122/140/134
f 122/140/134 337/393/361 119/135/131
f 122/140/134 119/135/131 121/139/133
f 121/139/133 119/135/131 120/137/132
f 121/139/133 120/137/132 371/430/395
f 371/430/395 120/137/132 370/428/394
f 371/430/395 370/428/394 334/390/358
f 334/390/358 370/428/394 333/388/357
f 334/390/358 333/388/357 126/144/138
f 126/144/138 333/388/357 332/387/356
f 125/143/137 126/144/138 446/531/484
f 446/531/484 126/144/138 332/387/356
f 409/478/440 125/143/137 447/532/485
f 447/532/485 125/143/137 446/531/484
f 409/478/440 447/532/485 173/198/188
f 173/198/188 447/532/485 448/533/486
f 621/541/494 448/533/486 620/536/489
f 448/533/486 172/197/187 173/198/188
f 621/541/494 449/535/488 617/542/495
f 617/542/495 450/537/490 618/543/496
f 451/538/491 179/544/497 450/537/490
f 618/543/496 630/246/234 189/216/204
f 642/545/498 451/538/491 641/546/499
f 205/256/221 217/257/241 204/258/220
f 204/258/220 217/257/241 218/259/242
f 228/271/252 249/295/273 441/526/479
f 441/526/479 249/295/273 248/294/272
f 230/273/254 229/272/253 231/274/255
f 231/274/255 229/272/253 308/362/332
f 282/333/306 304/358/328 442/527/480
f 282/333/306 442/527/480 283/334/307
f 283/334/307 442/527/480 280/331/304
f 283/334/307 280/331/304 284/335/308
f 284/335/308 280/331/304 281/332/305
f 284/335/308 281/332/305 66/81/78
f 66/81/78 281/332/305 70/85/82
f 66/81/78 70/85/82 67/82/79
f 67/82/79 70/85/82 71/86/83
f 67/82/79 71/86/83 93/108/105
f 93/108/105 71/86/83 92/107/104
f 93/108/105 92/107/104 398/458/422
f 398/458/422 92/107/104 397/457/421
f 398/458/422 397/457/421 382/441/406
f 382/441/406 397/457/421 381/440/405
f 382/441/406 381/440/405 339/397/363
f 339/397/363 381/440/405 342/400/366
f 340/398/364 339/397/363 341/399/365
f 341/399/365 339/397/363 342/400/366
f 340/398/364 341/399/365 115/131/127
f 115/131/127 341/399/365 113/129/125
f 115/131/127 113/129/125 116/132/128
f 116/132/128 113/129/125 114/130/126
f 116/132/128 114/130/126 368/426/392
f 368/426/392 114/130/126 367/425/391
f 368/426/392 367/425/391 330/385/354
f 330/385/354 367/425/391 329/384/353
f 330/385/354 329/384/353 144/162/156
f 144/162/156 329/384/353 141/159/153
f 144/162/156 141/159/153 143/161/155
f 143/161/155 141/159/153 142/160/154
f 143/161/155 142/160/154 411/483/444
f 411/483/444 142/160/154 415/491/450
f 153/178/168 411/483/444 155/180/170
f 155/180/170 411/483/444 415/491/450
f 152/177/167 153/178/168 154/179/169
f 154/179/169 153/178/168 155/180/170
f 152/177/167 154/179/169 184/209/198
f 184/209/198 154/179/169 213/241/229
f 182/547/500 184/209/198 407/548/501
f 407/548/501 184/209/198 213/241/229
f 588/549/502 407/548/501 590/550/503
f 190/217/205 192/551/504 5/9/9
f 5/9/9 192/551/504 6/493/452
f 627/552/505 622/553/506 193/220/208
f 190/217/205 625/554/507 622/553/506
f 605/249/237 614/555/508 191/218/206
f 181/556/509 625/554/507 614/555/508
f 645/557/510 180/248/236 644/558/511
f 650/559/512 174/560/513 649/561/514
f 600/245/233 602/562/515 176/563/192
f 602/562/515 183/564/516 615/565/517
f 184/209/198 182/547/500 186/211/200
f 186/211/200 182/547/500 183/564/516
f 407/548/501 213/241/229 408/476/438
f 408/476/438 213/241/229 212/240/228
f 408/476/438 212/240/228 410/481/442
f 410/481/442 212/240/228 211/239/227
f 570/566/518 210/238/226 599/567/519
f 599/567/519 210/238/226 594/568/520
f 594/568/520 1/200/190 589/199/189
s 2
f 452/569/521 453/570/522 454/571/523
f 454/571/523 453/570/522 455/572/524
f 456/573/525 454/571/523 457/574/526
f 457/574/526 454/571/523 455/572/524
f 458/575/527 456/573/525 459/576/528
f 459/576/528 456/573/525 457/574/526
f 460/577/529 461/578/530 462/579/531
f 462/579/531 461/578/530 463/580/532
f 464/581/533 465/582/534 466/583/535
f 466/583/535 465/582/534 467/584/536
f 468/585/537 469/586/538 470/587/539
f 470/587/539 469/586/538 471/588/540
f 472/589/541 470/587/539 471/588/540
f 473/590/542 474/591/543 475/592/544
f 476/593/545 477/594/546 478/595/547
f 478/595/547 477/594/546 479/596/548
f 478/595/547 480/597/549 476/593/545
f 476/593/545 480/597/549 467/584/536
f 480/597/549 466/583/535 467/584/536
f 481/598/550 471/588/540 469/586/538
f 466/583/535 453/570/522 464/581/533
f 464/581/533 453/570/522 452/569/521
f 467/584/536 465/582/534 474/591/543
f 474/591/543 465/582/534 475/592/544
f 482/599/551 483/600/552 484/601/553
f 484/601/553 483/600/552 485/602/554
f 486/603/555 482/599/551 487/604/556
f 487/604/556 482/599/551 484/601/553
f 488/605/557 486/603/555 489/606/558
f 489/606/558 486/603/555 487/604/556
f 490/607/559 488/605/557 491/608/560
f 491/608/560 488/605/557 489/606/558
f 492/609/561 490/610/559 493/611/562
f 493/611/562 490/610/559 491/612/560
f 494/613/563 492/609/561 495/614/564
f 495/614/564 492/609/561 493/611/562
f 496/615/565 494/613/563 497/616/566
f 497/616/566 494/613/563 495/614/564
f 497/616/566 498/617/567 496/615/565
f 496/615/565 498/617/567 499/618/568
f 500/619/569 456/573/525 501/620/570
f 501/620/570 456/573/525 458/575/527
f 452/569/521 454/571/523 502/621/571
f 502/621/571 454/571/523 503/622/572
f 452/569/521 502/621/571 464/581/533
f 464/581/533 502/621/571 504/623/573
f 465/582/534 464/581/533 504/623/573
f 457/574/526 505/624/574 459/576/528
f 459/576/528 505/624/574 506/625/575
f 507/626/576 466/583/535 468/585/537
f 468/585/537 466/583/535 469/586/538
f 484/627/553 485/628/554 508/629/577
f 508/629/577 485/628/554 509/630/578
f 498/631/567 497/632/566 510/633/579
f 510/633/579 497/632/566 511/634/580
f 512/635/581 513/636/582 514/637/583
f 514/637/583 513/636/582 515/638/584
f 512/635/581 508/639/577 513/636/582
f 513/636/582 508/639/577 511/640/580
f 516/641/585 517/642/586 518/643/587
f 518/643/587 517/642/586 519/644/588
f 483/600/552 520/645/589 521/646/590
f 521/646/590 520/645/589 522/647/591
f 523/648/592 521/646/590 524/649/593
f 524/649/593 521/646/590 522/647/591
f 525/650/594 523/648/592 526/651/595
f 526/651/595 523/648/592 524/649/593
f 527/652/596 525/650/594 528/653/597
f 528/653/597 525/650/594 526/651/595
f 470/587/539 527/652/596 468/585/537
f 468/585/537 527/652/596 528/653/597
f 481/598/550 469/586/538 478/595/547
f 478/595/547 469/586/538 480/597/549
f 529/654/598 504/623/573 530/655/599
f 530/655/599 504/623/573 502/621/571
f 531/656/600 532/657/601 530/655/599
f 530/655/599 532/657/601 529/654/598
f 532/658/601 531/659/600 533/660/602
f 533/660/602 531/659/600 534/661/603
f 535/662/604 536/663/605 534/664/603
f 534/664/603 536/663/605 533/665/602
f 537/666/606 538/667/607 535/668/604
f 535/668/604 538/667/607 536/669/605
f 527/652/596 538/670/607 525/650/594
f 525/650/594 538/670/607 537/671/606
f 539/672/608 507/626/576 526/651/595
f 526/651/595 507/626/576 528/653/597
f 466/583/535 507/626/576 453/570/522
f 453/570/522 507/626/576 539/672/608
f 519/644/588 517/642/586 540/673/609
f 541/674/610 531/656/600 542/675/611
f 542/675/611 531/656/600 530/655/599
f 543/676/612 541/674/610 544/677/613
f 544/677/613 541/674/610 542/675/611
f 498/617/567 543/676/612 499/618/568
f 499/618/568 543/676/612 544/677/613
f 532/657/601 473/590/542 529/654/598
f 529/654/598 473/590/542 475/592/544
f 542/675/611 503/622/572 544/677/613
f 544/677/613 503/622/572 500/619/569
f 541/678/610 543/679/612 462/680/531
f 462/680/531 543/679/612 460/681/529
f 545/682/614 546/683/615 461/684/530
f 461/684/530 546/683/615 463/685/532
f 521/646/590 523/648/592 545/686/614
f 545/686/614 523/648/592 546/687/615
f 547/688/616 524/649/593 505/624/574
f 505/624/574 524/649/593 522/647/591
f 455/572/524 547/688/616 457/574/526
f 457/574/526 547/688/616 505/624/574
f 503/622/572 454/571/523 500/619/569
f 500/619/569 454/571/523 456/573/525
f 548/689/617 500/619/569 549/690/618
f 549/690/618 500/619/569 501/620/570
f 522/647/591 520/645/589 550/691/619
f 550/691/619 520/645/589 551/692/620
f 505/624/574 522/647/591 506/625/575
f 506/625/575 522/647/591 550/691/619
f 552/693/621 553/694/622 554/695/623
f 554/695/623 553/694/622 555/696/624
f 553/694/622 556/697/625 555/696/624
f 555/696/624 556/697/625 557/698/626
f 556/697/625 558/699/627 557/698/626
f 557/698/626 558/699/627 559/700/628
f 558/701/627 560/702/629 559/703/628
f 559/703/628 560/702/629 561/704/630
f 560/702/629 562/705/631 561/704/630
f 561/704/630 562/705/631 563/706/632
f 562/705/631 564/707/633 563/706/632
f 563/706/632 564/707/633 565/708/634
f 564/707/633 548/689/617 565/708/634
f 565/708/634 548/689/617 549/690/618
f 520/645/589 552/693/621 551/692/620
f 551/692/620 552/693/621 554/695/623
f 544/677/613 500/619/569 499/618/568
f 499/618/568 500/619/569 548/689/617
f 483/600/552 521/646/590 485/602/554
f 485/602/554 521/646/590 545/686/614
f 485/628/554 545/682/614 509/630/578
f 509/630/578 545/682/614 461/684/530
f 509/709/578 461/578/530 510/710/579
f 510/710/579 461/578/530 460/577/529
f 543/679/612 498/631/567 460/681/529
f 460/681/529 498/631/567 510/633/579
f 553/694/622 552/693/621 486/603/555
f 486/603/555 552/693/621 482/599/551
f 564/707/633 562/705/631 496/615/565
f 496/615/565 562/705/631 494/613/563
f 514/637/583 515/638/584 566/711/635
f 481/598/550 478/595/547 567/712/636
f 567/712/636 478/595/547 479/596/548
f 567/713/636 479/714/548 517/715/586
f 517/715/586 479/714/548 540/716/609
f 491/717/560 489/718/558 566/719/635
f 566/719/635 489/718/558 514/720/583
f 558/699/627 556/697/625 490/607/559
f 490/607/559 556/697/625 488/605/557
f 474/591/543 476/593/545 467/584/536
f 477/721/546 473/722/542 519/723/588
f 519/723/588 473/722/542 518/724/587
f 495/725/564 493/726/562 513/727/582
f 513/727/582 493/726/562 515/728/584
f 562/705/631 560/702/629 494/613/563
f 494/613/563 560/702/629 492/609/561
f 548/689/617 564/707/633 499/618/568
f 499/618/568 564/707/633 496/615/565
f 497/632/566 495/725/564 511/634/580
f 511/634/580 495/725/564 513/727/582
f 509/709/578 510/710/579 508/639/577
f 508/639/577 510/710/579 511/640/580
f 487/729/556 484/627/553 512/730/581
f 512/730/581 484/627/553 508/629/577
f 482/599/551 552/693/621 483/600/552
f 483/600/552 552/693/621 520/645/589
f 477/594/546 476/593/545 473/590/542
f 473/590/542 476/593/545 474/591/543
f 529/654/598 475/592/544 504/623/573
f 504/623/573 475/592/544 465/582/534
f 530/655/599 502/621/571 542/675/611
f 542/675/611 502/621/571 503/622/572
f 560/702/629 558/701/627 492/609/561
f 492/609/561 558/701/627 490/610/559
f 556/697/625 553/694/622 488/605/557
f 488/605/557 553/694/622 486/603/555
f 523/648/592 525/650/594 546/687/615
f 546/687/615 525/650/594 537/671/606
f 527/652/596 470/587/539 538/670/607
f 538/670/607 470/587/539 472/589/541
f 472/589/541 471/588/540 567/712/636
f 567/712/636 471/588/540 481/598/550
f 531/659/600 541/678/610 534/661/603
f 534/661/603 541/678/610 462/680/531
f 535/662/604 534/664/603 463/580/532
f 463/580/532 534/664/603 462/579/531
f 546/683/615 537/666/606 463/685/532
f 463/685/532 537/666/606 535/668/604
f 526/651/595 524/649/593 539/672/608
f 539/672/608 524/649/593 547/688/616
f 455/572/524 453/570/522 547/688/616
f 547/688/616 453/570/522 539/672/608
f 479/714/548 477/721/546 540/716/609
f 540/716/609 477/721/546 519/723/588
f 493/726/562 491/731/560 515/728/584
f 515/728/584 491/731/560 566/732/635
f 466/583/535 480/597/549 469/586/538
f 538/667/607 472/733/541 536/669/605
f 536/669/605 472/733/541 516/734/585
f 473/722/542 532/658/601 518/724/587
f 518/724/587 532/658/601 533/660/602
f 516/641/585 518/643/587 536/663/605
f 536/663/605 518/643/587 533/665/602
f 489/718/558 487/729/556 514/720/583
f 514/720/583 487/729/556 512/730/581
f 507/626/576 468/585/537 528/653/597
f 472/733/541 567/713/636 516/734/585
f 516/734/585 567/713/636 517/715/586
s 1
f 3/5/5 593/735/637 2/2/2
f 407/548/501 591/475/437 590/550/503
f 192/551/504 587/736/638 6/493/452
f 6/493/452 587/736/638 586/495/454
f 182/547/500 583/737/639 183/564/516
f 182/547/500 588/549/502 582/738/640
f 2/2/2 593/735/637 580/3/3
f 183/564/516 583/737/639 579/739/641
f 615/565/517 584/740/642 174/741/513
f 181/556/509 592/742/643 193/220/208
f 174/741/513 584/740/642 577/743/644
f 410/481/442 598/744/645 576/482/443
f 408/476/438 575/480/441 574/477/439
f 4/7/7 572/11/11 571/8/8
f 211/239/227 598/744/645 410/481/442
f 193/220/208 592/742/643 569/221/209
f 627/552/505 568/219/207 634/745/646
f 185/210/199 629/243/231 628/242/230
f 192/551/504 634/745/646 597/746/647
f 406/474/436 626/171/163 151/173/165
f 185/210/199 628/242/230 624/212/201
f 149/169/161 626/171/163 150/170/162
f 192/551/504 622/553/506 627/552/505
f 193/220/208 622/553/506 625/554/507
f 449/535/488 621/541/494 620/536/489
f 631/466/429 47/52/52 49/54/54
f 179/544/497 618/543/496 450/537/490
f 172/197/187 617/542/495 189/216/204
f 189/216/204 617/542/495 618/543/496
f 579/739/641 615/565/517 183/564/516
f 191/218/206 614/555/508 625/554/507
f 47/52/52 613/469/432 146/164/158
f 405/489/430 616/488/449 613/490/432
f 53/62/62 624/212/201 612/64/64
f 611/63/63 56/66/66 55/65/65
f 610/58/58 55/65/65 54/59/59
f 49/54/54 609/484/445 631/466/429
f 150/170/162 608/472/434 405/489/430
f 147/166/159 608/472/434 406/474/436
f 609/484/445 150/175/162 405/467/430
f 52/57/57 606/61/61 607/174/166
f 180/248/236 614/555/508 605/249/237
f 179/544/497 604/247/235 630/246/234
f 604/247/235 191/218/206 189/216/204
f 610/58/58 51/56/56 53/62/62
f 603/60/60 52/57/57 51/56/56
f 602/562/515 174/741/513 176/563/192
f 149/169/161 601/534/487 623/172/164
f 601/534/487 448/533/486 151/173/165
f 629/243/231 176/563/192 175/244/232
f 186/211/200 602/562/515 600/245/233
f 174/560/513 657/747/648 649/561/514
f 181/556/509 656/748/649 578/749/650
f 178/471/433 647/750/651 651/540/493
f 177/470/195 647/750/651 178/471/433
f 181/556/509 645/557/510 648/751/652
f 179/544/497 642/545/498 655/752/653
f 451/538/491 652/539/492 641/546/499
f 179/544/497 640/753/654 180/248/236
f 180/248/236 640/753/654 644/558/511
f 175/754/232 639/755/655 58/70/68
f 176/202/192 650/559/512 638/203/193
f 175/754/232 637/201/191 654/756/656
f 58/70/68 639/755/655 636/71/70
f 57/207/67 635/69/69 653/208/197
f 581/1/1 1/200/190 2/2/2
f 596/6/6 3/5/5 4/7/7
f 5/9/9 6/493/452 573/10/10
f 54/59/59 150/175/162 607/174/166
f 643/206/196 177/205/195 57/207/67
f 175/244/232 56/66/66 624/212/201
f 616/488/449 147/166/159 146/165/158
f 621/541/494 172/197/187 448/533/486
f 617/542/495 449/535/488 450/537/490
f 190/217/205 191/218/206 625/554/507
f 181/556/509 193/220/208 625/554/507
f 570/566/518 211/239/227 210/238/226
f 594/568/520 210/238/226 1/200/190
f 3/5/5 595/4/4 593/735/637
f 407/548/501 408/476/438 591/475/437
f 192/551/504 597/746/647 587/736/638
f 182/547/500 582/738/640 583/737/639
f 182/547/500 407/548/501 588/549/502
f 615/565/517 633/757/657 584/740/642
f 181/556/509 578/749/650 592/742/643
f 408/476/438 410/481/442 575/480/441
f 4/7/7 5/9/9 572/11/11
f 211/239/227 570/566/518 598/744/645
f 627/552/505 193/220/208 568/219/207
f 185/210/199 186/211/200 629/243/231
f 192/551/504 627/552/505 634/745/646
f 406/474/436 632/473/435 626/171/163
f 149/169/161 623/172/164 626/171/163
f 192/551/504 190/217/205 622/553/506
f 631/466/429 619/468/431 47/52/52
f 179/544/497 630/246/234 618/543/496
f 172/197/187 621/541/494 617/542/495
f 579/739/641 633/757/657 615/565/517
f 47/52/52 619/468/431 613/469/432
f 53/62/62 185/210/199 624/212/201
f 611/63/63 612/64/64 56/66/66
f 610/58/58 611/63/63 55/65/65
f 49/54/54 52/57/57 609/484/445
f 150/170/162 632/473/435 608/472/434
f 147/166/159 616/488/449 608/472/434
f 609/484/445 607/174/166 150/175/162
f 180/248/236 181/556/509 614/555/508
f 179/544/497 180/248/236 604/247/235
f 604/247/235 605/249/237 191/218/206
f 610/58/58 603/60/60 51/56/56
f 603/60/60 606/61/61 52/57/57
f 602/562/515 615/565/517 174/741/513
f 149/169/161 449/535/488 601/534/487
f 601/534/487 620/536/489 448/533/486
f 629/243/231 600/245/233 176/563/192
f 186/211/200 183/564/516 602/562/515
f 174/560/513 577/758/644 657/747/648
f 181/556/509 648/751/652 656/748/649
f 177/470/195 646/759/194 647/750/651
f 181/556/509 180/248/236 645/557/510
f 179/544/497 451/538/491 642/545/498
f 451/538/491 178/471/433 652/539/492
f 179/544/497 655/752/653 640/753/654
f 175/754/232 654/756/656 639/755/655
f 176/202/192 174/560/513 650/559/512
f 175/754/232 176/202/192 637/201/191
f 57/207/67 58/70/68 635/69/69
