# Blender 5.0.1
# www.blender.org
mtllib izquierdaP.mtl
g izquierdaP_Malla
v 0.153012 -1.496968 0.194481
v 0.156378 -1.529906 0.254240
v 0.202589 -1.494907 0.195947
v 0.116692 -1.550955 0.246390
v 0.110391 -1.514035 0.183300
v 0.086768 -1.662031 0.233878
v 0.096960 -1.662152 0.176484
v 0.305046 -1.661966 0.243356
v 0.300776 -1.661946 0.183628
v 0.226202 -1.568209 0.392538
v 0.250124 -1.569976 0.368560
v 0.195855 -1.555246 0.355220
v 0.238060 -1.563467 0.346975
v 0.136625 -1.577644 0.396086
v 0.163970 -1.565265 0.388190
v 0.125419 -1.579776 0.377423
v 0.141402 -1.564166 0.368779
v 0.118321 -1.601265 0.382215
v 0.269092 -1.585302 0.376575
v 0.257164 -1.581771 0.397718
v 0.274361 -1.598858 0.382858
v 0.192731 -1.593476 0.450928
v 0.243856 -1.594956 0.433759
v 0.196244 -1.572718 0.426705
v 0.235933 -1.576540 0.417976
v 0.196359 -1.564420 0.394292
v 0.157034 -1.573005 0.416152
v 0.199559 -1.430682 0.141234
v 0.240032 -1.451653 0.123101
v 0.243802 -1.495292 0.189582
v 0.243563 -1.534268 0.256257
v 0.202692 -1.526978 0.256676
v 0.196756 -1.543400 0.308896
v 0.240246 -1.549668 0.308101
v 0.112647 -1.597334 0.108055
v 0.104401 -1.575974 0.106778
v 0.110628 -1.597256 0.018730
v 0.101030 -1.573852 0.014671
v 0.094948 -1.591208 -0.078217
v 0.092124 -1.571136 -0.079296
v 0.123042 -1.590637 -0.145017
v 0.122587 -1.567048 -0.142005
v 0.187283 -1.588365 -0.159152
v 0.187245 -1.564412 -0.157754
v 0.242147 -1.588747 -0.127126
v 0.243424 -1.565445 -0.127984
v 0.269562 -1.590721 -0.073878
v 0.269539 -1.567980 -0.074045
v 0.283157 -1.594077 0.010800
v 0.281043 -1.572422 0.008448
v 0.282547 -1.576007 0.104971
v 0.285158 -1.595751 0.111526
v 0.251169 -1.463971 0.093578
v 0.274916 -1.523788 0.161437
v 0.271925 -1.557154 0.248720
v 0.266513 -1.569957 0.301853
v 0.258640 -1.570136 0.345664
v 0.153799 -1.559663 0.346021
v 0.120858 -1.662038 0.107179
v 0.114609 -1.662069 0.011907
v 0.270330 -1.662083 0.016831
v 0.278788 -1.662071 0.108733
v 0.235481 -1.662071 -0.129314
v 0.262670 -1.662084 -0.078442
v 0.125112 -1.662188 -0.144457
v 0.103572 -1.662020 -0.078356
v 0.240592 -1.652236 0.439561
v 0.146390 -1.649393 0.436970
v 0.274427 -1.657304 0.394080
v 0.112186 -1.656688 0.387764
v 0.112144 -1.527810 0.100701
v 0.094907 -1.583961 0.176456
v 0.097088 -1.585997 0.237433
v 0.126116 -1.561632 0.300610
v 0.102982 -1.586979 0.295094
v 0.129742 -1.564163 0.344410
v 0.110363 -1.584044 0.343090
v 0.280570 -1.583482 0.300101
v 0.275811 -1.583636 0.342392
v 0.288003 -1.600732 0.342219
v 0.292533 -1.598343 0.302603
v 0.302115 -1.661969 0.301580
v 0.290233 -1.661969 0.348103
v 0.098690 -1.662047 0.341431
v 0.090871 -1.661973 0.292684
v 0.102329 -1.603486 0.338831
v 0.096271 -1.602773 0.292843
v 0.157914 -1.550808 0.303882
v 0.196279 -1.648553 0.453622
v 0.284112 -1.579799 0.241677
v 0.297461 -1.596260 0.241620
v 0.289963 -1.577874 0.178478
v 0.296930 -1.596465 0.180149
v 0.091845 -1.601093 0.236430
v 0.092012 -1.599252 0.181139
v 0.149767 -1.439417 0.132111
v 0.254052 -1.469799 0.070953
v 0.270458 -1.527039 0.092525
v 0.113997 -1.472363 0.087317
v 0.119486 -1.459276 0.118088
v 0.112245 -1.484132 -0.065671
v 0.103882 -1.524518 -0.079318
v 0.113027 -1.486100 0.011186
v 0.103479 -1.527737 0.009988
v 0.126330 -1.458259 -0.119290
v 0.124142 -1.519477 -0.138968
v 0.192644 -1.457135 -0.131210
v 0.188136 -1.519547 -0.154185
v 0.230921 -1.476167 -0.099689
v 0.238369 -1.523617 -0.123598
v 0.243910 -1.484217 -0.061648
v 0.259509 -1.528466 -0.070591
v 0.253745 -1.484973 0.007435
v 0.266956 -1.530134 0.008435
v 0.189427 -1.662155 -0.155027
v 0.146577 -1.596338 0.432671
v -0.156958 -0.060873 -0.041440
v -0.157170 -0.039113 -0.103347
v -0.143207 -0.063010 -0.039879
v -0.136267 -0.044533 -0.102550
v -0.133465 -0.072467 -0.042320
v -0.112791 -0.050280 -0.105387
v -0.106742 -0.092208 -0.093060
v -0.127907 -0.099990 -0.038814
v -0.103103 -0.119149 -0.083862
v -0.124035 -0.121246 -0.039206
v -0.114019 -0.162833 -0.038564
v -0.091967 -0.161302 -0.079021
v -0.106384 -0.203569 -0.036946
v -0.083831 -0.201095 -0.074840
v -0.090446 -0.291180 -0.033288
v -0.068202 -0.288717 -0.075962
v -0.072578 -0.409530 -0.042299
v -0.052087 -0.406533 -0.086856
v -0.059479 -0.484448 -0.051444
v -0.031430 -0.483548 -0.088934
v -0.041239 -0.539442 -0.054960
v -0.024780 -0.540739 -0.084944
v -0.037007 -0.631014 -0.049198
v -0.019535 -0.627982 -0.086713
v -0.044199 -0.685655 -0.045454
v -0.013598 -0.677980 -0.088602
v -0.034962 -0.732592 -0.042106
v -0.020047 -0.728716 -0.099145
v -0.027971 -0.821319 -0.053780
v -0.002471 -0.818826 -0.102832
v -0.030509 -0.905241 -0.062839
v -0.002170 -0.900100 -0.107578
v -0.025393 -0.984898 -0.062678
v 0.003722 -0.968295 -0.120367
v -0.017522 -1.076875 -0.052411
v -0.000169 -1.063388 -0.115061
v 0.000712 -1.149009 -0.041271
v -0.002888 -1.135386 -0.106646
v 0.009425 -1.228166 -0.041544
v 0.002253 -1.216476 -0.104839
v 0.029509 -1.300506 -0.038988
v 0.036190 -1.297851 -0.092531
v 0.021634 -1.368249 -0.046804
v 0.042079 -1.364701 -0.093997
v 0.048189 -1.432835 -0.044666
v 0.040559 -1.410971 -0.043059
v 0.049014 -1.426684 -0.088578
v 0.059146 -1.394331 -0.080616
v 0.043497 -1.466027 -0.039322
v 0.049702 -1.472869 -0.082297
v 0.063784 -1.501059 -0.034443
v 0.067643 -1.515760 -0.080834
v 0.065771 -1.521101 -0.035320
v 0.068194 -1.535020 -0.084644
v 0.072411 -1.578812 -0.031960
v 0.069896 -1.585439 -0.076656
v 0.123672 -1.086589 0.130261
v 0.103868 -1.019084 0.130345
v 0.073330 -1.034837 0.100291
v 0.041641 -1.047357 0.065728
v -0.002121 -1.055920 0.022245
v 0.038937 -1.105652 0.070106
v 0.007798 -1.121505 0.025562
v 0.042572 -1.049262 -0.162724
v 0.040977 -1.124276 -0.157903
v 0.143933 -1.035640 -0.191951
v 0.147590 -1.108938 -0.193732
v 0.092300 -1.042940 -0.186852
v 0.094166 -1.116393 -0.182680
v 0.219562 -1.031582 -0.158783
v 0.226502 -1.103559 -0.150084
v 0.263064 -1.027240 -0.095753
v 0.271241 -1.101835 -0.091182
v 0.248167 -1.034688 -0.013176
v 0.248425 -1.109819 -0.009874
v 0.224278 -1.026592 0.038861
v 0.231504 -1.097497 0.031844
v 0.202451 -1.022613 0.077186
v 0.210302 -1.100375 0.083554
v 0.169097 -1.019506 0.122734
v 0.182389 -1.088454 0.120809
v 0.139508 -0.810317 0.155307
v 0.086240 -0.816361 0.157806
v 0.143643 -0.876432 0.137774
v 0.190166 -0.802305 0.092386
v 0.198116 -0.874166 0.102992
v 0.225616 -0.799215 0.054155
v 0.225452 -0.873287 0.051539
v 0.237353 -0.797928 -0.007620
v 0.247934 -0.876056 -0.012302
v 0.243622 -0.793436 -0.077945
v 0.253989 -0.870967 -0.097032
v 0.191743 -0.799628 -0.151127
v 0.203132 -0.875423 -0.160805
v 0.129316 -0.806510 -0.177127
v 0.137353 -0.879649 -0.189487
v 0.083721 -0.810727 -0.174947
v 0.090350 -0.885363 -0.184436
v 0.040051 -0.814483 -0.156099
v 0.047624 -0.890341 -0.158734
v -0.025712 -0.826383 0.031067
v -0.018461 -0.908548 0.031715
v 0.007174 -0.819674 0.090934
v 0.019394 -0.893682 0.085262
v 0.081401 -0.883903 0.147476
v -0.062814 -0.487216 0.110662
v -0.076100 -0.486829 0.046647
v -0.043345 -0.547614 0.101283
v -0.060746 -0.547463 0.043725
v 0.005215 -0.477261 -0.115279
v 0.019428 -0.537414 -0.110973
v 0.104150 -0.464156 -0.140185
v 0.105622 -0.536007 -0.133683
v 0.052199 -0.475602 -0.134688
v 0.061568 -0.533990 -0.128762
v 0.162171 -0.468083 -0.107610
v 0.165350 -0.525889 -0.103175
v 0.193864 -0.468124 -0.057037
v 0.190554 -0.524825 -0.044802
v 0.214890 -0.459096 0.004718
v 0.202995 -0.513010 0.006161
v 0.221242 -0.461321 0.080884
v 0.208870 -0.518277 0.070545
v 0.187425 -0.464892 0.158623
v 0.185766 -0.529432 0.150585
v 0.136219 -0.474753 0.223813
v 0.139856 -0.534099 0.217640
v 0.054090 -0.543927 0.213681
v 0.046790 -0.482502 0.217021
v -0.013381 -0.540843 0.155517
v -0.028727 -0.488641 0.167378
v 0.003301 -0.093545 0.236813
v 0.008808 -0.140863 0.228745
v 0.101577 -0.075600 0.250340
v 0.105815 -0.122375 0.245650
v 0.178906 -0.069010 0.200665
v 0.180161 -0.116859 0.197893
v 0.233629 -0.114311 0.115186
v 0.232525 -0.065102 0.114627
v 0.237762 -0.112765 0.005499
v 0.240490 -0.066374 0.006943
v 0.203007 -0.068920 -0.079778
v 0.199738 -0.115211 -0.075184
v 0.135273 -0.070509 -0.137839
v 0.144783 -0.118408 -0.136962
v 0.047615 -0.084368 -0.168529
v 0.055012 -0.130959 -0.162345
v -0.014374 -0.101068 -0.160106
v -0.007446 -0.144659 -0.154621
v -0.059399 -0.155589 -0.121365
v -0.067928 -0.113114 -0.129196
v -0.137071 -0.120060 0.068299
v -0.135923 -0.162116 0.062430
v -0.117741 -0.161625 0.118293
v -0.129211 -0.123589 0.131342
v -0.064277 -0.152689 0.187391
v -0.074460 -0.109479 0.201927
v -0.137390 -0.112328 0.072585
v -0.133691 -0.104914 0.140065
v -0.071124 -0.071121 -0.146408
v -0.019870 -0.055035 -0.179064
v 0.040392 -0.029947 -0.175668
v 0.123803 -0.022630 -0.149811
v 0.195469 -0.023234 -0.083685
v 0.239912 -0.021472 0.008455
v 0.225879 -0.022036 0.120826
v 0.177875 -0.024371 0.201842
v 0.098343 -0.032644 0.253469
v -0.001577 -0.053742 0.244486
v -0.081743 -0.074624 0.214607
v -0.155211 0.124486 -0.222413
v -0.120504 0.121677 -0.222052
v -0.149926 -0.000254 -0.184361
v -0.152891 0.048991 -0.216679
v -0.116506 -0.006275 -0.177014
v -0.119384 0.044519 -0.214773
v -0.142688 -0.089916 0.080260
v -0.155962 -0.077347 0.080419
v -0.157540 -0.069974 0.145985
v -0.136471 -0.078794 0.146561
v -0.147521 -0.042720 0.240908
v -0.136552 -0.040540 0.246391
v -0.155707 0.017171 0.275823
v -0.131773 0.016827 0.275395
v -0.155168 0.092665 0.285830
v -0.128945 0.091707 0.285328
v 0.259104 -1.574014 -0.155628
v 0.302150 -1.568947 -0.074858
v 0.194482 -1.450037 0.051148
v 0.208006 -1.590831 -0.185536
v 0.154344 -1.593654 -0.171116
v 0.100719 -1.590758 -0.130925
v 0.069462 -1.565570 0.040353
v 0.086986 -1.540240 0.117671
v 0.122959 -1.516649 0.197353
v 0.179141 -1.494794 0.236183
v 0.264840 -1.503428 0.215527
v 0.293309 -1.528286 0.132556
v 0.301275 -1.553807 0.016399
v 0.089530 -1.548570 0.085439
v -0.078093 -0.008191 -0.178822
v -0.076561 0.039839 -0.212108
v -0.026834 0.012171 -0.200401
v -0.027088 0.058910 -0.215745
v 0.030147 0.039394 -0.195589
v 0.025627 0.077776 -0.206872
v 0.115655 0.040174 -0.157014
v 0.106274 0.078748 -0.168013
v 0.194560 0.043007 -0.093875
v 0.184327 0.080688 -0.096125
v 0.239271 0.041712 0.010681
v 0.231068 0.086136 0.013481
v 0.223818 0.037108 0.122817
v 0.212420 0.082632 0.117526
v 0.168496 0.071907 0.201099
v 0.175023 0.033657 0.200965
v 0.092617 0.023247 0.256857
v 0.088324 0.062803 0.256096
v -0.007084 -0.001379 0.257314
v -0.014158 0.039364 0.263289
v -0.092488 0.018609 0.265803
v -0.093231 -0.036592 0.248050
v 0.263903 -1.445281 -0.137902
v 0.212016 -1.459183 -0.177939
v 0.267092 -1.405012 -0.130848
v 0.209441 -1.415836 -0.164340
v 0.160812 -1.436652 -0.164154
v 0.159194 -1.407148 -0.169441
v 0.087207 -1.433662 -0.132274
v 0.080358 -1.476911 -0.136080
v 0.056789 -1.425439 0.024736
v 0.056629 -1.456263 0.031152
v 0.077766 -1.402299 0.076299
v 0.077484 -1.445913 0.073899
v 0.127704 -1.390098 0.159717
v 0.091398 -1.395891 0.101591
v 0.120663 -1.447191 0.171001
v 0.097046 -1.441414 0.109863
v 0.186900 -1.391098 0.189890
v 0.184176 -1.432793 0.200843
v 0.245667 -1.397650 0.156863
v 0.238451 -1.432177 0.168070
v 0.256714 -1.371606 0.157558
v 0.185681 -1.358696 0.167307
v 0.274232 -1.428060 0.110544
v 0.274947 -1.453975 0.120801
v 0.286455 -1.382645 0.095141
v 0.298106 -1.444397 0.017295
v 0.298319 -1.387399 0.011597
v 0.256453 -1.538603 -0.156921
v 0.259563 -1.503209 -0.145670
v 0.301100 -1.529171 -0.074070
v 0.292963 -1.500835 -0.069204
v 0.290000 -1.453709 -0.078073
v 0.259854 -1.467534 -0.145347
v 0.205059 -1.547141 -0.188497
v 0.201241 -1.518091 -0.190437
v 0.203221 -1.477480 -0.180209
v 0.138785 -1.516874 -0.176068
v 0.145606 -1.479872 -0.173832
v 0.080210 -1.512584 -0.130179
v 0.069781 -1.478866 0.036019
v 0.072525 -1.502626 0.037775
v 0.074235 -1.490660 0.083343
v 0.110706 -1.474572 0.182869
v 0.081174 -1.485702 0.116487
v 0.179497 -1.458992 0.230707
v 0.255302 -1.463318 0.209399
v 0.283869 -1.474998 0.130763
v 0.294289 -1.498138 0.020540
v 0.285171 -1.474931 0.021255
v 0.249355 -1.296078 -0.115908
v 0.225952 -1.204895 -0.136428
v 0.274271 -1.276727 -0.073505
v 0.268336 -1.195089 -0.085575
v 0.156585 -1.201809 -0.181526
v 0.190442 -1.296910 -0.161197
v 0.101742 -1.204608 -0.176907
v 0.134908 -1.292227 -0.175044
v 0.069305 -1.293092 -0.162664
v 0.048346 -1.208749 -0.155187
v 0.024773 -1.196312 0.022248
v 0.040256 -1.270999 0.025478
v 0.051884 -1.181587 0.071865
v 0.065469 -1.256376 0.073211
v 0.120959 -1.155902 0.118128
v 0.069841 -1.173782 0.107000
v 0.122348 -1.226340 0.135061
v 0.080414 -1.244390 0.101020
v 0.068457 -1.098955 0.097862
v 0.172336 -1.154851 0.110881
v 0.200816 -1.235572 0.128095
v 0.228627 -1.182080 0.070907
v 0.246672 -1.256673 0.106324
v 0.252594 -1.192683 0.053074
v 0.256788 -1.258409 0.057797
v 0.282054 -1.201626 -0.017528
v 0.278473 -1.265556 -0.008536
v 0.255507 -1.342219 -0.134185
v 0.188710 -1.341839 -0.173099
v 0.135683 -1.343885 -0.160427
v 0.087438 -1.391013 -0.138121
v 0.037293 -1.335024 0.032699
v 0.062933 -1.321529 0.077649
v 0.139565 -1.312716 0.143937
v 0.135833 -1.288311 0.139334
v 0.079424 -1.310569 0.102038
v 0.192326 -1.312321 0.164927
v 0.196491 -1.288260 0.143617
v 0.249585 -1.321671 0.121515
v 0.256256 -1.343746 0.067847
v 0.248736 -1.284612 0.059863
v 0.268915 -1.345605 0.001163
v 0.260415 -1.305663 -0.005825
v 0.274853 -1.340651 -0.069022
v 0.108827 -0.165191 0.240443
v 0.013062 -0.182871 0.225871
v 0.110883 -0.263239 0.234173
v 0.021735 -0.274495 0.227361
v 0.180901 -0.160079 0.195168
v 0.181551 -0.255960 0.190532
v 0.230982 -0.156101 0.111552
v 0.223789 -0.253028 0.103253
v 0.232739 -0.153285 0.006029
v 0.229931 -0.246265 0.007845
v 0.195254 -0.156203 -0.068399
v 0.201076 -0.249128 -0.059643
v 0.148922 -0.161392 -0.130318
v 0.154331 -0.252487 -0.115687
v 0.062029 -0.172455 -0.156237
v 0.077756 -0.263974 -0.144263
v -0.002260 -0.185441 -0.149000
v 0.014242 -0.271977 -0.143409
v -0.052029 -0.195045 -0.118067
v -0.035426 -0.283702 -0.117136
v -0.136217 -0.209067 0.055920
v -0.122255 -0.301378 0.049494
v -0.094489 -0.203145 0.129686
v -0.089806 -0.295463 0.116793
v -0.055417 -0.290489 0.166264
v -0.063339 -0.200952 0.173037
v 0.144768 -0.625428 0.216698
v 0.059932 -0.629598 0.211321
v 0.147512 -0.683071 0.199576
v 0.064583 -0.694313 0.201876
v -0.007617 -0.686594 0.166891
v -0.008516 -0.632228 0.161860
v -0.043029 -0.635467 0.113724
v -0.060342 -0.637773 0.047984
v -0.029008 -0.688202 0.114744
v -0.051080 -0.684598 0.047085
v 0.026509 -0.622664 -0.110381
v 0.028835 -0.674400 -0.127987
v 0.068105 -0.675231 -0.128585
v 0.066372 -0.621955 -0.112542
v 0.123795 -0.670244 -0.130394
v 0.109596 -0.614385 -0.125493
v 0.170603 -0.615712 -0.103260
v 0.172844 -0.670582 -0.100277
v 0.198477 -0.612337 -0.053386
v 0.194213 -0.668460 -0.046481
v 0.207518 -0.612230 0.062425
v 0.179741 -0.608554 0.146035
v 0.213577 -0.671987 0.054375
v 0.190623 -0.663071 0.140161
v 0.096386 -0.936478 0.143908
v 0.058562 -0.951437 0.112799
v 0.149224 -0.935306 0.134392
v 0.196992 -0.932554 0.088239
v 0.222799 -0.936305 0.048616
v 0.254236 -0.940415 -0.012864
v 0.253567 -0.935649 -0.098734
v 0.207919 -0.938511 -0.166579
v 0.143815 -0.943231 -0.191883
v 0.094342 -0.949837 -0.189143
v 0.046003 -0.954432 -0.162993
v -0.010484 -0.972893 0.030069
v 0.029214 -0.957002 0.080992
v 0.129242 -0.400020 0.227330
v 0.037305 -0.405744 0.217011
v 0.185960 -0.389043 0.167749
v 0.223016 -0.386083 0.092434
v 0.228531 -0.383402 0.003093
v 0.197746 -0.384899 -0.058808
v 0.170024 -0.392493 -0.099860
v 0.099965 -0.392784 -0.131631
v 0.043528 -0.401752 -0.140111
v -0.015648 -0.404360 -0.124236
v -0.096669 -0.411434 0.046800
v -0.081966 -0.413073 0.122802
v -0.052515 -0.411173 0.172125
v 0.152066 -0.733395 0.177381
v 0.071458 -0.742358 0.185695
v 0.191829 -0.710814 0.122682
v 0.217602 -0.706789 0.052663
v 0.210163 -0.613098 -0.001699
v 0.204684 -0.673463 -0.004197
v 0.209965 -0.715663 -0.065351
v 0.181212 -0.716005 -0.122181
v 0.119989 -0.724443 -0.150042
v 0.073770 -0.727090 -0.152531
v 0.026565 -0.726974 -0.139957
v -0.034110 -0.734861 0.040099
v -0.015826 -0.741014 0.112047
v 0.002916 -0.741357 0.166480
v 0.046023 -0.888795 0.116578
v 0.215299 -0.718583 -0.007440
v 0.029878 -0.818800 0.131858
v -0.139549 -0.098812 0.079126
v -0.134262 -0.086573 0.145888
v -0.031042 0.126293 -0.214219
v 0.016708 0.135503 -0.206252
v -0.076946 0.120002 -0.221240
v -0.094754 0.092804 0.277378
v 0.099054 0.133914 -0.169704
v -0.100777 -0.164391 0.148781
v -0.026307 0.093461 0.267757
v 0.075605 -1.351942 -0.138845
v 0.279434 -1.435143 -0.070133
v 0.282146 -1.380582 -0.073427
v 0.141235 -1.358156 0.139104
v 0.087670 -1.371066 0.096586
v 0.070787 -1.377223 0.074315
v 0.050041 -1.396214 0.028134
v 0.086191 -1.543595 -0.129559
v 0.147644 -1.550108 -0.179666
v -0.157498 -0.066329 0.184222
v -0.134511 -0.069242 0.185076
v -0.125815 -0.078676 0.183641
v -0.117845 -0.099599 0.177793
v -0.115113 -0.122633 0.166743
v 0.101596 0.133972 -0.167280
v 0.208850 0.111060 0.117623
v 0.221282 0.116321 0.046831
v -0.032145 0.138940 -0.213036
v -0.026595 0.102134 0.268779
v -0.087294 0.102149 0.277379
v -0.069289 0.139736 -0.218095
v 0.166029 0.105066 0.202423
v 0.190459 0.108630 0.152144
v -0.120340 0.140520 -0.220981
v -0.085438 0.140081 -0.220279
v -0.155380 0.140944 -0.221455
v -0.127298 0.140602 -0.221050
v -0.155187 0.102221 0.286271
v -0.026387 0.138776 -0.211716
v 0.016364 0.137863 -0.205948
v -0.132430 0.102001 0.285863
v -0.128906 0.101960 0.285890
v -0.161429 0.140983 -0.221093
v -0.094884 0.102162 0.278309
v -0.124656 0.101957 0.285303
v 0.083070 0.101730 0.258181
v 0.133925 0.103743 0.224421
v 0.178097 0.127650 -0.095465
v 0.018531 0.137771 -0.205050
v 0.099011 0.134184 -0.169677
v 0.012494 0.102021 0.264592
v 0.062272 0.101833 0.259848
v 0.227008 0.118763 0.013979
v 0.187734 0.125891 -0.073790
v -0.077143 0.139940 -0.219626
v 0.099226 0.134168 -0.169506
v -0.161759 0.092802 0.285896
v -0.158800 -0.067578 0.180186
v -0.158728 -0.079724 0.080263
v -0.159288 -0.061342 -0.041208
v -0.158783 -0.071917 0.139337
v -0.158794 -0.070821 0.145861
v -0.159355 -0.058630 -0.049390
v -0.159811 -0.039789 -0.103174
v -0.160314 -0.018085 -0.150655
v -0.159169 -0.065723 -0.020832
v -0.158801 -0.067198 0.184007
v -0.158912 -0.059383 0.209585
v -0.163538 0.141003 -0.221046
v -0.161943 0.102291 0.286335
v -0.161705 0.047514 -0.216715
v -0.162084 0.066845 -0.217929
v -0.160120 0.007793 0.272881
v -0.160295 0.017069 0.276353
v -0.161412 0.074898 0.284200
v -0.163208 0.123988 -0.222276
v -0.160717 -0.000163 -0.182475
v -0.160973 0.012013 -0.193575
v -0.159195 -0.041773 0.246578
vn -0.2969 0.7747 0.5583
vn -0.2397 0.8789 0.4124
vn 0.0615 0.8094 0.5841
vn -0.6829 0.6623 0.3082
vn -0.8203 0.4801 0.3109
vn -0.7345 -0.6786 -0.0053
vn -0.5829 -0.8063 -0.1006
vn 0.7395 -0.6731 -0.0071
vn 0.8210 -0.5522 -0.1451
vn 0.2449 0.9452 0.2161
vn 0.3774 0.9072 0.1857
vn 0.0437 0.9790 0.1992
vn 0.3135 0.9269 0.2062
vn -0.6398 0.6845 0.3495
vn -0.2192 0.9422 0.2533
vn -0.7150 0.6072 0.3465
vn -0.3819 0.8886 0.2542
vn -0.8911 0.2474 0.3803
vn 0.7045 0.6719 0.2284
vn 0.6112 0.6978 0.3736
vn 0.8476 0.3084 0.4318
vn -0.0936 0.3715 0.9237
vn 0.4928 0.4057 0.7698
vn -0.0048 0.8551 0.5184
vn 0.4225 0.7849 0.4532
vn 0.0560 0.9685 0.2428
vn -0.3372 0.8328 0.4390
vn 0.1736 0.6434 0.7456
vn 0.5772 0.6460 0.4995
vn 0.5837 0.7068 0.3997
vn 0.4692 0.8085 0.3553
vn 0.0640 0.9277 0.3678
vn -0.0209 0.9568 0.2900
vn 0.3534 0.8832 0.3084
vn -0.9820 -0.1590 -0.1023
vn -0.9919 -0.1260 -0.0184
vn -0.9705 -0.2276 0.0790
vn -0.9853 -0.1526 0.0767
vn -0.9800 -0.1563 -0.1230
vn -0.9821 0.0495 -0.1816
vn -0.6262 -0.0177 -0.7794
vn -0.6400 0.1041 -0.7613
vn 0.1483 0.0200 -0.9887
vn 0.1308 0.0468 -0.9903
vn 0.7179 -0.0373 -0.6951
vn 0.7247 0.0415 -0.6878
vn 0.9522 -0.0697 -0.2973
vn 0.9538 0.1262 -0.2726
vn 0.9938 -0.0515 -0.0982
vn 0.9779 0.1996 -0.0617
vn 0.9725 0.2226 -0.0691
vn 0.9933 0.0288 -0.1122
vn 0.8776 0.4537 0.1550
vn 0.9019 0.4196 0.1023
vn 0.8220 0.5337 0.1987
vn 0.6595 0.7287 0.1843
vn 0.5318 0.8376 0.1246
vn -0.2009 0.9687 0.1460
vn -0.7751 -0.6154 -0.1435
vn -0.5723 -0.8191 0.0400
vn 0.7612 -0.6428 -0.0862
vn 0.5555 -0.8282 -0.0743
vn 0.5221 -0.5911 -0.6148
vn 0.5373 -0.8202 -0.1962
vn -0.4931 -0.7681 -0.4086
vn -0.7842 -0.6205 -0.0090
vn 0.5482 -0.5154 0.6587
vn -0.3691 -0.6560 0.6583
vn 0.5426 -0.7663 0.3441
vn -0.7595 -0.4720 0.4477
vn -0.9913 0.1300 0.0201
vn -0.9885 0.1440 -0.0464
vn -0.9083 0.4089 0.0885
vn -0.5688 0.8071 0.1582
vn -0.8600 0.5004 0.1000
vn -0.5328 0.8347 0.1390
vn -0.7954 0.5655 0.2179
vn 0.7297 0.6765 0.0993
vn 0.7594 0.6320 0.1547
vn 0.9164 0.3401 0.2109
vn 0.9125 0.3883 0.1291
vn 0.6305 -0.7719 0.0814
vn 0.8348 -0.5025 0.2249
vn -0.6011 -0.7728 0.2036
vn -0.8564 -0.5058 0.1034
vn -0.9464 0.2334 0.2232
vn -0.9738 0.2046 0.0994
vn -0.3209 0.9089 0.2663
vn 0.0886 -0.2621 0.9610
vn 0.8054 0.5830 0.1068
vn 0.9387 0.3411 0.0501
vn 0.9197 0.3918 0.0254
vn 0.9823 0.1661 -0.0862
vn -0.9817 0.1899 0.0159
vn -0.9879 0.0649 -0.1406
vn -0.3474 0.6821 0.6434
vn 0.9541 0.2968 -0.0405
vn 0.9673 0.2460 -0.0623
vn -0.9906 0.1169 0.0717
vn -0.9345 0.2952 0.1990
vn -0.9670 0.1973 -0.1612
vn -0.9633 0.2083 -0.1691
vn -0.9766 0.2152 -0.0031
vn -0.9879 0.1488 0.0434
vn -0.5290 0.2939 -0.7961
vn -0.6816 0.1732 -0.7109
vn 0.3779 0.3719 -0.8479
vn 0.1595 0.2182 -0.9628
vn 0.8443 0.3660 -0.3915
vn 0.7691 0.2676 -0.5804
vn 0.9323 0.3297 -0.1485
vn 0.9300 0.3096 -0.1981
vn 0.9595 0.2693 -0.0827
vn 0.9536 0.2937 -0.0664
vn 0.0373 -0.3640 -0.9307
vn -0.6251 0.4149 0.6611
vn 0.3005 -0.9231 -0.2400
vn 0.2996 -0.8894 -0.3452
vn 0.1653 -0.9552 -0.2456
vn -0.0309 -0.9245 -0.3799
vn -0.4505 -0.8613 -0.2351
vn -0.2961 -0.8537 -0.4284
vn -0.8062 -0.5353 -0.2521
vn -0.6866 -0.5298 -0.4978
vn -0.8242 -0.2750 -0.4951
vn -0.9517 -0.1899 -0.2411
vn -0.7863 -0.2816 -0.5499
vn -0.9367 -0.1883 -0.2952
vn -0.9308 -0.1451 -0.3356
vn -0.8127 -0.2337 -0.5338
vn -0.8920 -0.1816 -0.4139
vn -0.8214 -0.1761 -0.5425
vn -0.8987 -0.1387 -0.4161
vn -0.8260 -0.0982 -0.5551
vn -0.9215 -0.1251 -0.3676
vn -0.7740 -0.1405 -0.6174
vn -0.9041 -0.2071 -0.3738
vn -0.6892 -0.1677 -0.7049
vn -0.9174 -0.1726 -0.3587
vn -0.7157 -0.0741 -0.6944
vn -0.9538 -0.0228 -0.2996
vn -0.7402 -0.0123 -0.6723
vn -0.9307 -0.0524 -0.3620
vn -0.7446 0.0768 -0.6630
vn -0.9734 -0.1150 -0.1981
vn -0.8466 0.0212 -0.5318
vn -0.9804 -0.0452 -0.1915
vn -0.8201 -0.0320 -0.5713
vn -0.9754 -0.0129 -0.2202
vn -0.7966 0.0247 -0.6040
vn -0.9813 -0.0760 -0.1766
vn -0.8338 -0.0019 -0.5520
vn -0.9885 -0.1342 -0.0698
vn -0.8967 -0.0509 -0.4398
vn -0.9901 -0.1242 0.0653
vn -0.9122 -0.0460 -0.4072
vn -0.9602 -0.1906 0.2043
vn -0.9401 -0.2177 -0.2625
vn -0.9891 -0.1416 0.0410
vn -0.9360 -0.1687 -0.3090
vn -0.9939 -0.0961 -0.0533
vn -0.7965 -0.3366 -0.5023
vn -0.9949 -0.0673 0.0757
vn -0.9550 -0.2895 -0.0642
vn -0.9446 0.0723 -0.3202
vn -0.8462 -0.1152 -0.5203
vn -0.9880 -0.1481 0.0428
vn -0.9273 -0.2144 -0.3069
vn -0.9466 -0.3092 0.0913
vn -0.9674 -0.1524 -0.2021
vn -0.9977 -0.0666 0.0109
vn -0.9759 -0.0836 -0.2015
vn -0.5059 -0.8429 0.1832
vn -0.8406 -0.5252 -0.1324
vn -0.2128 -0.0600 0.9753
vn -0.2606 -0.1481 0.9540
vn -0.6550 -0.1367 0.7432
vn -0.7148 -0.0598 0.6967
vn -0.8819 -0.1042 0.4598
vn -0.7390 -0.0279 0.6731
vn -0.9036 -0.1525 0.4002
vn -0.5999 -0.0097 -0.8000
vn -0.5651 -0.0627 -0.8226
vn 0.1789 -0.0047 -0.9839
vn 0.1837 -0.0565 -0.9814
vn -0.2820 -0.0316 -0.9589
vn -0.2581 -0.0878 -0.9621
vn 0.6257 0.0020 -0.7800
vn 0.6391 -0.0498 -0.7675
vn 0.9785 0.0759 -0.1919
vn 0.9632 0.0707 -0.2595
vn 0.9646 0.0112 0.2635
vn 0.9402 0.1732 0.2932
vn 0.8962 0.0170 0.4433
vn 0.8911 0.1431 0.4307
vn 0.8359 0.0526 0.5463
vn 0.8293 0.0435 0.5571
vn 0.4844 0.0189 0.8746
vn 0.5126 -0.0510 0.8571
vn 0.4872 -0.2705 0.8303
vn -0.0947 -0.2598 0.9610
vn 0.3633 -0.0607 0.9297
vn 0.7661 -0.0034 0.6427
vn 0.7273 0.0034 0.6864
vn 0.9211 0.1007 0.3761
vn 0.9194 -0.0285 0.3923
vn 0.9713 0.1926 0.1398
vn 0.9700 0.0800 0.2297
vn 0.9329 0.2802 -0.2264
vn 0.9472 0.1168 -0.2985
vn 0.5801 0.2733 -0.7673
vn 0.6050 0.1379 -0.7842
vn 0.1668 0.2426 -0.9557
vn 0.1449 0.1170 -0.9825
vn -0.2674 0.1314 -0.9546
vn -0.3094 0.0642 -0.9488
vn -0.5639 0.0308 -0.8253
vn -0.6193 0.0289 -0.7846
vn -0.9497 -0.0905 0.2997
vn -0.9163 -0.1060 0.3863
vn -0.8490 -0.2465 0.4673
vn -0.7742 -0.1542 0.6138
vn -0.3391 -0.1760 0.9241
vn -0.8880 -0.3097 0.3400
vn -0.9607 -0.2768 0.0211
vn -0.9081 -0.1384 0.3953
vn -0.9956 -0.0878 0.0319
vn -0.4730 -0.1776 -0.8630
vn -0.4498 -0.1171 -0.8854
vn 0.2429 -0.0048 -0.9700
vn 0.1626 -0.0768 -0.9837
vn -0.2375 -0.1199 -0.9640
vn -0.2176 -0.1333 -0.9669
vn 0.6981 -0.0058 -0.7160
vn 0.7218 0.0192 -0.6918
vn 0.9065 -0.1036 -0.4092
vn 0.9409 0.0126 -0.3384
vn 0.9596 -0.1728 -0.2221
vn 0.9859 -0.0647 -0.1544
vn 0.9781 -0.1382 0.1559
vn 0.9866 -0.1356 0.0909
vn 0.8606 -0.0596 0.5058
vn 0.9060 -0.0934 0.4129
vn 0.3223 -0.0438 0.9456
vn 0.5333 -0.0421 0.8449
vn -0.3152 -0.0564 0.9473
vn -0.3846 -0.1224 0.9149
vn -0.7383 -0.1932 0.6462
vn -0.6776 -0.2595 0.6881
vn -0.2663 -0.2609 0.9279
vn -0.2885 -0.1571 0.9445
vn 0.1163 -0.1098 0.9871
vn 0.3296 -0.0742 0.9412
vn 0.6589 -0.0182 0.7520
vn 0.7389 -0.0166 0.6736
vn 0.9533 -0.0338 0.3002
vn 0.9361 0.0365 0.3499
vn 0.9673 -0.0996 -0.2334
vn 0.9921 -0.0088 -0.1251
vn 0.8418 -0.0153 -0.5396
vn 0.8005 -0.0912 -0.5924
vn 0.5404 -0.0231 -0.8411
vn 0.5536 -0.0391 -0.8319
vn 0.1231 -0.1312 -0.9837
vn 0.1025 -0.1259 -0.9867
vn -0.3186 -0.2934 -0.9014
vn -0.3035 -0.1644 -0.9385
vn -0.6286 -0.2244 -0.7446
vn -0.5923 -0.3038 -0.7463
vn -0.9965 -0.0720 -0.0423
vn -0.9945 -0.0850 0.0619
vn -0.8662 -0.3204 0.3834
vn -0.9394 -0.2602 0.2230
vn -0.5470 -0.3122 0.7767
vn -0.4621 -0.4062 0.7883
vn -0.9916 -0.1294 0.0079
vn -0.9355 -0.2331 0.2655
vn -0.5659 -0.3785 -0.7325
vn -0.1350 -0.3354 -0.9324
vn 0.2387 -0.1848 -0.9533
vn 0.5104 -0.0964 -0.8545
vn 0.8039 0.0008 -0.5947
vn 0.9851 0.0537 -0.1636
vn 0.9427 0.0494 0.3299
vn 0.7201 0.0256 0.6934
vn 0.2700 -0.0706 0.9603
vn -0.1031 -0.2818 0.9539
vn -0.3601 -0.4692 0.8063
vn 0.0154 -0.7631 -0.6461
vn 0.0336 -0.3278 -0.9442
vn -0.0599 -0.7502 -0.6585
vn -0.0019 -0.3508 -0.9365
vn -0.7983 -0.6020 0.0152
vn -0.0546 -0.9967 -0.0601
vn 0.0265 -0.9882 0.1511
vn -0.7204 -0.6566 0.2233
vn 0.1562 -0.7890 0.5942
vn -0.0219 -0.6843 0.7289
vn 0.0495 -0.3152 0.9477
vn 0.1479 -0.2686 0.9518
vn 0.0076 -0.0665 0.9978
vn 0.0948 -0.0853 0.9918
vn 0.0653 -0.0766 0.9949
vn 0.5491 -0.6426 -0.5344
vn 0.7222 -0.6514 -0.2327
vn 0.0647 -0.9837 0.1678
vn 0.2097 -0.9560 -0.2051
vn -0.2879 -0.4962 -0.8191
vn -0.3987 -0.8840 -0.2443
vn -0.9338 -0.2759 0.2276
vn -0.8478 -0.4905 0.2015
vn -0.5009 -0.6712 0.5464
vn -0.2361 -0.5459 0.8039
vn 0.2898 -0.4842 0.8256
vn 0.8036 -0.4652 0.3713
vn 0.9244 -0.3593 0.1281
vn -0.9847 0.1594 0.0702
vn -0.0637 -0.7815 -0.6206
vn 0.0854 -0.5573 -0.8259
vn -0.3144 -0.5748 -0.7555
vn -0.0077 -0.3017 -0.9534
vn 0.0446 -0.3443 -0.9378
vn 0.1340 -0.1543 -0.9789
vn 0.2998 -0.2146 -0.9296
vn 0.3094 -0.0791 -0.9476
vn 0.5039 -0.0994 -0.8580
vn 0.5477 0.0146 -0.8365
vn 0.7577 0.0223 -0.6522
vn 0.8076 0.1437 -0.5720
vn 0.9799 0.0887 -0.1787
vn 0.9779 0.1714 -0.1193
vn 0.9389 0.1508 0.3093
vn 0.9246 0.1724 0.3398
vn 0.7419 0.0826 0.6654
vn 0.7686 0.1031 0.6314
vn 0.3862 0.0300 0.9219
vn 0.3210 -0.0060 0.9471
vn 0.0051 -0.1339 0.9910
vn 0.0655 -0.1274 0.9897
vn 0.1291 -0.2412 0.9618
vn -0.1187 -0.5163 0.8481
vn 0.3610 -0.3671 0.8573
vn 0.1444 -0.1997 0.9692
vn 0.6710 -0.7126 0.2048
vn 0.5739 -0.7976 0.1853
vn 0.2229 -0.8707 -0.4384
vn 0.2485 -0.8832 -0.3977
vn 0.8379 0.0296 -0.5451
vn 0.3305 0.1587 -0.9304
vn 0.8261 0.1073 -0.5532
vn 0.2564 0.0702 -0.9640
vn -0.2360 0.1305 -0.9630
vn -0.2229 -0.0923 -0.9705
vn -0.6627 0.0347 -0.7481
vn -0.7096 0.0440 -0.7032
vn -0.9383 -0.1355 0.3183
vn -0.9431 -0.1746 0.2828
vn -0.8828 -0.0923 0.4606
vn -0.9302 0.0386 0.3649
vn -0.6198 0.3781 0.6877
vn -0.8651 -0.0139 0.5013
vn -0.6865 0.3507 0.6369
vn -0.8921 0.1850 0.4123
vn -0.0210 0.2938 0.9556
vn 0.1240 0.5524 0.8243
vn 0.7243 -0.0059 0.6895
vn 0.6880 0.4755 0.5483
vn 0.6055 0.2246 0.7635
vn -0.1120 0.3694 0.9225
vn 0.9459 0.0159 0.3242
vn 0.9347 0.1548 0.3199
vn 0.9466 0.1788 0.2683
vn 0.9981 -0.0061 0.0610
vn 0.9718 0.2352 0.0186
vn 0.7313 0.0658 -0.6788
vn 0.7947 0.1234 -0.5943
vn 0.9620 0.1471 -0.2299
vn 0.9804 0.0937 -0.1732
vn 0.9123 0.3010 -0.2777
vn 0.7679 0.0872 -0.6346
vn 0.1203 -0.0502 -0.9915
vn 0.2515 0.1028 -0.9624
vn 0.1336 0.1586 -0.9783
vn -0.4364 -0.0197 -0.8995
vn -0.2863 0.2224 -0.9320
vn -0.8308 -0.1280 -0.5416
vn -0.9591 -0.1940 0.2061
vn -0.9862 -0.0770 0.1465
vn -0.9897 -0.0858 0.1150
vn -0.7650 0.2505 0.5934
vn -0.9353 0.0911 0.3420
vn -0.1587 0.4586 0.8743
vn 0.6495 0.5362 0.5391
vn 0.9256 0.3499 0.1441
vn 0.9676 0.2523 0.0128
vn 0.9934 0.0858 0.0757
vn 0.6680 0.1983 -0.7173
vn 0.6644 -0.0314 -0.7467
vn 0.9609 -0.0041 -0.2768
vn 0.8844 -0.0386 -0.4650
vn 0.1711 -0.0764 -0.9823
vn 0.3496 0.0083 -0.9369
vn -0.2530 -0.0644 -0.9653
vn -0.0485 -0.2021 -0.9782
vn -0.6008 -0.2182 -0.7690
vn -0.6047 -0.0698 -0.7934
vn -0.8811 -0.1838 0.4358
vn -0.9418 -0.0378 0.3339
vn -0.8277 -0.1226 0.5476
vn -0.8654 -0.0485 0.4988
vn 0.0174 0.0339 0.9993
vn -0.5916 -0.0247 0.8058
vn -0.2697 0.0666 0.9606
vn -0.7425 -0.0864 0.6642
vn -0.6847 0.0269 0.7283
vn 0.5005 0.1223 0.8570
vn 0.2635 0.2421 0.9338
vn 0.7612 0.2285 0.6069
vn 0.8473 0.2060 0.4895
vn 0.8571 0.1812 0.4823
vn 0.9292 -0.0742 0.3621
vn 0.9907 0.0954 0.0970
vn 0.9668 -0.1576 0.2013
vn 0.7340 0.1682 -0.6580
vn 0.2141 0.1475 -0.9656
vn -0.2209 -0.0612 -0.9734
vn -0.6262 -0.2029 -0.7528
vn -0.9305 -0.1287 0.3429
vn -0.8456 -0.0635 0.5301
vn -0.5078 -0.0135 0.8614
vn -0.3257 0.1798 0.9282
vn -0.7187 -0.0227 0.6950
vn 0.0906 0.3095 0.9466
vn 0.2530 0.4422 0.8605
vn 0.7743 0.3285 0.5409
vn 0.9149 0.3962 0.0780
vn 0.9897 -0.0436 0.1366
vn 0.8986 0.4186 0.1318
vn 0.9819 -0.0629 0.1784
vn 0.9737 0.2062 -0.0965
vn 0.1377 -0.0818 0.9871
vn -0.3544 -0.0700 0.9325
vn 0.2290 -0.0297 0.9730
vn -0.3333 -0.0494 0.9415
vn 0.6880 -0.0478 0.7242
vn 0.7624 -0.0461 0.6455
vn 0.9619 -0.0834 0.2605
vn 0.9679 -0.0518 0.2459
vn 0.9832 -0.0781 -0.1652
vn 0.9836 -0.0108 -0.1801
vn 0.8562 -0.0732 -0.5115
vn 0.8526 -0.0144 -0.5224
vn 0.5688 -0.0738 -0.8192
vn 0.5867 -0.0540 -0.8080
vn 0.1613 -0.1196 -0.9796
vn 0.1772 -0.0769 -0.9812
vn -0.2486 -0.1371 -0.9589
vn -0.1740 -0.0689 -0.9823
vn -0.6501 -0.1727 -0.7400
vn -0.6367 -0.1092 -0.7634
vn -0.9865 -0.1471 0.0719
vn -0.9879 -0.1549 0.0109
vn -0.7967 -0.2376 0.5558
vn -0.8584 -0.0766 0.5071
vn -0.7136 -0.0612 0.6979
vn -0.6400 -0.1613 0.7513
vn 0.4903 -0.0930 0.8666
vn -0.2924 -0.1076 0.9502
vn 0.4961 -0.1872 0.8478
vn -0.1538 -0.2476 0.9566
vn -0.7191 -0.0977 0.6880
vn -0.7322 0.0215 0.6807
vn -0.9163 -0.0529 0.3969
vn -0.9892 -0.1300 0.0682
vn -0.9215 -0.2227 0.3183
vn -0.9782 -0.1989 0.0592
vn -0.3396 0.0680 -0.9381
vn -0.3667 0.2535 -0.8951
vn -0.0581 0.3257 -0.9437
vn -0.1449 0.0433 -0.9885
vn 0.1956 0.2326 -0.9527
vn 0.0053 -0.0420 -0.9991
vn 0.5952 0.0262 -0.8031
vn 0.7939 0.1955 -0.5758
vn 0.9366 -0.0010 -0.3504
vn 0.9532 0.1610 -0.2560
vn 0.9915 0.0346 0.1254
vn 0.9272 0.0008 0.3745
vn 0.9897 0.0542 0.1325
vn 0.8939 -0.0313 0.4472
vn -0.1376 -0.1309 0.9818
vn -0.6521 -0.1953 0.7326
vn 0.4158 -0.0726 0.9065
vn 0.7968 -0.0608 0.6012
vn 0.8801 -0.0206 0.4743
vn 0.9714 0.0025 0.2376
vn 0.9593 0.0407 -0.2794
vn 0.6257 0.0678 -0.7771
vn 0.1547 0.0235 -0.9877
vn -0.2734 0.0142 -0.9618
vn -0.6114 0.0462 -0.7900
vn -0.8862 -0.1330 0.4438
vn -0.7310 -0.1802 0.6582
vn 0.3090 -0.0431 0.9501
vn -0.2898 -0.0906 0.9528
vn 0.8309 -0.0398 0.5549
vn 0.9682 -0.0364 0.2477
vn 0.9745 -0.0709 -0.2127
vn 0.8668 -0.0485 -0.4963
vn 0.6424 -0.0153 -0.7662
vn 0.2710 0.0341 -0.9620
vn -0.1178 -0.0565 -0.9914
vn -0.5422 -0.1202 -0.8316
vn -0.9722 -0.2330 -0.0233
vn -0.9003 -0.1941 0.3896
vn -0.6904 -0.1022 0.7162
vn 0.5185 -0.2944 0.8028
vn -0.0907 -0.3636 0.9271
vn 0.8911 -0.1306 0.4347
vn 0.9782 0.0842 0.1901
vn 0.9912 0.0336 -0.1283
vn 0.9823 0.0551 -0.1791
vn 0.9042 0.3725 -0.2088
vn 0.6257 0.3767 -0.6831
vn 0.1761 0.3479 -0.9208
vn -0.1538 0.2893 -0.9448
vn -0.4337 0.2109 -0.8760
vn -0.9627 -0.2190 0.1586
vn -0.8978 -0.3260 0.2960
vn -0.6689 -0.3226 0.6697
vn -0.7158 -0.2274 0.6603
vn 0.9693 0.2404 -0.0511
vn -0.6277 -0.3569 0.6919
vn -0.9704 -0.2411 -0.0109
vn -0.9466 -0.2514 0.2020
vn 0.1779 0.0948 -0.9795
vn 0.1906 0.1239 -0.9738
vn 0.1596 0.0764 -0.9842
vn 0.2787 0.1276 -0.9519
vn 0.3678 0.1296 -0.9208
vn 0.2738 0.0578 -0.9601
vn 0.4783 0.1279 -0.8688
vn 0.6375 0.0748 -0.7668
vn 0.5535 0.0419 -0.8318
vn -0.6756 -0.4259 0.6018
vn 0.1043 -0.1025 0.9892
vn 0.1263 -0.1145 0.9854
vn 0.1060 -0.1010 0.9892
vn 0.1741 -0.0974 0.9799
vn 0.1834 -0.1213 0.9755
vn 0.1354 -0.1093 0.9847
vn -0.4676 -0.2780 -0.8391
vn 0.9627 0.1223 -0.2415
vn 0.9703 0.0701 -0.2316
vn -0.5774 0.2694 0.7708
vn -0.7391 0.0029 0.6736
vn -0.8380 -0.1586 0.5222
vn -0.9040 -0.2163 0.3688
vn -0.8132 -0.1401 -0.5649
vn -0.4479 -0.1347 -0.8839
vn 0.5761 -0.8108 0.1035
vn 0.2417 -0.9430 0.2288
vn 0.5417 -0.8238 0.1669
vn -0.3188 -0.8774 0.3586
vn -0.6877 -0.5340 0.4918
vn -0.7252 -0.3609 0.5864
vn -0.7517 -0.4118 0.5151
vn 0.1324 0.0710 -0.9887
vn 0.1545 0.0783 -0.9849
vn 0.0855 -0.0105 -0.9963
vn 0.1151 -0.1066 0.9876
vn 0.0027 -0.0726 0.9974
vn 0.0283 -0.0659 0.9974
vn 0.7406 0.0061 0.6719
vn 0.8777 0.0790 0.4726
vn 0.9448 0.0989 0.3123
vn 0.0129 -0.0201 -0.9997
vn -0.0033 -0.0025 -1.0000
vn 0.0720 -0.3132 -0.9470
vn -0.0039 -0.0572 -0.9984
vn 0.9141 0.0930 -0.3946
vn 0.9893 0.0695 -0.1283
vn 0.1141 -0.0773 0.9905
vn 0.5718 -0.0183 0.8202
vn 0.3407 -0.0442 0.9391
vn 0.1806 -0.0880 0.9796
vn -0.0142 -0.0035 -0.9999
vn -0.0358 0.0641 -0.9973
vn 0.0252 -0.0505 0.9984
vn 0.0191 0.0488 -0.9986
vn -0.0187 0.0480 -0.9987
vn 0.0457 0.0513 -0.9976
vn 0.0161 0.0503 -0.9986
vn 0.9860 0.0851 0.1434
vn 0.6887 0.0459 -0.7236
vn 0.7969 0.0841 -0.5982
vn 0.4807 -0.8120 0.3310
vn 0.3319 -0.5526 0.7645
vn 0.7038 -0.7103 -0.0057
vn 0.6743 -0.7335 0.0849
vn -0.0212 0.0716 -0.9972
vn 0.0216 -0.0483 0.9986
vt 0.552734 0.115234
vt 0.589355 0.111328
vt 0.554199 0.141113
vt 0.588379 0.085938
vt 0.548340 0.095215
vt 0.891113 0.137695
vt 0.864746 0.133301
vt 0.894043 0.047363
vt 0.867676 0.048828
vt 0.671875 0.161133
vt 0.658203 0.180176
vt 0.648438 0.137207
vt 0.644531 0.171387
vt 0.674316 0.101074
vt 0.668945 0.121582
vt 0.664063 0.089844
vt 0.657227 0.104004
vt 0.674316 0.077148
vt 0.665527 0.195313
vt 0.677246 0.181641
vt 0.672852 0.204102
vt 0.708496 0.139648
vt 0.703613 0.166016
vt 0.690430 0.141602
vt 0.687988 0.163086
vt 0.671875 0.142090
vt 0.686035 0.118652
vt 0.519043 0.139648
vt 0.521973 0.164551
vt 0.550293 0.166016
vt 0.590820 0.172852
vt 0.591309 0.139160
vt 0.621582 0.138184
vt 0.621094 0.172363
vt 0.504395 0.044922
vt 0.506836 0.055176
vt 0.467041 0.044922
vt 0.466309 0.056641
vt 0.428467 0.044922
vt 0.427490 0.055176
vt 0.398926 0.044922
vt 0.397705 0.055176
vt 0.366699 0.044922
vt 0.366699 0.058105
vt 0.366699 0.232910
vt 0.366699 0.219238
vt 0.398926 0.232910
vt 0.396973 0.221680
vt 0.428467 0.232910
vt 0.428467 0.221680
vt 0.467041 0.232910
vt 0.466064 0.222656
vt 0.505371 0.223633
vt 0.504395 0.232910
vt 0.511719 0.174316
vt 0.539063 0.192871
vt 0.590332 0.199219
vt 0.620117 0.198730
vt 0.644043 0.188965
vt 0.644043 0.110840
vt 0.604980 0.001465
vt 0.604980 0.037109
vt 0.585449 0.001465
vt 0.585449 0.037109
vt 0.918945 0.001465
vt 0.918945 0.037109
vt 0.892578 0.001465
vt 0.892578 0.037109
vt 0.729492 0.072266
vt 0.753906 0.057617
vt 0.727539 0.116699
vt 0.751953 0.130859
vt 0.797363 0.056152
vt 0.797852 0.128418
vt 0.976074 0.078125
vt 0.975586 0.117188
vt 0.958496 0.063965
vt 0.958984 0.129395
vt 0.506836 0.078613
vt 0.550293 0.054199
vt 0.590332 0.056641
vt 0.619629 0.089355
vt 0.620605 0.063477
vt 0.643066 0.094727
vt 0.643066 0.074707
vt 0.620605 0.214844
vt 0.642578 0.204590
vt 0.641602 0.218750
vt 0.622559 0.228027
vt 0.822266 0.001465
vt 0.821777 0.037109
vt 0.806641 0.001465
vt 0.807617 0.037109
vt 0.938477 0.056152
vt 0.937012 0.135742
vt 0.917969 0.050781
vt 0.917480 0.137695
vt 0.690430 0.001465
vt 0.690430 0.037109
vt 0.673340 0.001465
vt 0.673340 0.037109
vt 0.622559 0.050781
vt 0.641602 0.059570
vt 0.619629 0.112305
vt 0.983398 0.097168
vt 0.590820 0.219238
vt 0.593262 0.232910
vt 0.552246 0.222168
vt 0.554688 0.232910
vt 0.863770 0.001465
vt 0.863770 0.037109
vt 0.841309 0.001465
vt 0.841309 0.037109
vt 0.652832 0.001465
vt 0.652832 0.037109
vt 0.630859 0.001465
vt 0.630859 0.037109
vt 0.593262 0.044922
vt 0.554688 0.044922
vt 0.516602 0.118164
vt 0.504395 0.177246
vt 0.505859 0.201660
vt 0.496582 0.101074
vt 0.509766 0.107422
vt 0.428467 0.103516
vt 0.425781 0.079590
vt 0.467041 0.101074
vt 0.465576 0.079590
vt 0.398926 0.103516
vt 0.395752 0.076172
vt 0.366699 0.103516
vt 0.366699 0.077637
vt 0.398926 0.174805
vt 0.395996 0.201660
vt 0.366699 0.174805
vt 0.366699 0.201660
vt 0.428467 0.174805
vt 0.429443 0.200684
vt 0.467041 0.177246
vt 0.466553 0.201660
vt 0.833984 0.055176
vt 0.830566 0.126953
vt 0.720215 0.093262
vt 0.702637 0.111816
vt 0.751953 0.001465
vt 0.750488 0.037109
vt 0.730957 0.001465
vt 0.730957 0.037109
vt 0.527344 0.001465
vt 0.527344 0.037109
vt 0.505371 0.001465
vt 0.505371 0.037109
vt 0.790039 0.001465
vt 0.792480 0.037109
vt 0.769531 0.001465
vt 0.770508 0.037109
vt 0.975098 0.001465
vt 0.975098 0.037109
vt 0.953613 0.001465
vt 0.953613 0.037109
vt 0.550293 0.001465
vt 0.550293 0.037109
vt 0.995605 0.001465
vt 0.995605 0.037109
vt 0.707520 0.001465
vt 0.708496 0.037109
vt 0.018100 0.800574
vt 0.018729 0.802079
vt 0.017548 0.801392
vt 0.980957 0.800049
vt 0.981445 0.810791
vt 0.978027 0.795776
vt 0.973145 0.805908
vt 0.974609 0.791138
vt 0.963379 0.800415
vt 0.956055 0.785034
vt 0.970215 0.780273
vt 0.951660 0.773071
vt 0.966797 0.771362
vt 0.960938 0.752808
vt 0.945313 0.755859
vt 0.957520 0.736084
vt 0.941406 0.739014
vt 0.953125 0.696777
vt 0.934570 0.700684
vt 0.945801 0.642090
vt 0.923828 0.646973
vt 0.939453 0.612305
vt 0.919434 0.616943
vt 0.936523 0.589600
vt 0.918945 0.591309
vt 0.940918 0.553467
vt 0.920410 0.556396
vt 0.945313 0.535400
vt 0.921387 0.536865
vt 0.948730 0.516357
vt 0.921387 0.517822
vt 0.948242 0.487793
vt 0.920898 0.488281
vt 0.947266 0.459961
vt 0.920898 0.461914
vt 0.947754 0.434570
vt 0.918945 0.439941
vt 0.953125 0.404785
vt 0.924805 0.409668
vt 0.958008 0.380859
vt 0.929688 0.387207
vt 0.957520 0.354980
vt 0.929688 0.361816
vt 0.957520 0.331543
vt 0.933105 0.334473
vt 0.955566 0.312500
vt 0.934570 0.314453
vt 0.958496 0.291504
vt 0.958496 0.298828
vt 0.941895 0.291992
vt 0.940430 0.303711
vt 0.960938 0.281738
vt 0.945801 0.279297
vt 0.963379 0.269043
vt 0.946777 0.265625
vt 0.963867 0.262695
vt 0.946777 0.260254
vt 0.967285 0.246094
vt 0.951172 0.246094
vt 0.620605 0.405762
vt 0.613281 0.431152
vt 0.586914 0.425293
vt 0.558594 0.420898
vt 0.525391 0.418457
vt 0.556641 0.399902
vt 0.525391 0.395020
vt 0.987305 0.408691
vt 0.987305 0.387695
vt 0.894531 0.414551
vt 0.898438 0.391113
vt 0.844238 0.418945
vt 0.844727 0.396484
vt 0.868164 0.416992
vt 0.870117 0.394043
vt 0.808105 0.420410
vt 0.805176 0.397949
vt 0.771973 0.422363
vt 0.771484 0.397949
vt 0.732422 0.420410
vt 0.730469 0.394531
vt 0.704102 0.424316
vt 0.707520 0.398926
vt 0.681152 0.426758
vt 0.677734 0.397949
vt 0.651367 0.429199
vt 0.653809 0.403809
vt 0.647461 0.509521
vt 0.618164 0.507080
vt 0.646484 0.483398
vt 0.687988 0.507080
vt 0.679688 0.480957
vt 0.713867 0.504883
vt 0.708008 0.478516
vt 0.743164 0.500977
vt 0.739258 0.474121
vt 0.774902 0.497070
vt 0.775879 0.471680
vt 0.814453 0.493164
vt 0.813477 0.468750
vt 0.844238 0.490723
vt 0.843750 0.467285
vt 0.865234 0.489746
vt 0.865234 0.465820
vt 0.888184 0.489258
vt 0.889160 0.464844
vt 0.987305 0.489746
vt 0.987305 0.459961
vt 0.559082 0.500244
vt 0.525391 0.495605
vt 0.560547 0.475098
vt 0.525391 0.468750
vt 0.610352 0.481934
vt 0.551270 0.614990
vt 0.525391 0.606934
vt 0.550293 0.589844
vt 0.525391 0.580566
vt 0.987305 0.601318
vt 0.987305 0.577148
vt 0.894043 0.620361
vt 0.893066 0.594238
vt 0.841797 0.623779
vt 0.848633 0.595459
vt 0.868652 0.622559
vt 0.870605 0.596436
vt 0.817383 0.626465
vt 0.816406 0.601807
vt 0.789063 0.628418
vt 0.786133 0.604980
vt 0.760254 0.633545
vt 0.759766 0.609863
vt 0.726563 0.634277
vt 0.727051 0.610840
vt 0.687988 0.633789
vt 0.688477 0.611084
vt 0.651367 0.630615
vt 0.651855 0.608887
vt 0.614258 0.603760
vt 0.613281 0.625732
vt 0.576172 0.596924
vt 0.575684 0.620605
vt 0.584961 0.780884
vt 0.590332 0.760864
vt 0.631348 0.786621
vt 0.634766 0.767456
vt 0.672852 0.788818
vt 0.674316 0.769775
vt 0.718262 0.771362
vt 0.717773 0.789673
vt 0.760254 0.771362
vt 0.760254 0.788208
vt 0.800781 0.787842
vt 0.799805 0.770508
vt 0.837402 0.786865
vt 0.833984 0.768921
vt 0.878418 0.783081
vt 0.873047 0.765015
vt 0.905273 0.780029
vt 0.899414 0.762573
vt 0.924805 0.759399
vt 0.930664 0.776001
vt 0.987305 0.768433
vt 0.987305 0.747314
vt 0.528320 0.744385
vt 0.520020 0.755981
vt 0.518555 0.740967
vt 0.513184 0.751343
vt 0.554688 0.754883
vt 0.545898 0.772705
vt 0.511230 0.753418
vt 0.515625 0.760498
vt 0.989746 0.776245
vt 0.936035 0.794067
vt 0.910156 0.798950
vt 0.883789 0.799316
vt 0.842285 0.800659
vt 0.803711 0.799561
vt 0.760254 0.806030
vt 0.714355 0.806885
vt 0.671875 0.806641
vt 0.628906 0.804443
vt 0.580078 0.797974
vt 0.538574 0.787109
vt 0.981934 0.822754
vt 0.981934 0.833740
vt 0.963867 0.819824
vt 0.964844 0.833618
vt 0.992188 0.792358
vt 0.992188 0.797729
vt 0.498779 0.759521
vt 0.504883 0.758057
vt 0.498779 0.765747
vt 0.504883 0.765503
vt 0.497559 0.804565
vt 0.509766 0.806274
vt 0.496338 0.832886
vt 0.509277 0.832764
vt 0.510009 0.865999
vt 0.511719 0.861450
vt 0.511972 0.865965
vt 0.506348 0.633057
vt 0.510742 0.629150
vt 0.502441 0.622314
vt 0.500000 0.634521
vt 0.496826 0.632813
vt 0.494141 0.631348
vt 0.493408 0.628662
vt 0.492676 0.625977
vt 0.492432 0.621338
vt 0.494141 0.615723
vt 0.498047 0.611572
vt 0.503418 0.610596
vt 0.508789 0.612061
vt 0.512207 0.616211
vt 0.513184 0.623291
vt 0.493408 0.617920
vt 0.023648 0.822153
vt 0.023953 0.825941
vt 0.019501 0.822754
vt 0.942871 0.816040
vt 0.942383 0.832642
vt 0.928223 0.822632
vt 0.927246 0.838623
vt 0.900879 0.828369
vt 0.901855 0.842651
vt 0.851074 0.828125
vt 0.853516 0.842285
vt 0.807617 0.829468
vt 0.808105 0.842773
vt 0.760254 0.828979
vt 0.760254 0.847168
vt 0.711914 0.829346
vt 0.712402 0.846802
vt 0.671387 0.845947
vt 0.672363 0.830200
vt 0.625488 0.827637
vt 0.625000 0.844238
vt 0.576660 0.820435
vt 0.573242 0.837280
vt 0.530762 0.832153
vt 0.530762 0.807861
vt 0.494452 0.828973
vt 0.493986 0.832865
vt 0.498437 0.765099
vt 0.498249 0.765663
vt 0.022398 0.816147
vt 0.019989 0.810791
vt 0.020949 0.810185
vt 0.833496 0.284668
vt 0.869141 0.282227
vt 0.819824 0.296875
vt 0.858887 0.296387
vt 0.887695 0.291016
vt 0.881348 0.300293
vt 0.915527 0.291504
vt 0.923340 0.277344
vt 0.987305 0.297852
vt 0.987305 0.286133
vt 0.549316 0.298828
vt 0.525391 0.299805
vt 0.545410 0.282715
vt 0.525391 0.284668
vt 0.595703 0.289063
vt 0.562988 0.296875
vt 0.595703 0.270508
vt 0.563965 0.278809
vt 0.634766 0.282227
vt 0.635254 0.269531
vt 0.670898 0.280762
vt 0.668457 0.270020
vt 0.672852 0.289551
vt 0.632324 0.297852
vt 0.703613 0.273438
vt 0.702148 0.265137
vt 0.707520 0.288574
vt 0.751465 0.274902
vt 0.749023 0.292480
vt 0.849609 0.255371
vt 0.841309 0.266602
vt 0.803223 0.256348
vt 0.799805 0.264648
vt 0.798340 0.278320
vt 0.838867 0.277832
vt 0.885254 0.257324
vt 0.878418 0.265137
vt 0.872559 0.276855
vt 0.902344 0.266113
vt 0.896973 0.276367
vt 0.927734 0.267090
vt 0.987305 0.273926
vt 0.987305 0.263184
vt 0.545898 0.264160
vt 0.525391 0.272949
vt 0.525391 0.262207
vt 0.592773 0.264648
vt 0.560547 0.263672
vt 0.633301 0.259766
vt 0.667969 0.257813
vt 0.703125 0.257813
vt 0.755371 0.257813
vt 0.752930 0.265137
vt 0.804199 0.332520
vt 0.806641 0.364258
vt 0.776367 0.337402
vt 0.775391 0.366699
vt 0.844238 0.366699
vt 0.846680 0.334473
vt 0.870605 0.365723
vt 0.871582 0.337402
vt 0.898438 0.338379
vt 0.898438 0.364746
vt 0.987305 0.363770
vt 0.987305 0.333008
vt 0.556641 0.373047
vt 0.525391 0.369629
vt 0.554199 0.347656
vt 0.525391 0.346680
vt 0.615234 0.379395
vt 0.579102 0.374023
vt 0.608398 0.352051
vt 0.572266 0.349609
vt 0.581055 0.401367
vt 0.645508 0.378418
vt 0.646973 0.345215
vt 0.686035 0.366699
vt 0.675293 0.335449
vt 0.701660 0.363281
vt 0.702637 0.338379
vt 0.741211 0.362793
vt 0.740234 0.338867
vt 0.812988 0.315918
vt 0.855957 0.319824
vt 0.879395 0.320313
vt 0.907715 0.305664
vt 0.987305 0.317871
vt 0.551270 0.325684
vt 0.525391 0.324707
vt 0.603516 0.320801
vt 0.604004 0.329102
vt 0.566406 0.327148
vt 0.636230 0.314453
vt 0.639648 0.324219
vt 0.675781 0.310059
vt 0.708008 0.307617
vt 0.704590 0.328613
vt 0.744141 0.310547
vt 0.742188 0.324707
vt 0.778320 0.314453
vt 0.637695 0.750000
vt 0.595215 0.743408
vt 0.641113 0.711182
vt 0.604004 0.705811
vt 0.675293 0.752686
vt 0.678223 0.714844
vt 0.718750 0.755005
vt 0.722168 0.716553
vt 0.760254 0.756226
vt 0.758789 0.719482
vt 0.797852 0.754639
vt 0.794434 0.717773
vt 0.830566 0.752930
vt 0.824707 0.716553
vt 0.868652 0.749023
vt 0.858398 0.711670
vt 0.895508 0.746094
vt 0.886230 0.709229
vt 0.920410 0.742920
vt 0.910645 0.704834
vt 0.987305 0.728027
vt 0.987305 0.687744
vt 0.541504 0.731934
vt 0.522461 0.728027
vt 0.547852 0.693604
vt 0.525391 0.687744
vt 0.568359 0.698242
vt 0.560547 0.735840
vt 0.650391 0.577148
vt 0.615723 0.573730
vt 0.651367 0.557373
vt 0.616211 0.552002
vt 0.582520 0.549316
vt 0.580566 0.567627
vt 0.555176 0.561768
vt 0.525391 0.555420
vt 0.557617 0.544189
vt 0.525391 0.538086
vt 0.987305 0.543945
vt 0.987305 0.532227
vt 0.890625 0.559814
vt 0.892090 0.539551
vt 0.868652 0.540527
vt 0.869141 0.560547
vt 0.840332 0.543213
vt 0.847656 0.564209
vt 0.813965 0.565430
vt 0.807617 0.544922
vt 0.782227 0.570557
vt 0.778809 0.548340
vt 0.725586 0.575195
vt 0.685059 0.580811
vt 0.725098 0.552002
vt 0.685059 0.560791
vt 0.615234 0.462402
vt 0.586426 0.456055
vt 0.645508 0.461426
vt 0.680176 0.459473
vt 0.703613 0.456543
vt 0.736328 0.452637
vt 0.773926 0.451660
vt 0.812988 0.449219
vt 0.842285 0.447754
vt 0.864746 0.445801
vt 0.890625 0.444336
vt 0.987305 0.434570
vt 0.561523 0.453125
vt 0.525391 0.445801
vt 0.649414 0.658447
vt 0.610352 0.654297
vt 0.686035 0.662842
vt 0.724609 0.663818
vt 0.760742 0.663574
vt 0.794434 0.661133
vt 0.816406 0.657471
vt 0.841309 0.656738
vt 0.873047 0.653564
vt 0.898926 0.650879
vt 0.987305 0.631348
vt 0.551758 0.643555
vt 0.525391 0.636719
vt 0.572266 0.648193
vt 0.654297 0.538818
vt 0.617188 0.535156
vt 0.687500 0.542480
vt 0.722656 0.538574
vt 0.756836 0.572266
vt 0.754395 0.548340
vt 0.779297 0.526855
vt 0.812988 0.523193
vt 0.844238 0.520996
vt 0.867188 0.519775
vt 0.891602 0.519287
vt 0.987305 0.511230
vt 0.560547 0.526367
vt 0.525391 0.516846
vt 0.585938 0.533203
vt 0.583496 0.478516
vt 0.750977 0.530518
vt 0.583984 0.504395
vt 0.507813 0.756836
vt 0.509277 0.764282
vt 0.927329 0.863865
vt 0.924450 0.863904
vt 0.927734 0.859131
vt 0.992188 0.786377
vt 0.903782 0.863336
vt 0.902574 0.863334
vt 0.903809 0.862427
vt 0.856448 0.862776
vt 0.856320 0.862775
vt 0.856445 0.862671
vt 0.537598 0.746826
vt 0.589153 0.862766
vt 0.568952 0.863860
vt 0.568848 0.859985
vt 0.530938 0.865694
vt 0.530762 0.861572
vt 0.535195 0.865534
vt 0.906738 0.318848
vt 0.794922 0.284180
vt 0.785645 0.300781
vt 0.598633 0.304688
vt 0.563477 0.306152
vt 0.549316 0.307617
vt 0.525391 0.308105
vt 0.987305 0.303711
vt 0.930664 0.258301
vt 0.905273 0.257324
vt 0.914063 0.246094
vt 0.933105 0.246094
vt 0.892578 0.246094
vt 0.856445 0.246094
vt 0.808594 0.246094
vt 0.761719 0.246094
vt 0.710938 0.246094
vt 0.671387 0.246094
vt 0.633301 0.246094
vt 0.590820 0.246094
vt 0.557129 0.246094
vt 0.544922 0.246094
vt 0.525391 0.246094
vt 0.987305 0.246094
vt 0.497354 0.776838
vt 0.497803 0.778198
vt 0.497100 0.778015
vt 0.506348 0.778076
vt 0.513184 0.776245
vt 0.521973 0.769653
vt 0.528320 0.761597
vt 0.942189 0.863236
vt 0.938835 0.863413
vt 0.942383 0.855835
vt 0.494138 0.855219
vt 0.497559 0.862061
vt 0.493973 0.862095
vt 0.670837 0.860232
vt 0.695464 0.860207
vt 0.712402 0.859656
vt 0.963867 0.853394
vt 0.981934 0.849731
vt 0.023346 0.833800
vt 0.023620 0.838647
vt 0.019501 0.833740
vt 0.799017 0.861557
vt 0.760950 0.860750
vt 0.614817 0.861696
vt 0.652323 0.860544
vt 0.625000 0.861031
vt 0.514376 0.865918
vt 0.023318 0.850668
vt 0.022593 0.856792
vt 0.019501 0.849731
vt 0.497711 0.866261
vt 0.967305 0.859933
vt 0.019501 0.856206
vt 0.946462 0.862791
vt 0.963682 0.860496
vt 0.745803 0.860079
vt 0.854885 0.862751
vt 0.808522 0.861839
vt 0.494424 0.789611
vt 0.493328 0.806070
vt 0.016115 0.799896
vt 0.498103 0.759473
vt 0.009132 0.797729
vt 0.023601 0.857096
vt 0.981934 0.856206
vt 0.009132 0.796715
vt 0.494033 0.866264
s 1
g off
g izquierdaP_Harry_clothes2.002
usemtl Harry_clothes2.002
f 1/1/1 2/2/2 3/3/3
f 4/4/4 1/1/1 5/5/5
f 1/1/1 4/4/4 2/2/2
f 6/6/6 7/7/7 8/8/8
f 8/8/8 7/7/7 9/9/9
f 10/10/10 11/11/11 12/12/12
f 12/12/12 11/11/11 13/13/13
f 14/14/14 15/15/15 16/16/16
f 16/16/16 15/15/15 17/17/17
f 14/14/14 16/16/16 18/18/18
f 19/19/19 20/20/20 21/21/21
f 22/22/22 23/23/23 24/24/24
f 24/24/24 23/23/23 25/25/25
f 10/10/10 26/26/26 25/25/25
f 25/25/25 26/26/26 24/24/24
f 10/10/10 12/12/12 26/26/26
f 15/15/15 14/14/14 27/27/27
f 28/28/28 3/3/3 29/29/29
f 29/29/29 3/3/3 30/30/30
f 30/30/30 3/3/3 31/31/31
f 31/31/31 3/3/3 32/32/32
f 33/33/33 34/34/34 32/32/32
f 32/32/32 34/34/34 31/31/31
f 34/34/34 33/33/33 13/13/13
f 13/13/13 33/33/33 12/12/12
f 19/19/19 11/11/11 20/20/20
f 20/20/20 11/11/11 10/10/10
f 35/35/35 36/36/36 37/37/37
f 37/37/37 36/36/36 38/38/38
f 37/37/37 38/38/38 39/39/39
f 39/39/39 38/38/38 40/40/40
f 39/39/39 40/40/40 41/41/41
f 41/41/41 40/40/40 42/42/42
f 41/41/41 42/42/42 43/43/43
f 43/43/43 42/42/42 44/44/44
f 43/45/43 44/46/44 45/47/45
f 45/47/45 44/46/44 46/48/46
f 45/47/45 46/48/46 47/49/47
f 47/49/47 46/48/46 48/50/48
f 47/49/47 48/50/48 49/51/49
f 49/51/49 48/50/48 50/52/50
f 51/53/51 52/54/52 50/52/50
f 50/52/50 52/54/52 49/51/49
f 29/29/29 30/30/30 53/55/53
f 53/55/53 30/30/30 54/56/54
f 55/57/55 31/31/31 56/58/56
f 56/58/56 31/31/31 34/34/34
f 57/59/57 56/58/56 13/13/13
f 13/13/13 56/58/56 34/34/34
f 57/59/57 13/13/13 11/11/11
f 15/15/15 12/12/12 17/17/17
f 17/17/17 12/12/12 58/60/58
f 59/61/59 35/62/35 60/63/60
f 60/63/60 35/62/35 37/64/37
f 61/65/61 49/66/49 62/67/62
f 62/67/62 49/66/49 52/68/52
f 63/69/63 64/70/64 65/71/65
f 65/71/65 64/70/64 66/72/66
f 61/73/61 60/74/60 64/70/64
f 64/70/64 60/74/60 66/72/66
f 67/75/67 68/76/68 69/77/69
f 69/77/69 68/76/68 70/78/70
f 5/5/5 71/79/71 72/80/72
f 72/80/72 71/79/71 36/36/36
f 5/5/5 72/80/72 4/4/4
f 4/4/4 72/80/72 73/81/73
f 4/4/4 73/81/73 74/82/74
f 74/82/74 73/81/73 75/83/75
f 74/82/74 75/83/75 76/84/76
f 76/84/76 75/83/75 77/85/77
f 76/84/76 77/85/77 17/17/17
f 17/17/17 77/85/77 16/16/16
f 26/26/26 15/15/15 24/24/24
f 24/24/24 15/15/15 27/27/27
f 56/58/56 57/59/57 78/86/78
f 78/86/78 57/59/57 79/87/79
f 79/87/79 80/88/80 78/86/78
f 78/86/78 80/88/80 81/89/81
f 82/90/82 81/91/81 83/92/83
f 83/92/83 81/91/81 80/93/80
f 83/94/83 84/95/84 82/96/82
f 82/96/82 84/95/84 85/97/85
f 84/98/84 86/99/86 85/100/85
f 85/100/85 86/99/86 87/101/87
f 87/102/87 86/103/86 75/83/75
f 75/83/75 86/103/86 77/85/77
f 76/84/76 58/60/58 74/82/74
f 74/82/74 58/60/58 88/104/88
f 88/104/88 58/60/58 33/33/33
f 33/33/33 58/60/58 12/12/12
f 89/105/89 68/76/68 67/75/67
f 78/86/78 81/89/81 90/106/90
f 90/106/90 81/89/81 91/107/91
f 90/106/90 91/107/91 92/108/92
f 92/108/92 91/107/91 93/109/93
f 92/108/92 93/109/93 51/53/51
f 51/53/51 93/109/93 52/54/52
f 19/19/19 21/21/21 79/87/79
f 79/87/79 21/21/21 80/88/80
f 54/56/54 55/57/55 92/108/92
f 92/108/92 55/57/55 90/106/90
f 9/110/9 93/111/93 8/112/8
f 8/112/8 93/111/93 91/113/91
f 6/114/6 94/115/94 7/116/7
f 7/116/7 94/115/94 95/117/95
f 94/118/94 73/81/73 95/119/95
f 95/119/95 73/81/73 72/80/72
f 28/28/28 96/120/96 3/3/3
f 96/120/96 1/1/1 3/3/3
f 30/30/30 31/31/31 54/56/54
f 54/56/54 31/31/31 55/57/55
f 53/55/53 54/56/54 97/121/97
f 97/121/97 54/56/54 98/122/98
f 99/123/99 71/79/71 100/124/100
f 100/124/100 71/79/71 5/5/5
f 1/1/1 96/120/96 5/5/5
f 5/5/5 96/120/96 100/124/100
f 101/125/101 102/126/102 103/127/103
f 103/127/103 102/126/102 104/128/104
f 105/129/105 106/130/106 101/125/101
f 101/125/101 106/130/106 102/126/102
f 107/131/107 108/132/108 105/129/105
f 105/129/105 108/132/108 106/130/106
f 109/133/109 110/134/110 107/135/107
f 107/135/107 110/134/110 108/136/108
f 111/137/111 112/138/112 109/133/109
f 109/133/109 112/138/112 110/134/110
f 113/139/113 114/140/114 111/137/111
f 111/137/111 114/140/114 112/138/112
f 97/121/97 98/122/98 113/139/113
f 113/139/113 98/122/98 114/140/114
f 103/127/103 104/128/104 99/123/99
f 99/123/99 104/128/104 71/79/71
f 98/122/98 54/56/54 51/53/51
f 51/53/51 54/56/54 92/108/92
f 95/119/95 72/80/72 35/35/35
f 35/35/35 72/80/72 36/36/36
f 7/116/7 95/117/95 59/61/59
f 59/61/59 95/117/95 35/62/35
f 9/9/9 7/7/7 62/141/62
f 62/141/62 7/7/7 59/142/59
f 62/67/62 52/68/52 9/110/9
f 9/110/9 52/68/52 93/111/93
f 38/38/38 104/128/104 40/40/40
f 40/40/40 104/128/104 102/126/102
f 48/50/48 112/138/112 50/52/50
f 50/52/50 112/138/112 114/140/114
f 115/143/115 63/69/63 65/71/65
f 22/22/22 24/24/24 116/144/116
f 116/144/116 24/24/24 27/27/27
f 89/145/89 22/146/22 68/147/68
f 68/147/68 22/146/22 116/148/116
f 65/149/65 41/150/41 115/151/115
f 115/151/115 41/150/41 43/152/43
f 42/42/42 106/130/106 44/44/44
f 44/44/44 106/130/106 108/132/108
f 10/10/10 25/25/25 20/20/20
f 69/153/69 21/154/21 67/155/67
f 67/155/67 21/154/21 23/156/23
f 63/157/63 45/158/45 64/159/64
f 64/159/64 45/158/45 47/160/47
f 46/48/46 110/134/110 48/50/48
f 48/50/48 110/134/110 112/138/112
f 50/52/50 114/140/114 51/53/51
f 51/53/51 114/140/114 98/122/98
f 64/159/64 47/160/47 61/65/61
f 61/65/61 47/160/47 49/66/49
f 61/73/61 62/141/62 60/74/60
f 60/74/60 62/141/62 59/142/59
f 60/63/60 37/64/37 66/161/66
f 66/161/66 37/64/37 39/162/39
f 71/79/71 104/128/104 36/36/36
f 36/36/36 104/128/104 38/38/38
f 20/20/20 25/25/25 21/21/21
f 21/21/21 25/25/25 23/23/23
f 11/11/11 19/19/19 57/59/57
f 57/59/57 19/19/19 79/87/79
f 55/57/55 56/58/56 90/106/90
f 90/106/90 56/58/56 78/86/78
f 44/46/44 108/136/108 46/48/46
f 46/48/46 108/136/108 110/134/110
f 40/40/40 102/126/102 42/42/42
f 42/42/42 102/126/102 106/130/106
f 87/102/87 75/83/75 94/118/94
f 94/118/94 75/83/75 73/81/73
f 18/18/18 16/16/16 86/103/86
f 86/103/86 16/16/16 77/85/77
f 27/27/27 14/14/14 116/144/116
f 116/144/116 14/14/14 18/18/18
f 8/112/8 91/113/91 82/90/82
f 82/90/82 91/113/91 81/91/81
f 8/8/8 82/96/82 6/6/6
f 6/6/6 82/96/82 85/97/85
f 85/100/85 87/101/87 6/114/6
f 6/114/6 87/101/87 94/115/94
f 2/2/2 4/4/4 88/104/88
f 88/104/88 4/4/4 74/82/74
f 88/104/88 33/33/33 2/2/2
f 2/2/2 33/33/33 32/32/32
f 67/155/67 23/156/23 89/145/89
f 89/145/89 23/156/23 22/146/22
f 115/163/115 43/164/43 63/157/63
f 63/157/63 43/164/43 45/158/45
f 15/15/15 26/26/26 12/12/12
f 70/165/70 18/166/18 84/98/84
f 84/98/84 18/166/18 86/99/86
f 83/92/83 80/93/80 69/153/69
f 69/153/69 80/93/80 21/154/21
f 83/94/83 69/77/69 84/95/84
f 84/95/84 69/77/69 70/78/70
f 66/161/66 39/162/39 65/149/65
f 65/149/65 39/162/39 41/150/41
f 76/84/76 17/17/17 58/60/58
f 68/147/68 116/148/116 70/165/70
f 70/165/70 116/148/116 18/166/18
f 3/3/3 2/2/2 32/32/32
s 2
f 583/167/117 586/168/118 117/169/119
f 117/170/119 118/171/120 119/172/121
f 119/172/121 118/171/120 120/173/122
f 119/172/121 120/173/122 121/174/123
f 121/174/123 120/173/122 122/175/124
f 123/176/125 124/177/126 122/175/124
f 122/175/124 124/177/126 121/174/123
f 125/178/127 126/179/128 123/176/125
f 123/176/125 126/179/128 124/177/126
f 127/180/129 126/179/128 128/181/130
f 128/181/130 126/179/128 125/178/127
f 129/182/131 127/180/129 130/183/132
f 130/183/132 127/180/129 128/181/130
f 129/182/131 130/183/132 131/184/133
f 131/184/133 130/183/132 132/185/134
f 131/184/133 132/185/134 133/186/135
f 133/186/135 132/185/134 134/187/136
f 133/186/135 134/187/136 135/188/137
f 135/188/137 134/187/136 136/189/138
f 135/188/137 136/189/138 137/190/139
f 137/190/139 136/189/138 138/191/140
f 137/190/139 138/191/140 139/192/141
f 139/192/141 138/191/140 140/193/142
f 139/192/141 140/193/142 141/194/143
f 141/194/143 140/193/142 142/195/144
f 141/194/143 142/195/144 143/196/145
f 143/196/145 142/195/144 144/197/146
f 143/196/145 144/197/146 145/198/147
f 145/198/147 144/197/146 146/199/148
f 145/198/147 146/199/148 147/200/149
f 147/200/149 146/199/148 148/201/150
f 147/200/149 148/201/150 149/202/151
f 149/202/151 148/201/150 150/203/152
f 149/202/151 150/203/152 151/204/153
f 151/204/153 150/203/152 152/205/154
f 151/204/153 152/205/154 153/206/155
f 153/206/155 152/205/154 154/207/156
f 155/208/157 153/206/155 156/209/158
f 156/209/158 153/206/155 154/207/156
f 155/208/157 156/209/158 157/210/159
f 157/210/159 156/209/158 158/211/160
f 157/210/159 158/211/160 159/212/161
f 159/212/161 158/211/160 160/213/162
f 161/214/163 162/215/164 163/216/165
f 163/216/165 162/215/164 164/217/166
f 161/214/163 163/216/165 165/218/167
f 165/218/167 163/216/165 166/219/168
f 165/218/167 166/219/168 167/220/169
f 167/220/169 166/219/168 168/221/170
f 167/220/169 168/221/170 169/222/171
f 169/222/171 168/221/170 170/223/172
f 169/222/171 170/223/172 171/224/173
f 171/224/173 170/223/172 172/225/174
f 173/226/175 174/227/176 175/228/177
f 176/229/178 177/230/179 178/231/180
f 178/231/180 177/230/179 179/232/181
f 151/204/153 153/206/155 177/233/179
f 177/233/179 153/206/155 179/234/181
f 180/235/182 181/236/183 152/205/154
f 152/205/154 181/236/183 154/207/156
f 182/237/184 183/238/185 184/239/186
f 184/239/186 183/238/185 185/240/187
f 186/241/188 187/242/189 182/237/184
f 182/237/184 187/242/189 183/238/185
f 188/243/190 189/244/191 186/241/188
f 186/241/188 189/244/191 187/242/189
f 190/245/192 191/246/193 188/243/190
f 188/243/190 191/246/193 189/244/191
f 192/247/194 193/248/195 190/245/192
f 190/245/192 193/248/195 191/246/193
f 194/249/196 195/250/197 192/247/194
f 192/247/194 195/250/197 193/248/195
f 196/251/198 197/252/199 194/249/196
f 194/249/196 197/252/199 195/250/197
f 174/227/176 173/226/175 196/251/198
f 196/251/198 173/226/175 197/252/199
f 198/253/200 199/254/201 200/255/202
f 198/253/200 200/255/202 201/256/203
f 201/256/203 200/255/202 202/257/204
f 201/256/203 202/257/204 203/258/205
f 203/258/205 202/257/204 204/259/206
f 203/258/205 204/259/206 205/260/207
f 205/260/207 204/259/206 206/261/208
f 205/260/207 206/261/208 207/262/209
f 207/262/209 206/261/208 208/263/210
f 207/262/209 208/263/210 209/264/211
f 209/264/211 208/263/210 210/265/212
f 209/264/211 210/265/212 211/266/213
f 211/266/213 210/265/212 212/267/214
f 211/266/213 212/267/214 213/268/215
f 213/268/215 212/267/214 214/269/216
f 215/270/217 216/271/218 146/199/148
f 146/199/148 216/271/218 148/201/150
f 145/198/147 147/200/149 217/272/219
f 217/272/219 147/200/149 218/273/220
f 219/274/221 217/275/219 220/276/222
f 220/276/222 217/275/219 218/277/220
f 200/255/202 199/254/201 221/278/223
f 222/279/224 223/280/225 224/281/226
f 224/281/226 223/280/225 225/282/227
f 135/188/137 137/190/139 223/283/225
f 223/283/225 137/190/139 225/284/227
f 226/285/228 227/286/229 136/189/138
f 136/189/138 227/286/229 138/191/140
f 228/287/230 229/288/231 230/289/232
f 230/289/232 229/288/231 231/290/233
f 232/291/234 233/292/235 228/287/230
f 228/287/230 233/292/235 229/288/231
f 234/293/236 235/294/237 232/291/234
f 232/291/234 235/294/237 233/292/235
f 236/295/238 237/296/239 234/293/236
f 234/293/236 237/296/239 235/294/237
f 238/297/240 239/298/241 236/295/238
f 236/295/238 239/298/241 237/296/239
f 240/299/242 241/300/243 238/297/240
f 238/297/240 241/300/243 239/298/241
f 242/301/244 243/302/245 240/299/242
f 240/299/242 243/302/245 241/300/243
f 243/302/245 242/301/244 244/303/246
f 244/303/246 242/301/244 245/304/247
f 244/303/246 245/304/247 246/305/248
f 246/305/248 245/304/247 247/306/249
f 248/307/250 249/308/251 250/309/252
f 250/309/252 249/308/251 251/310/253
f 250/309/252 251/310/253 252/311/254
f 252/311/254 251/310/253 253/312/255
f 254/313/256 255/314/257 253/312/255
f 253/312/255 255/314/257 252/311/254
f 256/315/258 257/316/259 254/313/256
f 254/313/256 257/316/259 255/314/257
f 257/316/259 256/315/258 258/317/260
f 258/317/260 256/315/258 259/318/261
f 258/317/260 259/318/261 260/319/262
f 260/319/262 259/318/261 261/320/263
f 260/319/262 261/320/263 262/321/264
f 262/321/264 261/320/263 263/322/265
f 264/323/266 262/321/264 265/324/267
f 265/324/267 262/321/264 263/322/265
f 128/181/130 125/178/127 266/325/268
f 266/325/268 125/178/127 267/326/269
f 126/179/128 127/180/129 268/327/270
f 268/327/270 127/180/129 269/328/271
f 270/329/272 271/330/273 269/331/271
f 269/331/271 271/330/273 268/332/270
f 249/308/251 248/307/250 272/333/274
f 272/333/274 248/307/250 273/334/275
f 268/332/270 271/330/273 274/335/276
f 274/335/276 271/330/273 275/336/277
f 124/177/126 126/179/128 274/337/276
f 274/337/276 126/179/128 268/327/270
f 267/326/269 125/178/127 276/338/278
f 276/338/278 125/178/127 123/176/125
f 264/323/266 277/339/279 262/321/264
f 262/321/264 277/339/279 278/340/280
f 279/341/281 260/319/262 278/340/280
f 278/340/280 260/319/262 262/321/264
f 258/317/260 260/319/262 280/342/282
f 280/342/282 260/319/262 279/341/281
f 257/316/259 258/317/260 281/343/283
f 281/343/283 258/317/260 280/342/282
f 257/316/259 281/343/283 255/314/257
f 255/314/257 281/343/283 282/344/284
f 252/311/254 255/314/257 283/345/285
f 283/345/285 255/314/257 282/344/284
f 250/309/252 252/311/254 284/346/286
f 284/346/286 252/311/254 283/345/285
f 248/307/250 250/309/252 285/347/287
f 285/347/287 250/309/252 284/346/286
f 273/334/275 248/307/250 286/348/288
f 286/348/288 248/307/250 285/347/287
f 289/349/289 290/350/290 291/351/291
f 291/351/291 290/350/290 292/352/292
f 289/349/289 291/351/291 118/171/120
f 118/171/120 291/351/291 120/173/122
f 293/353/293 294/354/294 119/172/121
f 119/172/121 294/354/294 117/170/119
f 294/355/294 293/356/293 295/357/295
f 295/357/295 293/356/293 296/358/296
f 297/359/297 298/360/298 299/361/299
f 299/361/299 298/360/298 300/362/300
f 564/363/301 302/364/302 565/365/303
f 303/366/304 304/367/305 305/368/306
f 306/369/307 303/366/304 305/368/306
f 307/370/308 306/369/307 308/371/309
f 308/371/309 306/369/307 305/368/306
f 172/372/174 308/371/309 171/373/173
f 171/373/173 308/371/309 305/368/306
f 309/374/310 171/373/173 305/368/306
f 310/375/311 305/368/306 311/376/312
f 311/376/312 305/368/306 312/377/313
f 312/377/313 305/368/306 313/378/314
f 313/378/314 305/368/306 314/379/315
f 314/379/315 305/368/306 315/380/316
f 305/368/306 304/367/305 315/380/316
f 316/381/317 309/374/310 310/375/311
f 310/375/311 309/374/310 305/368/306
f 600/382/318 601/383/319 289/384/289
f 291/351/291 292/352/292 317/385/320
f 317/385/320 292/352/292 318/386/321
f 319/387/322 320/388/323 321/389/324
f 321/389/324 320/388/323 322/390/325
f 321/389/324 322/390/325 323/391/326
f 323/391/326 322/390/325 324/392/327
f 323/391/326 324/392/327 325/393/328
f 325/393/328 324/392/327 326/394/329
f 325/393/328 326/394/329 327/395/330
f 327/395/330 326/394/329 328/396/331
f 327/395/330 328/396/331 329/397/332
f 329/397/332 328/396/331 330/398/333
f 331/399/334 332/400/335 330/398/333
f 330/398/333 332/400/335 329/397/332
f 332/400/335 331/399/334 333/401/336
f 333/401/336 331/399/334 334/402/337
f 333/401/336 334/402/337 335/403/338
f 335/403/338 334/402/337 336/404/339
f 337/405/340 338/406/341 336/404/339
f 336/404/339 338/406/341 335/403/338
f 338/406/341 337/405/340 298/360/298
f 298/360/298 337/405/340 300/362/300
f 596/407/342 299/361/299 597/408/343
f 584/409/344 295/357/295 585/410/345
f 600/382/318 289/384/289 588/411/346
f 588/411/346 118/412/120 587/413/347
f 339/414/348 340/415/349 341/416/350
f 341/416/350 340/415/349 342/417/351
f 340/415/349 343/418/352 342/417/351
f 342/417/351 343/418/352 344/419/353
f 163/216/165 345/420/354 166/219/168
f 166/219/168 345/420/354 346/421/355
f 347/422/356 161/214/163 348/423/357
f 348/423/357 161/214/163 165/218/167
f 349/424/358 347/425/356 350/426/359
f 350/426/359 347/425/356 348/427/357
f 351/428/360 352/429/361 353/430/362
f 353/430/362 352/429/361 354/431/363
f 351/428/360 353/430/362 355/432/364
f 355/432/364 353/430/362 356/433/365
f 355/432/364 356/433/365 357/434/366
f 357/434/366 356/433/365 358/435/367
f 357/434/366 359/436/368 355/432/364
f 355/432/364 359/436/368 360/437/369
f 361/438/370 357/434/366 362/439/371
f 362/439/371 357/434/366 358/435/367
f 361/438/370 363/440/372 357/434/366
f 357/434/366 363/440/372 359/436/368
f 364/441/373 365/442/374 361/438/370
f 361/438/370 365/442/374 363/440/372
f 366/443/375 367/444/376 368/445/377
f 368/445/377 367/444/376 369/446/378
f 370/447/379 369/446/378 371/448/380
f 371/448/380 369/446/378 367/444/376
f 372/449/381 373/450/382 366/443/375
f 366/443/375 373/450/382 367/444/376
f 374/451/383 371/448/380 373/450/382
f 373/450/382 371/448/380 367/444/376
f 375/452/384 376/453/385 373/450/382
f 373/450/382 376/453/385 374/451/383
f 377/454/386 168/221/170 346/421/355
f 346/421/355 168/221/170 166/219/168
f 165/218/167 167/220/169 348/423/357
f 348/423/357 167/220/169 378/455/387
f 378/455/387 167/220/169 379/456/388
f 379/456/388 167/220/169 169/222/171
f 380/457/389 378/458/387 379/459/388
f 350/426/359 348/427/357 378/458/387
f 353/430/362 354/431/363 381/460/390
f 381/460/390 354/431/363 382/461/391
f 356/433/365 353/430/362 383/462/392
f 383/462/392 353/430/362 381/460/390
f 358/435/367 356/433/365 384/463/393
f 384/463/393 356/433/365 383/462/392
f 362/439/371 358/435/367 385/464/394
f 385/464/394 358/435/367 384/463/393
f 368/445/377 369/446/378 386/465/395
f 386/465/395 369/446/378 387/466/396
f 370/447/379 364/441/373 369/446/378
f 369/446/378 364/441/373 387/466/396
f 388/467/397 389/468/398 390/469/399
f 390/469/399 389/468/398 391/470/400
f 391/470/400 187/242/189 189/244/191
f 392/471/401 389/468/398 393/472/402
f 393/472/402 389/468/398 388/467/397
f 392/471/401 183/238/185 389/468/398
f 394/473/403 392/471/401 395/474/404
f 395/474/404 392/471/401 393/472/402
f 394/473/403 185/240/187 392/471/401
f 392/471/401 185/240/187 183/238/185
f 158/211/160 156/209/158 396/475/405
f 156/209/158 154/207/156 397/476/406
f 397/476/406 154/207/156 181/236/183
f 153/206/155 155/208/157 179/234/181
f 179/234/181 155/208/157 398/477/407
f 398/477/407 155/208/157 399/478/408
f 399/478/408 155/208/157 157/210/159
f 400/479/409 398/480/407 401/481/410
f 401/481/410 398/480/407 399/482/408
f 178/231/180 179/232/181 400/479/409
f 400/479/409 179/232/181 398/480/407
f 402/483/411 403/484/412 404/485/413
f 404/485/413 403/484/412 405/486/414
f 402/483/411 173/226/175 403/484/412
f 403/484/412 173/226/175 406/487/415
f 407/488/416 402/483/411 408/489/417
f 408/489/417 402/483/411 404/485/413
f 407/488/416 197/252/199 402/483/411
f 402/483/411 197/252/199 173/226/175
f 409/490/418 407/488/416 410/491/419
f 410/491/419 407/488/416 408/489/417
f 409/490/418 195/250/197 407/488/416
f 407/488/416 195/250/197 197/252/199
f 411/492/420 409/490/418 412/493/421
f 412/493/421 409/490/418 410/491/419
f 411/492/420 193/248/195 409/490/418
f 409/490/418 193/248/195 195/250/197
f 413/494/422 411/492/420 414/495/423
f 414/495/423 411/492/420 412/493/421
f 413/494/422 191/246/193 411/492/420
f 411/492/420 191/246/193 193/248/195
f 391/470/400 413/494/422 390/469/399
f 413/494/422 189/244/191 191/246/193
f 388/467/397 390/469/399 415/496/424
f 341/416/350 342/417/351 415/496/424
f 415/496/424 342/417/351 416/497/425
f 393/472/402 388/467/397 416/497/425
f 416/497/425 388/467/397 415/496/424
f 417/498/426 416/497/425 344/419/353
f 344/419/353 416/497/425 342/417/351
f 395/474/404 393/472/402 417/498/426
f 417/498/426 393/472/402 416/497/425
f 163/216/165 164/217/166 345/420/354
f 345/420/354 164/217/166 418/499/427
f 158/211/160 396/475/405 160/213/162
f 157/210/159 159/212/161 399/478/408
f 399/478/408 159/212/161 419/500/428
f 401/481/410 399/482/408 420/501/429
f 420/501/429 399/482/408 419/502/428
f 421/503/430 422/504/431 423/505/432
f 404/485/413 405/486/414 422/504/431
f 422/504/431 405/486/414 423/505/432
f 421/503/430 424/506/433 422/504/431
f 422/504/431 424/506/433 425/507/434
f 408/489/417 404/485/413 422/504/431
f 426/508/435 425/507/434 424/506/433
f 410/491/419 408/489/417 426/508/435
f 426/508/435 408/489/417 425/507/434
f 427/509/436 426/508/435 363/440/372
f 363/440/372 426/508/435 359/436/368
f 412/493/421 410/491/419 428/510/437
f 428/510/437 410/491/419 426/508/435
f 429/511/438 427/509/436 365/442/374
f 365/442/374 427/509/436 363/440/372
f 414/495/423 412/493/421 430/512/439
f 430/512/439 412/493/421 428/510/437
f 431/513/440 390/469/399 430/512/439
f 430/512/439 390/469/399 414/495/423
f 432/514/441 433/515/442 434/516/443
f 434/516/443 433/515/442 435/517/444
f 432/514/441 434/516/443 436/518/445
f 436/518/445 434/516/443 437/519/446
f 436/518/445 437/519/446 438/520/447
f 438/520/447 437/519/446 439/521/448
f 438/520/447 439/521/448 440/522/449
f 440/522/449 439/521/448 441/523/450
f 440/522/449 441/523/450 442/524/451
f 442/524/451 441/523/450 443/525/452
f 442/524/451 443/525/452 444/526/453
f 444/526/453 443/525/452 445/527/454
f 444/526/453 445/527/454 446/528/455
f 446/528/455 445/527/454 447/529/456
f 446/528/455 447/529/456 448/530/457
f 448/530/457 447/529/456 449/531/458
f 450/532/459 451/533/460 130/183/132
f 130/183/132 451/533/460 132/185/134
f 129/182/131 131/184/133 452/534/461
f 452/534/461 131/184/133 453/535/462
f 454/536/463 452/537/461 455/538/464
f 455/538/464 452/537/461 453/539/462
f 435/517/444 433/515/442 456/540/465
f 456/540/465 433/515/442 457/541/466
f 458/542/467 459/543/468 460/544/469
f 460/544/469 459/543/468 461/545/470
f 461/545/470 459/543/468 462/546/471
f 462/546/471 459/543/468 463/547/472
f 464/548/473 465/549/474 466/550/475
f 466/550/475 465/549/474 467/551/476
f 465/552/474 139/192/141 467/553/476
f 467/553/476 139/192/141 141/194/143
f 140/193/142 468/554/477 142/195/144
f 142/195/144 468/554/477 469/555/478
f 470/556/479 471/557/480 472/558/481
f 472/558/481 471/557/480 473/559/482
f 473/559/482 474/560/483 472/558/481
f 472/558/481 474/560/483 475/561/484
f 474/560/483 476/562/485 475/561/484
f 475/561/484 476/562/485 477/563/486
f 478/564/487 479/565/488 480/566/489
f 480/566/489 479/565/488 481/567/490
f 458/542/467 460/544/469 479/565/488
f 479/565/488 460/544/469 481/567/490
f 482/568/491 483/569/492 174/227/176
f 174/227/176 483/569/492 175/228/177
f 482/568/491 174/227/176 484/570/493
f 484/570/493 174/227/176 196/251/198
f 484/570/493 196/251/198 485/571/494
f 485/571/494 196/251/198 194/249/196
f 485/571/494 194/249/196 486/572/495
f 486/572/495 194/249/196 192/247/194
f 486/572/495 192/247/194 487/573/496
f 487/573/496 192/247/194 190/245/192
f 487/573/496 190/245/192 488/574/497
f 488/574/497 190/245/192 188/243/190
f 488/574/497 188/243/190 489/575/498
f 489/575/498 188/243/190 186/241/188
f 489/575/498 186/241/188 490/576/499
f 490/576/499 186/241/188 182/237/184
f 490/576/499 182/237/184 491/577/500
f 491/577/500 182/237/184 184/239/186
f 492/578/501 180/235/182 150/203/152
f 150/203/152 180/235/182 152/205/154
f 149/202/151 151/204/153 493/579/502
f 493/579/502 151/204/153 177/233/179
f 494/580/503 493/581/502 176/229/178
f 176/229/178 493/581/502 177/230/179
f 434/516/443 435/517/444 495/582/504
f 495/582/504 435/517/444 496/583/505
f 434/516/443 495/582/504 437/519/446
f 437/519/446 495/582/504 497/584/506
f 437/519/446 497/584/506 439/521/448
f 439/521/448 497/584/506 498/585/507
f 439/521/448 498/585/507 441/523/450
f 441/523/450 498/585/507 499/586/508
f 441/523/450 499/586/508 443/525/452
f 443/525/452 499/586/508 500/587/509
f 443/525/452 500/587/509 445/527/454
f 445/527/454 500/587/509 501/588/510
f 445/527/454 501/588/510 447/529/456
f 447/529/456 501/588/510 502/589/511
f 447/529/456 502/589/511 449/531/458
f 449/531/458 502/589/511 503/590/512
f 451/533/460 504/591/513 132/185/134
f 132/185/134 504/591/513 134/187/136
f 131/184/133 133/186/135 453/535/462
f 453/535/462 133/186/135 505/592/514
f 455/538/464 453/539/462 506/593/515
f 506/593/515 453/539/462 505/594/514
f 496/583/505 435/517/444 507/595/516
f 507/595/516 435/517/444 456/540/465
f 460/544/469 461/545/470 508/596/517
f 508/596/517 461/545/470 509/597/518
f 460/544/469 508/596/517 481/567/490
f 481/567/490 508/596/517 510/598/519
f 481/567/490 510/598/519 480/566/489
f 480/566/489 510/598/519 511/599/520
f 478/564/487 480/566/489 512/600/521
f 512/600/521 480/566/489 513/601/522
f 512/600/521 513/601/522 476/562/485
f 476/562/485 513/601/522 477/563/486
f 477/563/486 514/602/523 475/561/484
f 475/561/484 514/602/523 515/603/524
f 475/561/484 515/603/524 472/558/481
f 472/558/481 515/603/524 516/604/525
f 472/558/481 516/604/525 470/556/479
f 470/556/479 516/604/525 517/605/526
f 469/555/478 518/606/527 142/195/144
f 142/195/144 518/606/527 144/197/146
f 141/194/143 143/196/145 467/553/476
f 467/553/476 143/196/145 519/607/528
f 466/550/475 467/551/476 520/608/529
f 520/608/529 467/551/476 519/609/528
f 509/597/518 461/545/470 521/610/530
f 521/610/530 461/545/470 462/546/471
f 243/302/245 244/303/246 458/542/467
f 458/542/467 244/303/246 459/543/468
f 243/302/245 458/542/467 241/300/243
f 241/300/243 458/542/467 479/565/488
f 241/300/243 479/565/488 239/298/241
f 239/298/241 479/565/488 478/564/487
f 239/298/241 478/564/487 237/296/239
f 237/296/239 478/564/487 512/600/521
f 237/296/239 512/600/521 235/294/237
f 235/294/237 512/600/521 476/562/485
f 235/294/237 476/562/485 233/292/235
f 233/292/235 476/562/485 474/560/483
f 233/292/235 474/560/483 229/288/231
f 229/288/231 474/560/483 473/559/482
f 229/288/231 473/559/482 231/290/233
f 231/290/233 473/559/482 471/557/480
f 227/286/229 468/554/477 138/191/140
f 138/191/140 468/554/477 140/193/142
f 137/190/139 139/192/141 225/284/227
f 225/284/227 139/192/141 465/552/474
f 224/281/226 225/282/227 464/548/473
f 464/548/473 225/282/227 465/549/474
f 459/543/468 244/303/246 463/547/472
f 463/547/472 244/303/246 246/305/248
f 484/570/493 200/255/202 482/568/491
f 482/568/491 200/255/202 221/278/223
f 200/255/202 484/570/493 202/257/204
f 202/257/204 484/570/493 485/571/494
f 202/257/204 485/571/494 204/259/206
f 204/259/206 485/571/494 486/572/495
f 204/259/206 486/572/495 206/261/208
f 206/261/208 486/572/495 487/573/496
f 206/261/208 487/573/496 208/263/210
f 208/263/210 487/573/496 488/574/497
f 208/263/210 488/574/497 210/265/212
f 210/265/212 488/574/497 489/575/498
f 210/265/212 489/575/498 212/267/214
f 212/267/214 489/575/498 490/576/499
f 212/267/214 490/576/499 214/269/216
f 214/269/216 490/576/499 491/577/500
f 216/271/218 492/578/501 148/201/150
f 148/201/150 492/578/501 150/203/152
f 147/200/149 149/202/151 218/273/220
f 218/273/220 149/202/151 493/579/502
f 220/276/222 218/277/220 494/580/503
f 494/580/503 218/277/220 493/581/502
f 482/568/491 221/278/223 483/569/492
f 483/569/492 221/278/223 522/611/531
f 495/582/504 496/583/505 242/301/244
f 242/301/244 496/583/505 245/304/247
f 495/582/504 242/301/244 497/584/506
f 497/584/506 242/301/244 240/299/242
f 497/584/506 240/299/242 498/585/507
f 498/585/507 240/299/242 238/297/240
f 498/585/507 238/297/240 499/586/508
f 499/586/508 238/297/240 236/295/238
f 499/586/508 236/295/238 500/587/509
f 500/587/509 236/295/238 234/293/236
f 500/587/509 234/293/236 501/588/510
f 501/588/510 234/293/236 232/291/234
f 501/588/510 232/291/234 502/589/511
f 502/589/511 232/291/234 228/287/230
f 502/589/511 228/287/230 503/590/512
f 503/590/512 228/287/230 230/289/232
f 504/591/513 226/285/228 134/187/136
f 134/187/136 226/285/228 136/189/138
f 133/186/135 135/188/137 505/592/514
f 505/592/514 135/188/137 223/283/225
f 506/593/515 505/594/514 222/279/224
f 222/279/224 505/594/514 223/280/225
f 245/304/247 496/583/505 247/306/249
f 247/306/249 496/583/505 507/595/516
f 508/596/517 509/597/518 198/253/200
f 198/253/200 509/597/518 199/254/201
f 508/596/517 198/253/200 510/598/519
f 510/598/519 198/253/200 201/256/203
f 510/598/519 201/256/203 511/599/520
f 511/599/520 201/256/203 203/258/205
f 511/599/520 203/258/205 523/612/532
f 523/612/532 203/258/205 205/260/207
f 523/612/532 205/260/207 514/602/523
f 514/602/523 205/260/207 207/262/209
f 514/602/523 207/262/209 515/603/524
f 515/603/524 207/262/209 209/264/211
f 515/603/524 209/264/211 516/604/525
f 516/604/525 209/264/211 211/266/213
f 516/604/525 211/266/213 517/605/526
f 517/605/526 211/266/213 213/268/215
f 518/606/527 215/270/217 144/197/146
f 144/197/146 215/270/217 146/199/148
f 143/196/145 145/198/147 519/607/528
f 519/607/528 145/198/147 217/272/219
f 520/608/529 519/609/528 219/274/221
f 219/274/221 519/609/528 217/275/219
f 199/254/201 509/597/518 524/613/533
f 524/613/533 509/597/518 521/610/530
f 433/515/442 432/514/441 249/308/251
f 249/308/251 432/514/441 251/310/253
f 432/514/441 436/518/445 251/310/253
f 251/310/253 436/518/445 253/312/255
f 129/182/131 452/534/461 127/180/129
f 127/180/129 452/534/461 269/328/271
f 525/614/534 526/615/535 293/356/293
f 293/356/293 526/615/535 296/358/296
f 525/614/534 274/335/276 526/615/535
f 526/615/535 274/335/276 275/336/277
f 551/616/536 562/617/537 527/618/538
f 286/348/288 285/347/287 338/406/341
f 338/406/341 285/347/287 335/403/338
f 285/347/287 284/346/286 335/403/338
f 335/403/338 284/346/286 333/401/336
f 284/346/286 283/345/285 333/401/336
f 333/401/336 283/345/285 332/400/335
f 291/351/291 317/385/320 120/173/122
f 120/173/122 317/385/320 122/175/124
f 525/619/534 293/353/293 121/174/123
f 121/174/123 293/353/293 119/172/121
f 563/620/539 572/621/540 528/622/541
f 573/623/542 579/624/543 531/625/544
f 276/338/278 123/176/125 317/385/320
f 317/385/320 123/176/125 122/175/124
f 121/174/123 124/177/126 525/619/534
f 525/619/534 124/177/126 274/337/276
f 281/343/283 280/342/282 327/395/330
f 327/395/330 280/342/282 325/393/328
f 283/345/285 282/344/284 332/400/335
f 332/400/335 282/344/284 329/397/332
f 281/343/283 327/395/330 282/344/284
f 282/344/284 327/395/330 329/397/332
f 433/515/442 249/308/251 457/541/466
f 457/541/466 249/308/251 272/333/274
f 532/626/545 270/329/272 454/536/463
f 454/536/463 270/329/272 452/537/461
f 130/183/132 128/181/130 450/532/459
f 450/532/459 128/181/130 266/325/268
f 440/522/449 442/524/451 256/315/258
f 256/315/258 442/524/451 259/318/261
f 440/522/449 256/315/258 438/520/447
f 438/520/447 256/315/258 254/313/256
f 438/520/447 254/313/256 436/518/445
f 436/518/445 254/313/256 253/312/255
f 277/339/279 319/387/322 278/340/280
f 278/340/280 319/387/322 321/389/324
f 265/324/267 263/322/265 448/530/457
f 448/530/457 263/322/265 446/528/455
f 574/627/546 552/628/547 533/629/548
f 567/630/549 530/631/550 553/632/551
f 553/632/551 533/629/548 552/628/547
f 259/318/261 442/524/451 261/320/263
f 261/320/263 442/524/451 444/526/453
f 280/342/282 279/341/281 325/393/328
f 325/393/328 279/341/281 323/391/326
f 323/391/326 279/341/281 321/389/324
f 321/389/324 279/341/281 278/340/280
f 261/320/263 444/526/453 263/322/265
f 263/322/265 444/526/453 446/528/455
f 382/461/391 350/426/359 380/457/389
f 380/457/389 350/426/359 378/458/387
f 156/209/158 397/476/406 396/475/405
f 160/213/162 396/475/405 534/633/552
f 513/601/522 523/612/532 477/563/486
f 477/563/486 523/612/532 514/602/523
f 480/566/489 511/599/520 513/601/522
f 513/601/522 511/599/520 523/612/532
f 221/278/223 199/254/201 524/613/533
f 406/487/415 173/226/175 175/228/177
f 429/511/438 431/513/440 430/512/439
f 429/511/438 430/512/439 427/509/436
f 427/509/436 430/512/439 428/510/437
f 427/509/436 428/510/437 426/508/435
f 370/447/379 535/634/553 364/441/373
f 364/441/373 535/634/553 365/442/374
f 376/453/385 343/418/352 374/451/383
f 374/451/383 343/418/352 340/415/349
f 374/451/383 340/415/349 371/448/380
f 371/448/380 340/415/349 339/414/348
f 339/414/348 535/634/553 371/448/380
f 371/448/380 535/634/553 370/447/379
f 534/633/552 417/498/426 418/499/427
f 418/499/427 417/498/426 344/419/353
f 164/217/166 160/213/162 418/499/427
f 418/499/427 160/213/162 534/633/552
f 159/212/161 160/213/162 162/215/164
f 162/215/164 160/213/162 164/217/166
f 536/635/554 341/416/350 431/513/440
f 431/513/440 341/416/350 415/496/424
f 536/635/554 431/513/440 365/442/374
f 365/442/374 431/513/440 429/511/438
f 339/414/348 341/416/350 535/634/553
f 535/634/553 341/416/350 536/635/554
f 365/442/374 535/634/553 536/635/554
f 537/636/555 421/503/430 538/637/556
f 538/637/556 421/503/430 423/505/432
f 539/638/557 538/637/556 420/501/429
f 420/501/429 538/637/556 423/505/432
f 539/638/557 420/501/429 540/639/558
f 540/639/558 420/501/429 419/502/428
f 540/640/558 419/500/428 162/215/164
f 162/215/164 419/500/428 159/212/161
f 355/432/364 360/437/369 351/428/360
f 351/428/360 360/437/369 537/636/555
f 352/429/361 351/428/360 538/637/556
f 538/637/556 351/428/360 537/636/555
f 349/424/358 352/429/361 539/638/557
f 539/638/557 352/429/361 538/637/556
f 349/424/358 539/638/557 347/425/356
f 347/425/356 539/638/557 540/639/558
f 540/640/558 162/215/164 347/422/356
f 170/223/172 168/221/170 541/641/559
f 541/641/559 168/221/170 377/454/386
f 542/642/560 541/641/559 375/452/384
f 375/452/384 541/641/559 377/454/386
f 542/642/560 375/452/384 372/449/381
f 372/449/381 375/452/384 373/450/382
f 162/215/164 161/214/163 347/422/356
f 361/438/370 362/439/371 364/441/373
f 364/441/373 362/439/371 387/466/396
f 386/465/395 387/466/396 385/464/394
f 385/464/394 387/466/396 362/439/371
f 307/643/308 308/644/309 542/642/560
f 542/642/560 308/644/309 541/641/559
f 306/645/307 307/643/308 372/449/381
f 372/449/381 307/643/308 542/642/560
f 306/645/307 372/449/381 303/646/304
f 303/646/304 372/449/381 366/443/375
f 303/646/304 366/443/375 304/647/305
f 304/647/305 366/443/375 368/445/377
f 304/647/305 368/445/377 315/648/316
f 315/648/316 368/445/377 386/465/395
f 314/649/315 315/648/316 385/464/394
f 385/464/394 315/648/316 386/465/395
f 313/650/314 314/649/315 384/463/393
f 384/463/393 314/649/315 385/464/394
f 312/651/313 313/650/314 383/462/392
f 383/462/392 313/650/314 384/463/393
f 311/652/312 312/651/313 381/460/390
f 381/460/390 312/651/313 383/462/392
f 310/653/311 311/652/312 382/461/391
f 382/461/391 311/652/312 381/460/390
f 316/654/317 310/653/311 380/457/389
f 380/457/389 310/653/311 382/461/391
f 309/655/310 316/654/317 379/459/388
f 379/459/388 316/654/317 380/457/389
f 171/224/173 309/656/310 169/222/171
f 169/222/171 309/656/310 379/456/388
f 172/225/174 170/223/172 308/644/309
f 308/644/309 170/223/172 541/641/559
f 359/436/368 426/508/435 360/437/369
f 360/437/369 426/508/435 424/506/433
f 537/636/555 360/437/369 421/503/430
f 421/503/430 360/437/369 424/506/433
f 425/507/434 408/489/417 422/504/431
f 389/468/398 183/238/185 187/242/189
f 389/468/398 187/242/189 391/470/400
f 391/470/400 189/244/191 413/494/422
f 390/469/399 413/494/422 414/495/423
f 431/513/440 415/496/424 390/469/399
f 522/611/531 221/278/223 524/613/533
f 452/537/461 270/329/272 269/331/271
f 581/657/561 543/658/562 590/659/563
f 543/658/562 295/357/295 544/660/564
f 544/660/564 295/357/295 296/358/296
f 526/615/535 545/661/565 296/358/296
f 296/358/296 545/661/565 544/660/564
f 545/661/565 526/615/535 546/662/566
f 546/662/566 526/615/535 275/336/277
f 271/330/273 547/663/567 275/336/277
f 275/336/277 547/663/567 546/662/566
f 532/626/545 547/663/567 270/329/272
f 270/329/272 547/663/567 271/330/273
f 297/359/297 543/658/562 298/360/298
f 298/360/298 543/658/562 544/660/564
f 545/661/565 338/406/341 544/660/564
f 544/660/564 338/406/341 298/360/298
f 338/406/341 545/661/565 286/348/288
f 286/348/288 545/661/565 546/662/566
f 547/663/567 273/334/275 546/662/566
f 546/662/566 273/334/275 286/348/288
f 272/333/274 273/334/275 532/626/545
f 532/626/545 273/334/275 547/663/567
f 457/541/466 272/333/274 454/536/463
f 454/536/463 272/333/274 532/626/545
f 457/541/466 454/536/463 456/540/465
f 456/540/465 454/536/463 455/538/464
f 456/540/465 455/538/464 507/595/516
f 507/595/516 455/538/464 506/593/515
f 507/595/516 506/593/515 247/306/249
f 247/306/249 506/593/515 222/279/224
f 247/306/249 222/279/224 246/305/248
f 246/305/248 222/279/224 224/281/226
f 246/305/248 224/281/226 463/547/472
f 463/547/472 224/281/226 464/548/473
f 463/547/472 464/548/473 462/546/471
f 462/546/471 464/548/473 466/550/475
f 462/546/471 466/550/475 521/610/530
f 521/610/530 466/550/475 520/608/529
f 521/610/530 520/608/529 524/613/533
f 524/613/533 520/608/529 219/274/221
f 524/613/533 219/274/221 522/611/531
f 522/611/531 219/274/221 220/276/222
f 522/611/531 220/276/222 483/569/492
f 483/569/492 220/276/222 494/580/503
f 483/569/492 494/580/503 175/228/177
f 175/228/177 494/580/503 176/229/178
f 175/228/177 176/229/178 406/487/415
f 406/487/415 176/229/178 178/231/180
f 403/484/412 406/487/415 400/479/409
f 400/479/409 406/487/415 178/231/180
f 403/484/412 400/479/409 405/486/414
f 405/486/414 400/479/409 401/481/410
f 405/486/414 401/481/410 423/505/432
f 423/505/432 401/481/410 420/501/429
f 352/429/361 349/424/358 354/431/363
f 354/431/363 349/424/358 350/426/359
f 354/431/363 350/426/359 382/461/391
f 578/664/568 554/665/569 529/666/570
f 318/386/321 529/666/570 320/388/323
f 320/388/323 529/666/570 527/618/538
f 317/385/320 318/386/321 319/387/322
f 319/387/322 318/386/321 320/388/323
f 276/338/278 317/385/320 277/339/279
f 277/339/279 317/385/320 319/387/322
f 267/326/269 276/338/278 264/323/266
f 264/323/266 276/338/278 277/339/279
f 267/326/269 264/323/266 266/325/268
f 266/325/268 264/323/266 265/324/267
f 266/325/268 265/324/267 450/532/459
f 450/532/459 265/324/267 448/530/457
f 450/532/459 448/530/457 451/533/460
f 451/533/460 448/530/457 449/531/458
f 451/533/460 449/531/458 504/591/513
f 504/591/513 449/531/458 503/590/512
f 504/591/513 503/590/512 226/285/228
f 226/285/228 503/590/512 230/289/232
f 226/285/228 230/289/232 227/286/229
f 227/286/229 230/289/232 231/290/233
f 227/286/229 231/290/233 468/554/477
f 468/554/477 231/290/233 471/557/480
f 469/555/478 468/554/477 470/556/479
f 470/556/479 468/554/477 471/557/480
f 469/555/478 470/556/479 518/606/527
f 518/606/527 470/556/479 517/605/526
f 518/606/527 517/605/526 215/270/217
f 215/270/217 517/605/526 213/268/215
f 215/270/217 213/268/215 216/271/218
f 216/271/218 213/268/215 214/269/216
f 216/271/218 214/269/216 492/578/501
f 492/578/501 214/269/216 491/577/500
f 492/578/501 491/577/500 180/235/182
f 180/235/182 491/577/500 184/239/186
f 180/235/182 184/239/186 181/236/183
f 181/236/183 184/239/186 185/240/187
f 397/476/406 181/236/183 394/473/403
f 394/473/403 181/236/183 185/240/187
f 397/476/406 394/473/403 396/475/405
f 396/475/405 394/473/403 395/474/404
f 396/475/405 395/474/404 534/633/552
f 534/633/552 395/474/404 417/498/426
f 343/418/352 345/420/354 344/419/353
f 344/419/353 345/420/354 418/499/427
f 345/420/354 343/418/352 346/421/355
f 346/421/355 343/418/352 376/453/385
f 377/454/386 346/421/355 375/452/384
f 375/452/384 346/421/355 376/453/385
f 598/667/571 301/668/572 580/669/573
f 301/668/572 299/361/299 302/364/302
f 302/364/302 299/361/299 300/362/300
f 337/405/340 530/631/550 300/362/300
f 300/362/300 530/631/550 302/364/302
f 530/631/550 337/405/340 533/629/548
f 533/629/548 337/405/340 336/404/339
f 555/670/574 331/399/334 556/671/575
f 556/671/575 330/398/333 549/672/576
f 324/392/327 531/625/544 326/394/329
f 322/390/325 528/622/541 324/392/327
f 324/392/327 528/622/541 531/625/544
f 320/388/323 527/618/538 322/390/325
f 322/390/325 527/618/538 528/622/541
f 292/352/292 288/673/577 318/386/321
f 318/386/321 288/673/577 529/666/570
f 290/350/290 287/674/578 292/352/292
f 292/352/292 287/674/578 288/673/577
f 594/675/579 595/676/580 290/677/290
f 328/396/331 577/678/581 576/679/582
f 336/404/339 574/627/546 533/629/548
f 572/621/540 531/625/544 528/622/541
f 326/394/329 577/678/581 328/396/331
f 334/402/337 575/680/583 336/404/339
f 334/402/337 570/681/584 569/682/585
f 530/631/550 568/683/586 302/364/302
f 302/364/302 568/683/586 565/365/303
f 562/617/537 528/622/541 527/618/538
f 599/684/587 566/685/588 287/686/578
f 301/668/572 564/363/301 561/687/589
f 287/674/578 560/688/590 288/673/577
f 287/686/578 566/685/588 559/689/591
f 529/666/570 558/690/592 578/664/568
f 288/673/577 558/690/592 529/666/570
f 288/673/577 560/688/590 557/691/593
f 331/399/334 570/681/584 334/402/337
f 554/665/569 527/618/538 529/666/570
f 328/396/331 550/692/594 330/398/333
f 330/398/333 550/692/594 549/672/576
f 531/625/544 579/624/543 548/693/595
f 326/394/329 548/693/595 571/694/596
f 591/695/597 297/359/297 602/696/598
f 299/361/299 598/667/571 597/408/343
f 297/359/297 596/407/342 602/696/598
f 595/676/580 287/686/578 290/677/290
f 601/383/319 290/677/290 289/384/289
f 543/658/562 591/695/597 590/659/563
f 586/168/118 118/412/120 117/169/119
f 117/169/119 589/697/599 583/167/117
f 294/355/294 584/409/344 582/698/600
f 294/699/294 589/697/599 117/169/119
f 295/357/295 581/657/561 585/410/345
f 561/687/589 580/669/573 301/668/572
f 588/411/346 289/384/289 118/412/120
f 553/632/551 530/631/550 533/629/548
f 556/671/575 331/399/334 330/398/333
f 336/404/339 575/680/583 574/627/546
f 572/621/540 573/623/542 531/625/544
f 326/394/329 571/694/596 577/678/581
f 334/402/337 569/682/585 575/680/583
f 530/631/550 567/630/549 568/683/586
f 562/617/537 563/620/539 528/622/541
f 599/684/587 592/700/601 566/685/588
f 301/668/572 302/364/302 564/363/301
f 287/674/578 559/701/591 560/688/590
f 288/673/577 557/691/593 558/690/592
f 331/399/334 555/670/574 570/681/584
f 554/665/569 551/616/536 527/618/538
f 328/396/331 576/679/582 550/692/594
f 326/394/329 531/625/544 548/693/595
f 299/361/299 301/668/572 598/667/571
f 297/359/297 299/361/299 596/407/342
f 595/676/580 599/684/587 287/686/578
f 601/383/319 594/675/579 290/677/290
f 543/658/562 297/359/297 591/695/597
f 586/168/118 587/413/347 118/412/120
f 294/355/294 295/357/295 584/409/344
f 294/699/294 582/702/600 589/697/599
f 295/357/295 543/658/562 581/657/561
f 561/687/589 593/703/602 580/669/573
